<?xml version="1.0" standalone="no"?>
<!DOCTYPE svg PUBLIC "-//W3C//DTD SVG 1.1//EN" "http://www.w3.org/Graphics/SVG/1.1/DTD/svg11.dtd" >
<!--
2013-9-30: Created.
-->
<svg>
<metadata>
Created by iconfont
</metadata>
<defs>

<font id="iconfont" horiz-adv-x="1024" >
  <font-face
    font-family="iconfont"
    font-weight="500"
    font-stretch="normal"
    units-per-em="1024"
    ascent="896"
    descent="-128"
  />
    <missing-glyph />
    
    <glyph glyph-name="baobiaoguanli" unicode="&#59004;" d="M947.2 834.133333H729.6v-85.333333h147.2c14.933333 0 27.733333-14.933333 27.733333-34.133333v-716.8c0-19.2-12.8-34.133333-27.733333-34.133334H153.6c-14.933333 0-27.733333 14.933333-27.733333 34.133334V712.533333c0 19.2 12.8 34.133333 27.733333 34.133334h147.2V832H85.333333c-14.933333 0-27.733333-14.933333-27.733333-34.133333v-887.466667c0-19.2 12.8-34.133333 27.733333-34.133333h861.866667c14.933333 0 27.733333 14.933333 27.733333 34.133333V800c0 17.066667-12.8 34.133333-27.733333 34.133333z m0 0M347.733333 699.733333h337.066667c14.933333 0 27.733333 12.8 27.733333 27.733334V861.866667c0 14.933333-12.8 27.733333-27.733333 27.733333H347.733333c-14.933333 0-27.733333-12.8-27.733333-27.733333v-132.266667c0-17.066667 10.666667-29.866667 27.733333-29.866667z m40.533334 93.866667c0 14.933333 12.8 27.733333 27.733333 27.733333h198.4c14.933333 0 27.733333-12.8 27.733333-27.733333 0-14.933333-12.8-27.733333-27.733333-27.733333h-198.4c-14.933333 0-27.733333 12.8-27.733333 27.733333z m-108.8-247.466667h473.6v-74.666666H279.466667v74.666666z m0-174.933333h473.6v-74.666667H279.466667v74.666667z m0-174.933333h473.6v-74.666667H279.466667v74.666667z m0 0"  horiz-adv-x="1024" />

    
    <glyph glyph-name="caigouguanli" unicode="&#59005;" d="M923.733333 652.8L829.866667 341.333333H343.466667l-85.333334 309.333334h665.6M189.866667 885.333333H6.4v-76.8h125.866667l23.466666-78.933333L277.333333 292.266667c2.133333-6.4 4.266667-10.666667 8.533334-14.933334l-64-100.266666c-8.533333-6.4-12.8-17.066667-12.8-27.733334 0-21.333333 17.066667-38.4 38.4-38.4h686.933333v76.8H320l49.066667 76.8h490.666666c17.066667 0 29.866667 10.666667 36.266667 27.733334l117.333333 386.133333c8.533333 25.6-10.666667 51.2-36.266666 51.2H234.666667l-21.333334 76.8L189.866667 885.333333z m49.066666-930.133333c0-42.666667 34.133333-76.8 76.8-76.8s76.8 34.133333 76.8 76.8-34.133333 76.8-76.8 76.8-76.8-34.133333-76.8-76.8z m544 0c0-42.666667 34.133333-76.8 76.8-76.8s76.8 34.133333 76.8 76.8-34.133333 76.8-76.8 76.8-76.8-34.133333-76.8-76.8z m0 0"  horiz-adv-x="1024" />

    
    <glyph glyph-name="cangchuguanli" unicode="&#59006;" d="M507.733333 893.866667l-8.533333-8.533334L6.4 390.4l53.333333-53.333333 448 448 445.866667-435.2 53.333333 55.466666L507.733333 893.866667zM262.4 241.066667H341.333333v-78.933334h-78.933333v78.933334z m0-136.533334H341.333333v-78.933333h-78.933333v78.933333z m134.4 0h78.933333v-78.933333h-78.933333v78.933333z m136.533333 0h78.933334v-78.933333H533.333333v78.933333z m0 0M832 345.6v-358.4c0-17.066667-12.8-29.866667-29.866667-29.866667H224c-17.066667 0-29.866667 12.8-29.866667 29.866667V345.6v4.266667H115.2v-439.466667c0-17.066667 12.8-29.866667 29.866667-29.866667h731.733333c17.066667 0 29.866667 12.8 29.866667 29.866667V349.866667H832v-4.266667z m0 0"  horiz-adv-x="1024" />

    
    <glyph glyph-name="caozuoguanli" unicode="&#59007;" d="M6.4 548.266667h204.8V490.666667H6.4v57.6z m0-147.2h204.8v-57.6H6.4v57.6z m0-145.066667h204.8v-57.6H6.4V256z m887.466667 206.933333v-448c0-14.933333-12.8-25.6-25.6-25.6H174.933333c-14.933333 0-25.6 12.8-25.6 25.6V106.666667H81.066667v-155.733334c0-14.933333 12.8-25.6 25.6-25.6h825.6c14.933333 0 25.6 12.8 25.6 25.6v512h-64zM147.2 716.8c0 14.933333 12.8 25.6 25.6 25.6h567.466667V808.533333H108.8c-14.933333 0-25.6-12.8-25.6-25.6v-155.733333h66.133333V716.8z m0 0M595.2 264.533333l-104.533333 102.4-66.133334-174.933333 170.666667 72.533333z m332.8 326.4l-106.666667 110.933334-311.466666-305.066667 110.933333-115.2 307.2 309.333333z m87.466667 85.333334c14.933333 17.066667 0 46.933333 0 46.933333s-27.733333 32-61.866667 55.466667c-32 23.466667-57.6 0-57.6 0l-55.466667-55.466667 113.066667-110.933333s49.066667 46.933333 61.866667 64z m0 0"  horiz-adv-x="1026" />

    
    <glyph glyph-name="caozuorizhi" unicode="&#59008;" d="M902.4 667.733333c-14.933333 14.933333-42.666667 12.8-59.733333-4.266666l-57.6-57.6 157.866666-157.866667 57.6 57.6c17.066667 17.066667 19.2 44.8 6.4 59.733333l-104.533333 102.4z m-317.866667-98.133333c10.666667 0 17.066667 12.8 17.066667 21.333333s-8.533333 21.333333-17.066667 21.333334H209.066667c-10.666667 0-17.066667-12.8-17.066667-21.333334 0-10.666667 8.533333-21.333333 17.066667-21.333333h375.466666zM369.066667 194.133333l-2.133334-2.133333-61.866666-194.133333c-2.133333-6.4-2.133333-10.666667 2.133333-14.933334 4.266667-4.266667 10.666667-4.266667 14.933333-2.133333l198.4 61.866667 2.133334 2.133333c8.533333 2.133333 12.8 6.4 12.8 8.533333L917.333333 424.533333l-160 155.733334-268.8-262.4H209.066667c-10.666667 0-19.2-10.666667-19.2-21.333334 0-8.533333 8.533333-19.2 19.2-19.2h241.066666l-72.533333-66.133333c-2.133333-4.266667-8.533333-10.666667-8.533333-17.066667z m66.133333 32l298.666667 292.266667c4.266667 4.266667 14.933333 4.266667 19.2 0 4.266667-6.4 4.266667-14.933333-2.133334-19.2L454.4 206.933333c-4.266667-4.266667-14.933333-4.266667-19.2 0-6.4 4.266667-6.4 14.933333 0 19.2z m53.333333-164.266666L405.333333 36.266667l-40.533333 40.533333 25.6 81.066667 98.133333-96z m0 0M209.066667 426.666667h375.466666c10.666667 0 17.066667 12.8 17.066667 21.333333s-8.533333 21.333333-17.066667 21.333333H209.066667c-10.666667 0-17.066667-12.8-17.066667-21.333333-2.133333-10.666667 6.4-21.333333 17.066667-21.333333z m0 0M793.6-91.733333V253.866667l-76.8-70.4v-198.4c0-17.066667-14.933333-32-29.866667-32H119.466667c-17.066667 0-29.866667 14.933333-29.866667 32V718.933333c0 17.066667 14.933333 32 29.866667 32h44.8v-23.466666c0-10.666667 10.666667-21.333333 23.466666-21.333334 10.666667 0 23.466667 10.666667 23.466667 21.333334V750.933333h102.4v-23.466666c0-10.666667 10.666667-21.333333 23.466667-21.333334 10.666667 0 23.466667 10.666667 23.466666 21.333334V750.933333h93.866667v-23.466666c0-10.666667 10.666667-21.333333 23.466667-21.333334 10.666667 0 23.466667 10.666667 23.466666 21.333334V750.933333h93.866667v-23.466666c0-10.666667 10.666667-21.333333 23.466667-21.333334 10.666667 0 23.466667 10.666667 23.466666 21.333334V750.933333h49.066667c17.066667 0 29.866667-14.933333 29.866667-32l6.4-102.4 70.4 68.266667V797.866667c0 17.066667-14.933333 32-29.866667 32h-128V876.8c0 10.666667-10.666667 19.2-23.466667 19.2-10.666667 0-23.466667-8.533333-23.466666-19.2v-49.066667h-93.866667V876.8c0 10.666667-10.666667 19.2-23.466667 19.2-10.666667 0-23.466667-8.533333-23.466666-19.2v-49.066667h-93.866667V876.8c0 10.666667-10.666667 19.2-23.466667 19.2-10.666667 0-23.466667-8.533333-23.466666-19.2v-49.066667H209.066667V876.8c0 10.666667-12.8 19.2-23.466667 19.2-10.666667 0-23.466667-8.533333-23.466667-19.2v-49.066667H40.533333c-17.066667 0-29.866667-14.933333-29.866666-32v-889.6c0-17.066667 14.933333-32 29.866666-32h721.066667c17.066667 2.133333 32 17.066667 32 34.133334z m0 0"  horiz-adv-x="1024" />

    
    <glyph glyph-name="cuowurizhi" unicode="&#59009;" d="M343.466667 714.666667h330.666666c14.933333 0 27.733333 10.666667 27.733334 25.6V866.133333c0 14.933333-12.8 25.6-27.733334 25.6H343.466667c-14.933333 0-27.733333-10.666667-27.733334-25.6v-125.866666c0-14.933333 12.8-25.6 27.733334-25.6z m68.266666 113.066666h194.133334c14.933333 0 27.733333-10.666667 27.733333-25.6s-12.8-25.6-27.733333-25.6h-194.133334c-14.933333 0-27.733333 12.8-27.733333 25.6 0 14.933333 12.8 25.6 27.733333 25.6zM298.666667 569.6h422.4v-70.4H298.666667v70.4z m0-330.666667h422.4v-70.4H298.666667v70.4z m0 164.266667h422.4v-70.4H298.666667v70.4z m691.2-256l-36.266667 36.266667-78.933333-81.066667-74.666667 83.2-38.4-34.133333 76.8-85.333334-81.066667-81.066666 36.266667-36.266667 78.933333 78.933333 74.666667-83.2 38.4 34.133334-76.8 85.333333 81.066667 83.2zM908.8 736v-435.2h70.4V823.466667c0 19.2-12.8 34.133333-27.733333 34.133333H729.6v-87.466667h151.466667c14.933333 2.133333 27.733333-14.933333 27.733333-34.133333z m0 0M110.933333 2.133333V736c0 19.2 12.8 34.133333 27.733334 34.133333h151.466666V859.733333H68.266667c-14.933333 0-27.733333-14.933333-27.733334-34.133333V-85.333333c0-19.2 12.8-34.133333 27.733334-34.133334H682.666667v87.466667H138.666667c-14.933333-2.133333-27.733333 14.933333-27.733334 34.133333z m0 0"  horiz-adv-x="1024" />

    
    <glyph glyph-name="fenlei" unicode="&#59010;" d="M221.405405 806.586279h794.079002v-76.640333H221.405405V806.586279zM2.128898 806.586279h112.831601v-76.640333H2.128898V806.586279z m219.276507-387.45946h794.079002v-76.640333H221.405405v76.640333zM0 416.997921h112.831601V340.357588H0v76.640333z m221.405405-385.330561h794.079002v-76.640333H221.405405v76.640333zM0 31.66736h112.831601v-76.640333H0v76.640333z m0 0"  horiz-adv-x="1024" />

    
    <glyph glyph-name="fenlei1" unicode="&#59011;" d="M8.533333 819.2h1013.333334v-76.8H8.533333V819.2z m0-386.133333h1013.333334v-76.8H8.533333v76.8zM6.4 46.933333h1013.333333v-76.8H6.4v76.8z m0 0"  horiz-adv-x="1024" />

    
    <glyph glyph-name="xiaoshouguanli" unicode="&#59012;" d="M657.066667 426.666667c91.733333 61.866667 132.266667 174.933333 100.266666 279.466666S627.2 883.2 518.4 883.2C407.466667 883.2 311.466667 810.666667 279.466667 706.133333s8.533333-219.733333 100.266666-279.466666c-170.666667-44.8-292.266667-198.4-298.666666-375.466667 0-110.933333 219.733333-166.4 437.333333-166.4 219.733333 0 437.333333 55.466667 437.333333 164.266667-4.266667 177.066667-125.866667 330.666667-298.666666 377.6z m-83.2-326.4l-53.333334-53.333334-53.333333 53.333334 53.333333 181.333333 53.333334-181.333333z m-241.066667 533.333333c0 104.533333 83.2 187.733333 187.733333 187.733333s187.733333-83.2 187.733334-187.733333-83.2-187.733333-187.733334-187.733333c-49.066667 0-98.133333 19.2-132.266666 55.466666-36.266667 36.266667-55.466667 83.2-55.466667 132.266667z m187.733333-686.933333c-228.266667 0-375.466667 61.866667-375.466666 102.4 8.533333 183.466667 155.733333 328.533333 339.2 334.933333l-83.2-283.733333c-4.266667-10.666667 0-23.466667 8.533333-32l89.6-89.6c6.4-6.4 14.933333-8.533333 21.333333-8.533334 8.533333 0 17.066667 4.266667 21.333334 8.533334l89.6 91.733333c8.533333 8.533333 10.666667 19.2 8.533333 32L554.666667 384c183.466667-6.4 330.666667-151.466667 339.2-334.933333 2.133333-40.533333-145.066667-102.4-373.333334-102.4z m0 0"  horiz-adv-x="1024" />

    
    <glyph glyph-name="yonghuguanli" unicode="&#59013;" d="M682.666667 283.733333c98.133333 55.466667 166.4 160 166.4 281.6C849.066667 744.533333 704 891.733333 522.666667 891.733333S196.266667 746.666667 196.266667 565.333333c0-121.6 66.133333-226.133333 166.4-281.6C192 221.866667 68.266667 64 53.333333-123.733333h72.533334c19.2 202.666667 189.866667 362.666667 396.8 362.666666 206.933333 0 377.6-160 396.8-362.666666h72.533333C977.066667 64 853.333333 221.866667 682.666667 283.733333zM268.8 565.333333c0 140.8 113.066667 253.866667 253.866667 253.866667 140.8 0 253.866667-113.066667 253.866666-253.866667 0-140.8-113.066667-253.866667-253.866666-253.866666-140.8 0-253.866667 115.2-253.866667 253.866666z m0 0"  horiz-adv-x="1024" />

    
    <glyph glyph-name="yulan" unicode="&#59014;" d="M913.526971 375.502075c0 95.60166-218.821577 240.06639-403.651452 240.06639-182.705394 0-403.651452-144.46473-403.651453-240.06639 0-95.60166 218.821577-250.688797 403.651453-250.688797 182.705394 0 403.651452 155.087137 403.651452 250.688797z m-403.651452-178.456432c-144.46473 0-331.419087 123.219917-331.419087 180.580913 0 55.236515 186.954357 167.834025 331.419087 167.834025 144.46473 0 331.419087-112.59751 331.419087-167.834025 0-57.360996-186.954357-180.580913-331.419087-180.580913z m-397.278009-254.937759c-14.871369 0-27.618257 12.746888-27.618257 27.618257V209.792531H12.746888v-308.049792c0-12.746888 8.497925-23.369295 19.120332-27.618258h344.165975v70.107884l-263.435685-2.124481zM975.136929 893.875519H681.958506v-72.232365h223.07054c14.871369 0 27.618257-12.746888 27.618257-27.618258v-237.941908h70.107884V872.630705c-2.124481 12.746888-14.871369 21.244813-27.618258 21.244814zM1002.755187-106.755187V209.792531h-70.107884v-237.941909c0-14.871369-12.746888-27.618257-27.618257-27.618257H639.46888V-128h344.165975c10.622407 4.248963 16.995851 10.622407 19.120332 21.244813z m0 0M618.224066 466.854772c-29.742739 25.493776-67.983402 38.240664-108.348547 38.240664s-78.605809-12.746888-108.348548-38.240664c-29.742739-25.493776-46.738589-61.609959-46.738589-97.726141 0-36.116183 16.995851-72.232365 46.738589-97.726141 29.742739-25.493776 67.983402-38.240664 108.348548-38.240664s78.605809 12.746888 108.348547 38.240664c29.742739 25.493776 46.738589 61.609959 46.73859 97.726141 0 36.116183-14.871369 72.232365-46.73859 97.726141z m-108.348547-176.33195c-55.236515 0-99.850622 36.116183-99.850623 78.605809s44.614108 78.605809 99.850623 78.605809 99.850622-36.116183 99.850622-78.605809c0-44.614108-44.614108-78.605809-99.850622-78.605809z m-174.207469 531.120332V893.875519H40.365145C25.493776 893.875519 12.746888 881.128631 12.746888 866.257261v-308.049792h72.232365V794.024896c0 14.871369 12.746888 27.618257 27.618257 27.618258h223.07054z m0 0"  horiz-adv-x="1024" />

    
    <glyph glyph-name="ziyuanguanli" unicode="&#59015;" d="M712.767911 129.062241H304.867497V-17.526971H62.676625v-84.979253h2.124482v-2.124481h888.033195V-102.506224h2.124481v84.979253H712.767911zM557.680775 723.917012h322.921161v-42.489626H557.680775zM710.64343 422.240664H241.133057v148.713693h67.983402V723.917012H137.033472v-152.962655h61.609958v-191.20332h512v-61.609958h172.082988v155.087137h-172.082988zM982.57704 851.385892H37.182849C20.186999 851.385892 7.440111 838.639004 7.440111 821.643154v-567.236515c0-16.995851 12.746888-29.742739 29.742738-29.742739h945.394191c16.995851 0 29.742739 12.746888 29.742739 29.742739V821.643154c0 16.995851-14.871369 29.742739-29.742739 29.742738z m-46.738589-522.622407c0-16.995851-12.746888-29.742739-29.742739-29.742738H111.539696c-16.995851 0-29.742739 12.746888-29.742739 29.742738V747.286307c0 16.995851 12.746888 29.742739 29.742739 29.742739h794.556016c16.995851 0 29.742739-12.746888 29.742739-29.742739v-418.522822z"  horiz-adv-x="1024" />

    
    <glyph glyph-name="yunfeiguanli" unicode="&#59016;" d="M196.266667 441.6c-10.666667 0-19.2-8.533333-19.2-19.2v-6.4c0-10.666667 8.533333-19.2 19.2-19.2H298.666667v-110.933333c0-10.666667 8.533333-21.333333 21.333333-21.333334h10.666667c10.666667 0 21.333333 8.533333 21.333333 21.333334v110.933333h102.4c10.666667 0 19.2 8.533333 19.2 19.2v6.4c0 10.666667-8.533333 19.2-19.2 19.2h-102.4v38.4h102.4c10.666667 0 19.2 8.533333 19.2 19.2v6.4c0 10.666667-8.533333 19.2-19.2 19.2H362.666667l104.533333 93.866667c8.533333 6.4 8.533333 19.2 0 25.6l-6.4 6.4c-8.533333 6.4-21.333333 6.4-29.866667 0l-98.133333-87.466667-98.133333 87.466667c-8.533333 6.4-21.333333 6.4-29.866667 0l-12.8-4.266667c-8.533333-6.4-8.533333-19.2 0-25.6l104.533333-93.866667H196.266667c-10.666667 0-19.2-8.533333-19.2-19.2v-6.4c0-10.666667 8.533333-19.2 19.2-19.2H298.666667v-38.4l-102.4-2.133333z m0 0M1013.333333 369.066667c0 14.933333-12.8 29.866667-29.866666 29.866666h-4.266667L710.4 774.4c-4.266667 8.533333-14.933333 14.933333-25.6 14.933333H142.933333c-17.066667 0-29.866667-12.8-29.866666-27.733333V746.666667c0-14.933333 12.8-29.866667 29.866666-29.866667H640v-362.666667c0-14.933333 12.8-29.866667 29.866667-29.866666H938.666667V128h-98.133334c-14.933333 46.933333-59.733333 81.066667-110.933333 81.066667-51.2 0-96-34.133333-110.933333-81.066667h-185.6c-14.933333 46.933333-59.733333 81.066667-110.933334 81.066667s-96-34.133333-110.933333-81.066667H36.266667c-14.933333 0-29.866667-12.8-29.866667-29.866667v-12.8c0-14.933333 12.8-29.866667 29.866667-29.866666h174.933333c14.933333-46.933333 59.733333-81.066667 110.933333-81.066667 51.2 0 96 34.133333 110.933334 81.066667H618.666667c14.933333-46.933333 59.733333-81.066667 110.933333-81.066667 51.2 0 96 34.133333 110.933333 81.066667h130.133334c2.133333 0 6.4 0 8.533333 2.133333h2.133333c14.933333 0 29.866667 12.8 29.866667 29.866667V345.6v4.266667 6.4l2.133333 12.8zM334.933333 34.133333c-32-6.4-64 14.933333-70.4 46.933334-6.4 32 14.933333 64 46.933334 70.4 32 6.4 64-14.933333 70.4-46.933334 6.4-32-14.933333-64-46.933334-70.4z m407.466667 0c-32-6.4-64 12.8-70.4 44.8v25.6c4.266667 21.333333 21.333333 40.533333 46.933333 44.8 32 6.4 64-14.933333 70.4-46.933333 6.4-29.866667-14.933333-61.866667-46.933333-68.266667z m-29.866667 612.266667l177.066667-247.466667h-177.066667V646.4z m0 0"  horiz-adv-x="1024" />

    
    <glyph glyph-name="danxuan" unicode="&#59018;" d="M974.933333 582.4c-25.6 59.733333-61.866667 113.066667-108.8 160-46.933333 46.933333-100.266667 83.2-160 108.8C644.266667 876.8 578.133333 891.733333 509.866667 891.733333c-68.266667 0-134.4-12.8-196.266667-40.533333C253.866667 825.6 198.4 789.333333 153.6 742.4 106.666667 695.466667 70.4 642.133333 44.8 582.4 19.2 520.533333 4.266667 454.4 4.266667 386.133333c0-68.266667 12.8-134.4 40.533333-196.266666 25.6-59.733333 61.866667-113.066667 108.8-160 46.933333-46.933333 100.266667-83.2 160-108.8 61.866667-25.6 128-40.533333 196.266667-40.533334 68.266667 0 134.4 12.8 196.266666 40.533334 59.733333 25.6 113.066667 61.866667 160 108.8 46.933333 46.933333 83.2 100.266667 108.8 160 25.6 61.866667 40.533333 128 40.533334 196.266666-2.133333 68.266667-14.933333 134.4-40.533334 196.266667z m-160-501.333333c-81.066667-81.066667-189.866667-125.866667-305.066666-125.866667S285.866667 0 204.8 81.066667c-81.066667 81.066667-125.866667 189.866667-125.866667 305.066666S123.733333 610.133333 204.8 691.2c81.066667 81.066667 189.866667 125.866667 305.066667 125.866667s224-44.8 305.066666-125.866667c81.066667-81.066667 125.866667-189.866667 125.866667-305.066667S896 162.133333 814.933333 81.066667z m0 0M217.6 386.133333c0-104.533333 55.466667-200.533333 145.066667-253.866666 89.6-51.2 202.666667-51.2 292.266666 0 89.6 51.2 145.066667 149.333333 145.066667 253.866666s-55.466667 200.533333-145.066667 253.866667c-89.6 51.2-202.666667 51.2-292.266666 0-89.6-53.333333-145.066667-149.333333-145.066667-253.866667z m0 0"  horiz-adv-x="1024" />

    
    <glyph glyph-name="danxuan1" unicode="&#59019;" d="M977.066667 582.4c-25.6 59.733333-61.866667 113.066667-108.8 160-46.933333 46.933333-100.266667 83.2-160 108.8C646.4 876.8 580.266667 891.733333 512 891.733333c-68.266667 0-134.4-12.8-196.266667-40.533333C256 825.6 200.533333 789.333333 155.733333 742.4 108.8 695.466667 72.533333 642.133333 46.933333 582.4 21.333333 520.533333 6.4 454.4 6.4 386.133333c0-68.266667 12.8-134.4 40.533333-196.266666 25.6-59.733333 61.866667-113.066667 108.8-160 46.933333-46.933333 100.266667-83.2 160-108.8 61.866667-25.6 128-40.533333 196.266667-40.533334 68.266667 0 134.4 12.8 196.266667 40.533334 59.733333 25.6 113.066667 61.866667 160 108.8 46.933333 46.933333 83.2 100.266667 108.8 160 25.6 61.866667 40.533333 128 40.533333 196.266666-2.133333 68.266667-14.933333 134.4-40.533333 196.266667z m-160-501.333333c-81.066667-81.066667-189.866667-125.866667-305.066667-125.866667S288 0 206.933333 81.066667c-81.066667 81.066667-125.866667 189.866667-125.866666 305.066666S125.866667 610.133333 206.933333 691.2c81.066667 81.066667 189.866667 125.866667 305.066667 125.866667s224-44.8 305.066667-125.866667c81.066667-81.066667 125.866667-189.866667 125.866666-305.066667S898.133333 162.133333 817.066667 81.066667z m0 0"  horiz-adv-x="1026" />

    
    <glyph glyph-name="xuanze" unicode="&#59020;" d="M983.466667 885.333333H36.266667C19.2 885.333333 6.4 872.533333 6.4 855.466667v-947.2c0-17.066667 12.8-29.866667 29.866667-29.866667h947.2c17.066667 0 29.866667 12.8 29.866666 29.866667V855.466667c-2.133333 17.066667-14.933333 29.866667-29.866666 29.866666zM938.666667-17.066667c0-17.066667-12.8-29.866667-29.866667-29.866666H108.8c-17.066667 0-29.866667 12.8-29.866667 29.866666V782.933333c0 17.066667 12.8 29.866667 29.866667 29.866667h800c17.066667 0 29.866667-12.8 29.866667-29.866667v-800z m0 0M413.866667 262.4l-149.333334 149.333333L213.333333 362.666667l200.533334-200.533334 10.666666 10.666667L806.4 554.666667l-51.2 51.2-341.333333-343.466667z m0 0"  horiz-adv-x="1024" />

    
    <glyph glyph-name="xuanze1" unicode="&#59021;" d="M983.466667 885.333333H36.266667C19.2 885.333333 6.4 872.533333 6.4 855.466667v-947.2c0-17.066667 12.8-29.866667 29.866667-29.866667h947.2c17.066667 0 29.866667 12.8 29.866666 29.866667V855.466667c-2.133333 17.066667-14.933333 29.866667-29.866666 29.866666zM938.666667-17.066667c0-17.066667-12.8-29.866667-29.866667-29.866666H108.8c-17.066667 0-29.866667 12.8-29.866667 29.866666V782.933333c0 17.066667 12.8 29.866667 29.866667 29.866667h800c17.066667 0 29.866667-12.8 29.866667-29.866667v-800z m0 0"  horiz-adv-x="1024" />

    
    <glyph glyph-name="shanchu" unicode="&#59022;" d="M887.466667-21.333333c0-14.933333-12.8-27.733333-27.733334-27.733334H181.333333c-14.933333 0-27.733333 12.8-27.733333 27.733334V644.266667H81.066667v-738.133334c0-14.933333 12.8-27.733333 27.733333-27.733333h819.2c14.933333 0 27.733333 12.8 27.733333 27.733333V644.266667h-70.4l2.133334-665.6z m81.066666 812.8h-211.2L646.4 881.066667c-4.266667 4.266667-8.533333 6.4-12.8 8.533333-4.266667 2.133333-8.533333 2.133333-12.8 2.133333H401.066667c-8.533333 0-17.066667-4.266667-21.333334-10.666666L258.133333 791.466667H42.666667c-14.933333 0-27.733333-12.8-27.733334-27.733334v-14.933333c0-14.933333 12.8-27.733333 27.733334-27.733333h226.133333c8.533333 0 14.933333 2.133333 21.333333 8.533333l123.733334 89.6h196.266666l110.933334-89.6c4.266667-2.133333 6.4-4.266667 8.533333-6.4 4.266667-2.133333 8.533333-4.266667 14.933333-4.266667h224c14.933333 0 27.733333 12.8 27.733334 27.733334v14.933333c0 17.066667-12.8 29.866667-27.733334 29.866667z m0 0M343.466667 19.2c14.933333 0 27.733333 12.8 27.733333 27.733333V541.866667c0 14.933333-12.8 27.733333-27.733333 27.733333h-14.933334c-14.933333 0-27.733333-12.8-27.733333-27.733333v-492.8c0-14.933333 12.8-27.733333 27.733333-27.733334h14.933334z m183.466666 0c14.933333 0 27.733333 12.8 27.733334 27.733333V541.866667c0 14.933333-12.8 27.733333-27.733334 27.733333h-14.933333c-14.933333 0-27.733333-12.8-27.733333-27.733333v-492.8c0-14.933333 12.8-27.733333 27.733333-27.733334h14.933333z m183.466667 2.133333c14.933333 0 27.733333 12.8 27.733333 27.733334V541.866667c0 14.933333-12.8 27.733333-27.733333 27.733333h-14.933333c-14.933333 0-27.733333-12.8-27.733334-27.733333v-492.8c0-14.933333 12.8-27.733333 27.733334-27.733334h14.933333z m0 0"  horiz-adv-x="1026" />

    
    <glyph glyph-name="shanjian" unicode="&#59023;" d="M29.866667 791.466667h70.4v-83.2H29.866667V791.466667zM194.133333-51.2h83.2v-70.4H194.133333v70.4zM757.333333 893.866667h83.2v-70.4h-83.2V893.866667zM934.4 64H1004.8v-83.2h-70.4V64z m-76.8-115.2v-70.4H940.8v70.4h-83.2z m-166.4 0h83.2v-70.4h-83.2v70.4z m-661.333333 676.266667h70.4v-83.2H29.866667v83.2z m497.066666-676.266667h83.2v-70.4h-83.2v70.4z m407.466667 279.466667H1004.8v-83.2h-70.4v83.2z m0 499.2H1004.8v-83.2h-70.4V727.466667zM940.8 893.866667h-17.066667v-70.4h10.666667V810.666667H1004.8V832c0 34.133333-29.866667 61.866667-64 61.866667z m-6.4-332.8H1004.8v-83.2h-70.4v83.2z m0-166.4H1004.8v-83.2h-70.4v83.2zM590.933333 893.866667h83.2v-70.4h-83.2V893.866667zM29.866667 128h70.4v-83.2H29.866667V128z m70.4-166.4H29.866667v-21.333333c0-34.133333 27.733333-64 64-64h17.066666v70.4h-10.666666v14.933333zM93.866667 823.466667h83.2V893.866667H93.866667v-70.4z m266.666666-874.666667h83.2v-70.4h-83.2v70.4zM260.266667 893.866667H343.466667v-70.4h-83.2V893.866667z m166.4 0h83.2v-70.4h-83.2V893.866667zM29.866667 458.666667h70.4v-83.2H29.866667v83.2z m0-164.266667h70.4v-83.2H29.866667v83.2z m181.333333 125.866667h100.266667v-70.4H211.2v70.4z m164.266667 0h100.266666v-70.4h-100.266666v70.4z m164.266666 0h100.266667v-70.4h-100.266667v70.4z m162.133334 0h100.266666v-70.4h-100.266666v70.4z m0 0"  horiz-adv-x="1026" />

    
    <glyph glyph-name="zengjia" unicode="&#59024;" d="M546.133333 682.666667v-98.133334h-70.4V682.666667h70.4zM424.533333 887.466667h83.2v-70.4h-83.2V887.466667z m503.466667-659.2h70.4v-83.2h-70.4v83.2zM753.066667 887.466667h83.2v-70.4h-83.2V887.466667zM360.533333-49.066667h83.2v-70.4h-83.2v70.4zM32 787.2h70.4V704H32V787.2zM588.8 887.466667h83.2v-70.4h-83.2V887.466667zM853.333333-49.066667v-70.4h83.2v70.4H853.333333z m-164.266666 0h83.2v-70.4h-83.2v70.4zM928 723.2h70.4V640h-70.4V723.2z m8.533333 164.266667H917.333333v-70.4h10.666667v-12.8h70.4v21.333333c0 34.133333-27.733333 61.866667-61.866667 61.866667zM928 64h70.4v-83.2h-70.4V64z m0 492.8h70.4v-83.2h-70.4v83.2z m0-164.266667h70.4v-83.2h-70.4v83.2zM524.8-49.066667h83.2v-70.4h-83.2v70.4zM32 128h70.4v-83.2H32V128zM260.266667 887.466667H341.333333v-70.4h-83.2V887.466667zM96 817.066667h83.2V887.466667H96v-70.4z m6.4-853.333334H32v-21.333333c0-34.133333 27.733333-64 64-64h17.066667v70.4h-10.666667v14.933333zM32 292.266667h70.4v-83.2H32v83.2z m162.133333-341.333334H277.333333v-70.4H194.133333v70.4zM32 456.533333h70.4v-83.2H32v83.2z m0 166.4h70.4v-83.2H32v83.2z m179.2-204.8h98.133333v-70.4H211.2v70.4z m488.533333 0h98.133334v-70.4h-98.133334v70.4z m-153.6 100.266667h-70.4v-98.133333h-102.4v-70.4h102.4v-89.6h70.4v89.6h89.6v70.4h-89.6v98.133333z m-70.4-322.133333h70.4v-98.133334h-70.4v98.133334z m0 0"  horiz-adv-x="1024" />

    
    <glyph glyph-name="shanchu1" unicode="&#59025;" d="M514.133333 881.066667C236.8 881.066667 14.933333 657.066667 14.933333 381.866667 14.933333 106.666667 238.933333-117.333333 514.133333-117.333333 789.333333-117.333333 1013.333333 106.666667 1013.333333 381.866667 1013.333333 657.066667 789.333333 881.066667 514.133333 881.066667z m0-925.866667c-236.8 0-426.666667 192-426.666666 426.666667 0 236.8 192 426.666667 426.666666 426.666666s426.666667-192 426.666667-426.666666-192-426.666667-426.666667-426.666667z m0 0M665.6 584.533333l-151.466667-151.466666-151.466666 151.466666-51.2-51.2 151.466666-151.466666-151.466666-151.466667 51.2-51.2 151.466666 151.466667 151.466667-151.466667 51.2 51.2-151.466667 151.466667 151.466667 151.466666-51.2 51.2z m0 0"  horiz-adv-x="1024" />

    
    <glyph glyph-name="gengxin" unicode="&#59026;" d="M509.871102 774.652807c174.569647 0 321.463617-112.831601 374.686071-266.112266h-48.964657l89.413721-114.960499 89.413721 114.960499h-59.609147C899.459459 702.27027 720.632017 842.777547 509.871102 842.777547 299.110187 842.777547 120.282744 700.141372 64.931393 508.540541h70.253638c53.222453 155.409563 200.116424 266.112266 374.686071 266.112266z m0-791.950104c-174.569647 0-321.463617 110.702703-374.686071 266.112266h55.351352l-89.413722 114.960499-89.413721-114.960499H64.931393C120.282744 57.214137 299.110187-85.422037 509.871102-85.422037c210.760915 0 389.588358 140.507277 444.939709 334.237006h-70.253638C831.334719 95.534304 682.31185-17.297297 509.871102-17.297297z m0 0"  horiz-adv-x="1024" />

    
    <glyph glyph-name="bianji" unicode="&#59027;" d="M925.866667 450.133333v-475.733333c0-14.933333-12.8-27.733333-27.733334-27.733333H113.066667c-14.933333 0-27.733333 12.8-27.733334 27.733333V791.466667c0 14.933333 12.8 27.733333 27.733334 27.733333h435.2V891.733333H42.666667C27.733333 891.733333 14.933333 878.933333 14.933333 864v-957.866667c0-14.933333 12.8-27.733333 27.733334-27.733333h923.733333c14.933333 0 27.733333 12.8 27.733333 27.733333V450.133333h-68.266666z m0 0M270.933333 307.2l-2.133333-2.133333-42.666667-198.4c-2.133333-10.666667 2.133333-23.466667 10.666667-32 8.533333-8.533333 21.333333-10.666667 32-6.4l189.866667 61.866666c2.133333 0 4.266667 0 6.4 2.133334l490.666666 544c14.933333 17.066667 21.333333 38.4 21.333334 59.733333-2.133333 25.6-14.933333 51.2-34.133334 68.266667L893.866667 853.333333C874.666667 870.4 849.066667 881.066667 821.333333 878.933333c-21.333333 0-42.666667-10.666667-57.6-27.733333L270.933333 307.2c0 2.133333 0 0 0 0zM814.933333 804.266667c8.533333 8.533333 23.466667 8.533333 32 0l51.2-46.933334c4.266667-4.266667 8.533333-10.666667 8.533334-17.066666 0-4.266667-2.133333-10.666667-4.266667-14.933334L853.333333 672l-85.333333 78.933333 46.933333 53.333334z m-98.133333-108.8l87.466667-81.066667-352-390.4-89.6 78.933333L716.8 695.466667zM324.266667 249.6l74.666666-68.266667-96-32 21.333334 100.266667z m0 0"  horiz-adv-x="1024" />

    
    <glyph glyph-name="tianjiachengyuan" unicode="&#59028;" d="M1019.733333 123.733333H896v123.733334h-64v-123.733334h-123.733333v-61.866666H832v-123.733334h61.866667v123.733334h123.733333v61.866666z m0 0M78.933333 8.533333l-2.133333 110.933334c36.266667 21.333333 145.066667 115.2 362.666667 125.866666h32v149.333334c-83.2 27.733333-142.933333 106.666667-142.933334 198.4 0 115.2 93.866667 209.066667 209.066667 209.066666S746.666667 708.266667 746.666667 593.066667c0-91.733333-59.733333-170.666667-142.933334-198.4V277.333333h72.533334v59.733334c89.6 49.066667 151.466667 145.066667 151.466666 256C827.733333 753.066667 697.6 883.2 537.6 883.2S245.333333 753.066667 245.333333 593.066667c0-115.2 66.133333-213.333333 162.133334-260.266667v-29.866667c-53.333333-2.133333-104.533333-10.666667-151.466667-23.466666-46.933333-12.8-91.733333-29.866667-132.266667-53.333334C53.333333 187.733333 14.933333 149.333333 14.933333 147.2l-6.4-8.533333v-200.533334l704 2.133334v70.4"  horiz-adv-x="1024" />

    
    <glyph glyph-name="bumenlianxiren" unicode="&#59029;" d="M616.533333 296.533333c85.333333 38.4 145.066667 123.733333 145.066667 224C761.6 657.066667 650.666667 768 514.133333 768c-136.533333 0-247.466667-110.933333-247.466666-247.466667 0-100.266667 59.733333-185.6 145.066666-224C185.6 245.333333 17.066667 40.533333 17.066667-85.333333c0-12.8 2.133333-27.733333 6.4-40.533334H1002.666667c4.266667 12.8 6.4 25.6 6.4 40.533334 0 125.866667-168.533333 330.666667-392.533334 381.866666zM337.066667 520.533333c0 98.133333 78.933333 177.066667 177.066666 177.066667 98.133333 0 177.066667-78.933333 177.066667-177.066667s-78.933333-177.066667-177.066667-177.066666c-98.133333 0-177.066667 78.933333-177.066666 177.066666zM93.866667-53.333333c32 110.933333 206.933333 290.133333 418.133333 290.133333 211.2 0 386.133333-181.333333 418.133333-290.133333H93.866667zM187.733333 330.666667c8.533333 0 17.066667 2.133333 25.6 4.266666l-6.4 130.133334V533.333333c4.266667 74.666667 36.266667 142.933333 89.6 196.266667C354.133333 789.333333 430.933333 821.333333 512 821.333333c83.2 0 160-32 217.6-89.6 51.2-51.2 81.066667-115.2 87.466667-183.466666v-46.933334l-6.4-166.4c8.533333-2.133333 17.066667-4.266667 25.6-4.266666 59.733333-4.266667 110.933333 42.666667 113.066666 100.266666 2.133333 42.666667-21.333333 83.2-57.6 100.266667-4.266667 93.866667-42.666667 181.333333-110.933333 247.466667C708.266667 851.2 614.4 891.733333 512 891.733333 411.733333 891.733333 315.733333 853.333333 245.333333 780.8c-66.133333-66.133333-104.533333-151.466667-108.8-245.333333-38.4-19.2-64-57.6-59.733333-102.4 2.133333-59.733333 51.2-104.533333 110.933333-102.4z"  horiz-adv-x="1024" />

    
    <glyph glyph-name="zhongzhi" unicode="&#59030;" d="M507.733333-44.8c-236.8 0-430.933333 192-430.933333 430.933333 0 236.8 192 430.933333 430.933333 430.933334 136.533333 0 258.133333-64 337.066667-164.266667l23.466667 21.333333-125.866667-121.6 275.2-29.866666-21.333333 275.2L900.266667 704C808.533333 817.066667 667.733333 889.6 509.866667 889.6 228.266667 889.6 4.266667 663.466667 4.266667 384s226.133333-503.466667 503.466666-503.466667c221.866667 0 411.733333 145.066667 477.866667 345.6L917.333333 260.266667c-53.333333-177.066667-215.466667-305.066667-409.6-305.066667z m0 0"  horiz-adv-x="1024" />

    
    <glyph glyph-name="kaiqi" unicode="&#59031;" d="M706.133333 693.333333H315.733333C145.066667 693.333333 4.266667 554.666667 4.266667 384s138.666667-311.466667 311.466666-311.466667h392.533334c170.666667 0 311.466667 138.666667 311.466666 311.466667S878.933333 693.333333 706.133333 693.333333z m-8.533333-593.066666c-157.866667 0-283.733333 128-283.733333 283.733333s128 283.733333 283.733333 283.733333S981.333333 539.733333 981.333333 384s-125.866667-283.733333-283.733333-283.733333z m0 0"  horiz-adv-x="1024" />

    
    <glyph glyph-name="guanbi" unicode="&#59032;" d="M706.133333 691.2H315.733333C145.066667 691.2 4.266667 552.533333 4.266667 379.733333c0-170.666667 138.666667-311.466667 311.466666-311.466666h392.533334c170.666667 0 311.466667 138.666667 311.466666 311.466666S878.933333 691.2 706.133333 691.2zM324.266667 96c-157.866667 0-283.733333 128-283.733334 283.733333s128 283.733333 283.733334 283.733334c157.866667 0 283.733333-128 283.733333-283.733334s-128-283.733333-283.733333-283.733333z"  horiz-adv-x="1024" />

    
    <glyph glyph-name="chunaguanli" unicode="&#59033;" d="M379.733333 343.466667c-21.333333 0-34.133333-12.8-34.133333-34.133334s12.8-34.133333 34.133333-34.133333H514.133333v-136.533333c0-21.333333 12.8-34.133333 34.133334-34.133334s34.133333 12.8 34.133333 34.133334v136.533333h136.533333c21.333333 0 34.133333 12.8 34.133334 34.133333s-12.8 34.133333-34.133334 34.133334h-136.533333v68.266666h136.533333c21.333333 0 34.133333 12.8 34.133334 34.133334s-12.8 34.133333-34.133334 34.133333h-93.866666l108.8 115.2c12.8 12.8 12.8 40.533333 0 53.333333-12.8 12.8-34.133333 12.8-46.933334 0L550.4 512l-136.533333 136.533333c-12.8 12.8-34.133333 12.8-46.933334 0-12.8-12.8-12.8-40.533333 0-53.333333l108.8-115.2h-93.866666c-21.333333 0-34.133333-12.8-34.133334-34.133333s12.8-34.133333 34.133334-34.133334H514.133333v-68.266666h-134.4zM85.333333 490.666667h70.4v-168.533334H85.333333V490.666667z m0 0M970.666667 889.6H113.066667c-14.933333 0-27.733333-12.8-27.733334-29.866667V682.666667h70.4V782.933333c0 17.066667 12.8 29.866667 27.733334 29.866667h718.933333c14.933333 0 27.733333-12.8 27.733333-29.866667v-802.133333c0-17.066667-12.8-29.866667-27.733333-29.866667H183.466667c-14.933333 0-27.733333 12.8-27.733334 29.866667v149.333333H85.333333v-224c0-17.066667 12.8-29.866667 27.733334-29.866666h857.6c14.933333 0 27.733333 12.8 27.733333 29.866666V859.733333c2.133333 17.066667-10.666667 29.866667-27.733333 29.866667z m0 0M0 622.933333h211.2v-74.666666H0v74.666666z m0-360.533333h211.2v-74.666667H0v74.666667z m0 0"  horiz-adv-x="1026" />

    
    <glyph glyph-name="chuku" unicode="&#59034;" d="M981.510373 768.53112H696.829876v-74.356846h210.323651c10.622407 0 16.995851-8.497925 16.995851-16.995851v-705.327801c0-10.622407-8.497925-16.995851-16.995851-16.99585H114.721992c-10.622407 0-16.995851 8.497925-16.995851 16.99585V677.178423c0 10.622407 8.497925 16.995851 16.995851 16.995851h210.323651V768.53112H40.365145c-10.622407 0-16.995851-6.373444-16.99585-16.99585v-854.041494c0-10.622407 8.497925-16.995851 16.99585-16.995851h941.145228c10.622407 0 16.995851 8.497925 16.995851 16.995851V751.53527c2.124481 10.622407-6.373444 16.995851-16.995851 16.99585z m0 0M441.892116 282.024896h140.215768v-76.481328h-140.215768v76.481328z m0 133.842324h140.215768v-76.481328h-140.215768v76.481328z m0 144.46473h140.215768v-76.481328h-140.215768v76.481328zM512 887.502075l-140.215768-242.190872h280.431536L512 887.502075z m0 0"  horiz-adv-x="1024" />

    
    <glyph glyph-name="ruku" unicode="&#59035;" d="M989.866667 889.6H706.133333v-74.666667h209.066667c10.666667 0 17.066667-8.533333 17.066667-17.066666v-827.733334c0-10.666667-8.533333-17.066667-17.066667-17.066666H123.733333c-10.666667 0-17.066667 8.533333-17.066666 17.066666V797.866667c0 10.666667 8.533333 17.066667 17.066666 17.066666h209.066667V889.6H49.066667c-10.666667 0-17.066667-8.533333-17.066667-17.066667v-974.933333c0-10.666667 8.533333-17.066667 17.066667-17.066667h938.666666c10.666667 0 17.066667 8.533333 17.066667 17.066667V872.533333c2.133333 8.533333-6.4 17.066667-14.933333 17.066667z m0 0M450.133333 889.6h140.8v-76.8H450.133333V889.6z m0-134.4h140.8v-76.8H450.133333V755.2z m0-140.8h140.8v-76.8H450.133333v76.8z m209.066667-164.266667H379.733333l140.8-241.066666 138.666667 241.066666z m0 0"  horiz-adv-x="1026" />

    
    <glyph glyph-name="zuzhijiegou" unicode="&#59036;" d="M301.239085-96.066528c0-8.515593-8.515593-17.031185-17.031185-17.031185H20.224532c-8.515593 0-17.031185 6.386694-17.031185 17.031185V167.91684c0 8.515593 6.386694 17.031185 17.031185 17.031185h263.983368c8.515593 0 17.031185-6.386694 17.031185-17.031185v-263.983368z m357.654886 263.983368c0 8.515593-6.386694 17.031185-17.031185 17.031185H377.879418c-8.515593 0-17.031185-6.386694-17.031185-17.031185v-263.983368c0-8.515593 6.386694-17.031185 17.031185-17.031185h263.983368c8.515593 0 17.031185 8.515593 17.031185 17.031185V167.91684z m357.654886 0c0 8.515593-6.386694 17.031185-17.031185 17.031185H735.534304c-8.515593 0-17.031185-6.386694-17.031185-17.031185v-263.983368c0-8.515593 8.515593-17.031185 17.031185-17.031185h263.983368c8.515593 0 17.031185 8.515593 17.031185 17.031185V167.91684zM658.893971 872.582121c0 8.515593-6.386694 17.031185-17.031185 17.031185H377.879418c-8.515593-2.128898-14.902287-8.515593-14.902287-17.031185v-263.983368c0-8.515593 6.386694-17.031185 17.031185-17.031185h263.983368c8.515593 0 17.031185 6.386694 17.031185 17.031185V872.582121z m221.405405-447.068607H535.417879v159.667359h-48.964657V425.513514h-340.6237c-10.644491 0-17.031185-6.386694-17.031185-17.031186v-219.276507h48.964657v187.343036h308.690228v-187.343036h48.964657v187.343036h312.948025v-187.343036h48.964657V408.482328c0 10.644491-6.386694 17.031185-17.031185 17.031186z m0 0"  horiz-adv-x="1024" />

    
    <glyph glyph-name="jichudangan" unicode="&#59037;" d="M972.8 516.266667H938.666667v128c0 17.066667-12.8 32-34.133334 32H576l-142.933333 151.466666c-6.4 6.4-17.066667 10.666667-25.6 8.533334H119.466667c-17.066667 0-29.866667-14.933333-29.866667-32v-290.133334H51.2c-25.6 0-44.8-23.466667-42.666667-53.333333l42.666667-516.266667c2.133333-23.466667 21.333333-42.666667 44.8-42.666666h827.733333c23.466667 0 42.666667 19.2 44.8 42.666666l42.666667 516.266667c6.4 32-12.8 55.466667-38.4 55.466667zM166.4 759.466667h224l142.933333-151.466667c6.4-6.4 17.066667-10.666667 25.6-8.533333h302.933334v-81.066667H166.4V759.466667z m768-347.733334l-29.866667-420.266666c0-8.533333-6.4-14.933333-14.933333-14.933334H134.4c-8.533333 0-14.933333 6.4-14.933333 14.933334L89.6 411.733333c0 8.533333 6.4 17.066667 14.933333 17.066667h817.066667c8.533333 0 14.933333-6.4 12.8-17.066667z m0 0"  horiz-adv-x="1024" />

    
    <glyph glyph-name="jiaoseguanli" unicode="&#59038;" d="M872.848233 887.484407H159.66736c-63.866944 0-112.831601-55.351351-112.831601-127.733887V191.334719c0-70.253638 48.964657-127.733888 112.831601-127.733887H872.848233c63.866944 0 112.831601 55.351351 112.831601 127.733887V759.75052c0 72.382536-51.093555 127.733888-112.831601 127.733887z m42.577962-698.278586c0-31.933472-14.902287-55.351351-42.577962-55.351351H159.66736C131.991684 133.85447 127.733888 159.401247 127.733888 191.334719V755.492723c0 31.933472 17.031185 57.480249 46.835759 57.48025L872.848233 817.230769c27.675676 0 42.577963-27.675676 42.577962-59.609147v-568.415801z m-74.511434-240.565488h-178.827443v19.160083c0 17.031185-12.773389 31.933472-27.675676 31.933472h-255.467775c-14.902287 0-27.675676-14.902287-27.675676-31.933472v-19.160083H172.440748c-17.031185 0-31.933472-17.031185-31.933471-36.191269 0-19.160083 14.902287-36.191268 31.933471-36.191268h668.474013c17.031185 0 31.933472 17.031185 31.933472 36.191268 2.128898 19.160083-12.773389 36.191268-31.933472 36.191269z m0 0M834.528067 485.122661l-229.920998 12.773389h-112.831601l8.515592-17.031185-10.64449-25.546778 21.288981-180.956341c0-6.386694-2.128898-14.902287-6.386694-19.160083l-29.804574-34.06237v-2.128898l-2.128898 2.128898-2.128899-2.128898v2.128898l-29.804573 36.191268c-4.257796 4.257796-6.386694 12.773389-6.386695 19.160083l21.288982 180.956341-10.644491 25.546778 8.515592 17.031185h-97.929313c-6.386694 0-12.773389-4.257796-14.902287-14.902287 0 0-55.351351-225.663202-46.835759-295.91684l2.128898-2.128898c12.773389-12.773389 53.222453-44.706861 53.222453-44.706861 2.128898 0 2.128898-2.128898 2.128898-2.128898h238.436591l-6.386695 229.920998c0 10.644491 6.386694 19.160083 17.031185 19.160083l193.72973 2.128898c8.515593 0 14.902287 4.257796 19.160083 12.773389l29.804574 63.866944c6.386694 4.257796 0 17.031185-8.515592 17.031185z m-383.201664 44.706861c72.382536-19.160083 131.991684 42.577963 131.991684 114.960499 0 65.995842-46.835759 119.218295-106.444906 119.218295-70.253638 0-121.347193-74.511435-102.18711-153.280665 10.644491-38.320166 38.320166-70.253638 76.640332-80.898129z m0 0"  horiz-adv-x="1024" />

    
    <glyph glyph-name="tiaozhengdan" unicode="&#59039;" d="M821.333333 416v140.8c-6.4 0-10.666667 2.133333-14.933333 2.133333h-130.133333c-19.2 0-38.4 4.266667-57.6 10.666667-34.133333 10.666667-44.8 38.4-44.8 70.4-2.133333 55.466667 0 113.066667 0 170.666667l-426.666667 8.533333v-857.6h83.2c110.933333-2.133333 147.2-2.133333 258.133333-4.266667 10.666667 0 14.933333-8.533333 14.933334-19.2v-57.6c-4.266667 0-8.533333-2.133333-12.8-2.133333H142.933333c-21.333333 0-42.666667 6.4-53.333333 27.733333-6.4 12.8-12.8 27.733333-12.8 42.666667V595.2 817.066667c0 42.666667 27.733333 74.666667 68.266667 74.666666h450.133333c19.2 0 36.266667-8.533333 49.066667-21.333333l226.133333-232.533333c17.066667-17.066667 27.733333-42.666667 27.733333-64 2.133333-61.866667 0-72.533333 0-134.4 0-14.933333-6.4-21.333333-21.333333-19.2-17.066667-4.266667-38.4-4.266667-55.466667-4.266667zM644.266667 753.066667l-6.4-4.266667v-78.933333c-2.133333-32 23.466667-57.6 55.466666-55.466667l76.8 6.4s0 2.133333 2.133334 4.266667c-42.666667 44.8-85.333333 87.466667-128 128z m0 0M462.933333 388.266667H238.933333c-21.333333 0-36.266667 12.8-36.266666 32 0 21.333333 12.8 34.133333 36.266666 34.133333h450.133334c23.466667 0 36.266667-12.8 36.266666-34.133333s-14.933333-34.133333-38.4-34.133334H462.933333z m-113.066666-160h-110.933334c-21.333333 0-36.266667 12.8-36.266666 32 0 21.333333 12.8 34.133333 36.266666 34.133333h221.866667c23.466667 0 36.266667-12.8 36.266667-34.133333s-14.933333-32-38.4-32h-108.8z m-2.133334-168.533334h-110.933333c-21.333333 0-36.266667 12.8-36.266667 34.133334 0 19.2 14.933333 34.133333 36.266667 34.133333h224c21.333333 0 34.133333-12.8 34.133333-32 0-21.333333-12.8-34.133333-34.133333-34.133333h-113.066667z m204.8 25.6l-38.4-117.333333c-2.133333-6.4 0-14.933333 4.266667-19.2 4.266667-4.266667 12.8-8.533333 19.2-6.4l117.333333 25.6c2.133333 0 2.133333 0 4.266667 2.133333l326.4 294.4c10.666667 8.533333 14.933333 21.333333 17.066667 34.133334 0 14.933333-4.266667 32-14.933334 42.666666L960 371.2c-10.666667 12.8-25.6 19.2-40.533333 21.333333-12.8 0-25.6-4.266667-36.266667-12.8L552.533333 85.333333c0 2.133333 0 0 0 0z m405.333334 211.2l-32-29.866666-49.066667 53.333333 32 27.733333c4.266667 4.266667 14.933333 4.266667 19.2-2.133333l27.733333-29.866667c2.133333-2.133333 4.266667-6.4 4.266667-10.666666s0-6.4-2.133333-8.533334zM608 78.933333l236.8 213.333334 46.933333-53.333334-234.666666-211.2-49.066667 51.2z m-44.8-89.6l19.2 57.6 40.533333-44.8-59.733333-12.8z m0 0"  horiz-adv-x="1024" />

    
    <glyph glyph-name="mingxibaobiao" unicode="&#59040;" d="M967.5842 885.355509H54.286902c-14.902287 0-29.804574-12.773389-29.804574-29.804573v-949.488566c0-17.031185 12.773389-29.804574 29.804574-29.804574h913.297298c17.031185 0 29.804574 12.773389 29.804573 29.804574V855.550936c0 17.031185-12.773389 29.804574-29.804573 29.804573z m-44.706861-904.781704c0-17.031185-12.773389-29.804574-29.804574-29.804574H128.798337c-17.031185 0-29.804574 12.773389-29.804574 29.804574V781.039501c0 17.031185 12.773389 29.804574 29.804574 29.804574h764.274428c17.031185 0 29.804574-12.773389 29.804574-29.804574v-800.465696z m0 0M216.08316 161.530146h591.83368V84.889813H216.08316v76.640333z m489.64657 400.232848l-140.507277-168.182952-191.600831 80.898128-189.471934-180.95634 44.706861-40.449065 149.022869 136.24948 191.600831-83.027027 189.471934 221.405406 55.351351-44.706861 17.031185 206.503118-185.214137-85.155925 59.609148-42.577962z m0 0"  horiz-adv-x="1024" />

    
    <glyph glyph-name="huizongbaobiao" unicode="&#59041;" d="M979.297574 889.613306H55.355787c-17.031185 0-29.804574-12.773389-29.804574-29.804574v-760.016632c0-17.031185 12.773389-29.804574 29.804574-29.804574H491.779903v-121.347193H238.441026c-14.902287 0-27.675676-12.773389-27.675676-27.675676v-14.902287c0-14.902287 12.773389-27.675676 27.675676-27.675676H789.825641c14.902287 0 27.675676 12.773389 27.675676 27.675676v14.902287c0 14.902287-12.773389 27.675676-27.675676 27.675676H568.420236l2.128898 121.347193h408.74844c17.031185 0 29.804574 12.773389 29.804574 29.804574V859.808732c0 17.031185-12.773389 29.804574-29.804574 29.804574z m-44.70686-715.309772c0-17.031185-12.773389-29.804574-29.804574-29.804574H129.867221c-17.031185 0-29.804574 12.773389-29.804574 29.804574V783.168399c0 17.031185 12.773389 29.804574 29.804574 29.804574h772.790021c17.031185 0 29.804574-12.773389 29.804574-29.804574l2.128898-608.864865z m0 0M770.665558 704.399168c-51.093555 0-93.671518-42.577963-93.671518-93.671517 0-21.288981 6.386694-40.449064 19.160083-57.48025l-123.476091-146.893971-193.72973 83.027027-191.600831-183.085239 44.70686-40.449064 149.022869 138.378378 193.72973-83.027027 170.31185 200.116424c6.386694-2.128898 14.902287-2.128898 23.41788-2.128898 51.093555 0 93.671518 42.577963 93.671517 93.671518 2.128898 51.093555-38.320166 91.54262-91.542619 91.542619z m0 0"  horiz-adv-x="1024" />

    
    <glyph glyph-name="yichang" unicode="&#59042;" d="M972.8 889.6H51.2C34.133333 889.6 21.333333 876.8 21.333333 859.733333v-757.333333c0-17.066667 12.8-29.866667 29.866667-29.866667h435.2l-2.133333-121.6H234.666667c-14.933333 0-27.733333-12.8-27.733334-27.733333v-14.933333c0-14.933333 12.8-27.733333 27.733334-27.733334h550.4c14.933333 0 27.733333 12.8 27.733333 27.733334v14.933333c0 14.933333-12.8 27.733333-27.733333 27.733333H563.2l2.133333 121.6h407.466667c17.066667 0 29.866667 12.8 29.866667 29.866667V859.733333c0 17.066667-12.8 29.866667-29.866667 29.866667z m-44.8-712.533333c0-17.066667-12.8-29.866667-29.866667-29.866667H125.866667c-17.066667 0-29.866667 12.8-29.866667 29.866667V785.066667c0 17.066667 12.8 29.866667 29.866667 29.866666H896c17.066667 0 29.866667-12.8 29.866667-29.866666l2.133333-608z m0 0M484.266667 373.333333l4.266666 343.466667h78.933334l-4.266667-343.466667h-78.933333z m2.133333-130.133333v72.533333h78.933333v-72.533333h-78.933333z m0 0"  horiz-adv-x="1024" />

    
    <glyph glyph-name="huizong" unicode="&#59043;" d="M974.933333 891.733333H49.066667C32 891.733333 19.2 878.933333 19.2 861.866667v-953.6c0-17.066667 12.8-29.866667 29.866667-29.866667h928c17.066667 0 29.866667 12.8 29.866666 29.866667V859.733333c0 17.066667-14.933333 32-32 32z m-44.8-908.8c0-17.066667-12.8-29.866667-29.866666-29.866666H123.733333c-17.066667 0-29.866667 12.8-29.866666 29.866666V785.066667c0 17.066667 12.8 29.866667 29.866666 29.866666h776.533334c17.066667 0 29.866667-12.8 29.866666-29.866666v-802.133334z m0 0M192 279.466667v78.933333l635.733333-6.4v-78.933333L192 279.466667z m0-128v78.933333l505.6-6.4v-78.933333L192 151.466667z m0-128v78.933333l334.933333-4.266667v-78.933333L192 23.466667z m17.066667 441.6c10.666667-10.666667 27.733333-12.8 40.533333-2.133334l138.666667 125.866667 155.733333-134.4c6.4-4.266667 12.8-6.4 19.2-6.4 6.4 0 14.933333 2.133333 19.2 6.4l221.866667 194.133333c10.666667 10.666667 12.8 27.733333 2.133333 40.533334l-8.533333 10.666666c-10.666667 10.666667-27.733333 12.8-40.533334 2.133334L563.2 533.333333 405.333333 667.733333c-10.666667 10.666667-27.733333 8.533333-38.4-2.133333l-164.266666-151.466667c-10.666667-10.666667-12.8-27.733333-2.133334-40.533333l8.533334-8.533333z m0 0"  horiz-adv-x="1024" />

    
    <glyph glyph-name="dingdanchaxun" unicode="&#59044;" d="M275.2 490.666667v78.933333l482.133333-4.266667v-78.933333L275.2 490.666667z m0-196.266667v78.933333l482.133333-4.266666v-78.933334l-482.133333 4.266667z m0-198.4v78.933333l482.133333-4.266666v-78.933334l-482.133333 4.266667z m0 0M974.933333 889.6H725.333333L684.8 814.933333V883.2c0 4.266667-2.133333 6.4-6.4 6.4H354.133333c-4.266667 0-6.4-2.133333-6.4-6.4v-68.266667L307.2 889.6H55.466667c-17.066667 0-29.866667-14.933333-29.866667-29.866667v-947.2c0-17.066667 12.8-29.866667 29.866667-29.866666h919.466666c17.066667 0 29.866667 12.8 29.866667 29.866666V859.733333C1004.8 874.666667 992 889.6 974.933333 889.6zM401.066667 834.133333c0 4.266667 2.133333 6.4 6.4 6.4h215.466666c4.266667 0 6.4-2.133333 6.4-6.4v-29.866666c0-4.266667-2.133333-6.4-6.4-6.4H407.466667c-4.266667 0-6.4 2.133333-6.4 6.4V834.133333z m529.066666-846.933333c0-17.066667-12.8-29.866667-29.866666-29.866667H130.133333c-17.066667 0-29.866667 12.8-29.866666 29.866667V782.933333c0 17.066667 12.8 29.866667 29.866666 29.866667h128l51.2-96h411.733334l51.2 96h128c17.066667 0 29.866667-12.8 29.866666-29.866667v-795.733333z m0 0"  horiz-adv-x="1026" />

    
    <glyph glyph-name="yinhangxinxichaxun" unicode="&#59045;" d="M987.733333 819.2H34.133333C19.2 819.2 4.266667 806.4 4.266667 789.333333v-806.4c0-14.933333 12.8-29.866667 29.866666-29.866666h953.6c14.933333 0 29.866667 12.8 29.866667 29.866666V789.333333c-2.133333 17.066667-14.933333 29.866667-29.866667 29.866667z m-44.8-763.733333c0-14.933333-12.8-29.866667-29.866666-29.866667H106.666667c-14.933333 0-29.866667 12.8-29.866667 29.866667v661.333333C76.8 733.866667 91.733333 746.666667 106.666667 746.666667h806.4c14.933333 0 29.866667-12.8 29.866666-29.866667v-661.333333z m0 0M117.333333 593.066667h785.066667v-72.533334H117.333333v72.533334z m550.4-292.266667h230.4v145.066667H667.733333v-145.066667z m57.6 93.866667h117.333334v-40.533334H725.333333v40.533334z m0 0"  horiz-adv-x="1024" />

    
    <glyph glyph-name="jiehuiguanli" unicode="&#59046;" d="M885.333333-17.066667c0-14.933333-12.8-27.733333-27.733333-27.733333H172.8c-14.933333 0-27.733333 12.8-27.733333 27.733333V682.666667H72.533333v-772.266667c0-14.933333 12.8-27.733333 27.733334-27.733333h825.6c14.933333 0 27.733333 12.8 27.733333 27.733333V682.666667h-70.4v-699.733334z m0 0M514.133333 473.6h277.333334v70.4H232.533333v-70.4h281.6zM968.533333 887.466667H44.8c-8.533333 0-21.333333-12.8-21.333333-27.733334v-147.2c0-14.933333 12.8-27.733333 27.733333-27.733333h923.733333c14.933333 0 27.733333 12.8 27.733334 27.733333V859.733333c2.133333 14.933333-10.666667 27.733333-34.133334 27.733334zM93.866667 789.333333c0 14.933333 12.8 27.733333 27.733333 27.733334h782.933333c14.933333 0 27.733333-12.8 27.733334-27.733334v-6.4c0-14.933333-12.8-27.733333-27.733334-27.733333H123.733333C106.666667 755.2 93.866667 768 93.866667 782.933333V789.333333z m0 0M514.133333 473.6L288 247.466667l228.266667-228.266667 228.266666 228.266667-230.4 226.133333z m0-343.466667l-117.333333 117.333334 117.333333 117.333333 117.333334-117.333333-117.333334-117.333334z m0 0"  horiz-adv-x="1024" />

    
    <glyph glyph-name="gongyingshangguanli" unicode="&#59047;" d="M823.466667-49.066667H198.4V388.266667c0 19.2-17.066667 36.266667-36.266667 34.133333h-2.133333c-44.8 0-83.2 36.266667-83.2 83.2v17.066667c0 4.266667 2.133333 8.533333 4.266667 10.666666 0 2.133333 0 4.266667 2.133333 4.266667L142.933333 817.066667l-34.133333 8.533333 34.133333-8.533333s2.133333 2.133333 4.266667 2.133333h731.733333l4.266667-2.133333 34.133333 8.533333-34.133333-6.4L938.666667 539.733333c0-2.133333 0-4.266667 2.133333-4.266666 2.133333-4.266667 2.133333-8.533333 4.266667-12.8v-2.133334l2.133333-8.533333 34.133333 8.533333-34.133333 2.133334v-17.066667c0-44.8-36.266667-83.2-83.2-83.2h-2.133333c-19.2 0-36.266667-14.933333-36.266667-34.133333v-437.333334z m70.4 437.333334h-34.133334l-2.133333-34.133334h6.4c83.2 0 151.466667 68.266667 151.466667 151.466667V512v6.4c0 4.266667 0 8.533333-2.133334 10.666667l-2.133333 8.533333-34.133333-8.533333 34.133333 6.4c-2.133333 8.533333-4.266667 17.066667-6.4 23.466666l-32-12.8 34.133333 6.4L949.333333 832C940.8 864 910.933333 887.466667 878.933333 887.466667H145.066667C113.066667 887.466667 83.2 864 74.666667 834.133333L17.066667 552.533333l34.133333-6.4-32 12.8c-2.133333-8.533333-4.266667-14.933333-6.4-23.466666l-2.133333-8.533334c0-6.4-2.133333-12.8-2.133334-19.2 0-83.2 68.266667-151.466667 151.466667-151.466666h6.4l-2.133333 34.133333H130.133333v-437.333333c0-38.4 32-70.4 70.4-70.4h625.066667c38.4 0 70.4 32 70.4 70.4l-2.133333 435.2z m0 17.066666h-70.4v-17.066666h70.4V405.333333z m-763.733334-17.066666c0-19.2 17.066667-36.266667 36.266667-34.133334 81.066667 2.133333 147.2 70.4 147.2 151.466667 0 6.4 0 12.8-2.133333 19.2l-34.133334-4.266667v-34.133333l2.133334 34.133333-34.133334 4.266667c0-6.4-2.133333-12.8-2.133333-19.2 0-83.2 68.266667-151.466667 151.466667-151.466667 83.2 0 151.466667 68.266667 151.466666 151.466667 0 6.4 0 12.8-2.133333 19.2l-34.133333-4.266667v-34.133333l2.133333 34.133333-34.133333 4.266667c0-6.4-2.133333-12.8-2.133334-19.2 0-83.2 68.266667-151.466667 151.466667-151.466667 83.2 0 151.466667 68.266667 151.466667 151.466667 0 6.4 0 12.8-2.133334 19.2l-34.133333-4.266667v-34.133333l2.133333 34.133333-34.133333 4.266667c0-6.4-2.133333-12.8-2.133333-19.2 0-81.066667 64-149.333333 147.2-151.466667l2.133333 70.4c-44.8 2.133333-78.933333 38.4-78.933333 83.2v10.666667c2.133333 21.333333-12.8 38.4-34.133334 38.4-23.466667 0-38.4-19.2-36.266666-38.4v-10.666667c0-44.8-36.266667-83.2-83.2-83.2-44.8 0-83.2 36.266667-83.2 83.2v10.666667c2.133333 21.333333-12.8 38.4-34.133334 38.4-23.466667 0-38.4-19.2-36.266666-38.4v-10.666667c0-44.8-36.266667-83.2-83.2-83.2-44.8 0-83.2 36.266667-83.2 83.2v10.666667c2.133333 21.333333-12.8 38.4-34.133334 38.4-23.466667 0-38.4-19.2-36.266666-38.4v-10.666667c0-44.8-36.266667-81.066667-78.933334-83.2l2.133334-34.133333H192V405.333333H130.133333v-17.066666z m0 0"  horiz-adv-x="1026" />

    
    <glyph glyph-name="caigoudanguanli" unicode="&#59049;" d="M819.2 23.466667c19.2 46.933333 29.866667 96 36.266667 145.066666 32 224 51.2 448 66.133333 672V853.333333c-2.133333 19.2-10.666667 27.733333-27.733333 29.866667h-10.666667c-198.4-8.533333-388.266667-17.066667-586.666667-23.466667-29.866667 0-44.8-6.4-49.066666-36.266666-14.933333-134.4-32-268.8-44.8-403.2-6.4-51.2-10.666667-98.133333-17.066667-147.2-4.266667-40.533333 19.2-59.733333 44.8-49.066667 19.2 6.4 25.6 21.333333 27.733333 40.533333 19.2 151.466667 36.266667 302.933333 53.333334 454.4 2.133333 21.333333 6.4 44.8 8.533333 66.133334l526.933333 21.333333c-2.133333-19.2-2.133333-36.266667-4.266666-53.333333-14.933333-172.8-29.866667-345.6-53.333334-518.4-6.4-55.466667-14.933333-110.933333-32-164.266667-14.933333-42.666667-38.4-78.933333-81.066666-96-40.533333-17.066667-81.066667-8.533333-110.933334 25.6-23.466667 27.733333-34.133333 61.866667-42.666666 93.866667-2.133333 8.533333-4.266667 10.666667-12.8 12.8-157.866667 23.466667-311.466667 46.933333-467.2 70.4-4.266667 2.133333-8.533333 2.133333-12.8 2.133333 2.133333-21.333333 4.266667-38.4 6.4-57.6 8.533333-55.466667 32-98.133333 74.666666-132.266667 27.733333-21.333333 59.733333-29.866667 96-36.266666 117.333333-21.333333 232.533333-44.8 349.866667-68.266667 14.933333-2.133333 29.866667-6.4 42.666667-6.4h27.733333c12.8 0 27.733333 4.266667 44.8 8.533333 72.533333 25.6 119.466667 68.266667 147.2 136.533334zM462.933333 430.933333c0-21.333333 14.933333-32 40.533334-34.133333 57.6-6.4 115.2-10.666667 174.933333-14.933333 6.4 0 10.666667 0 17.066667 2.133333 23.466667 6.4 38.4 21.333333 32 42.666667-4.266667 19.2-17.066667 29.866667-38.4 27.733333-42.666667 4.266667-81.066667 6.4-121.6 10.666667-21.333333 2.133333-42.666667 4.266667-64 4.266666-23.466667 2.133333-40.533333-17.066667-40.533334-38.4zM533.333333 578.133333c36.266667-2.133333 70.4-4.266667 108.8-4.266666 25.6 0 51.2-2.133333 74.666667 0 23.466667 0 42.666667 17.066667 36.266667 40.533333-4.266667 17.066667-19.2 29.866667-38.4 32-14.933333 2.133333-32 2.133333-49.066667 2.133333-42.666667 2.133333-83.2 2.133333-125.866667 4.266667-12.8 2.133333-25.6 0-36.266666-10.666667-12.8-12.8-17.066667-27.733333-10.666667-42.666666 8.533333-19.2 21.333333-21.333333 40.533333-21.333334zM394.666667 663.466667c-23.466667-6.4-36.266667-27.733333-32-49.066667 4.266667-23.466667 27.733333-36.266667 53.333333-29.866667 21.333333 4.266667 36.266667 25.6 32 49.066667-4.266667 23.466667-27.733333 36.266667-53.333333 29.866667zM435.2 258.133333c4.266667-17.066667 19.2-32 38.4-34.133333 61.866667-6.4 121.6-10.666667 183.466667-14.933333 29.866667-2.133333 51.2 14.933333 44.8 42.666666-4.266667 19.2-17.066667 29.866667-40.533334 29.866667-59.733333 6.4-117.333333 10.666667-177.066666 14.933333-6.4 0-14.933333 0-21.333334-2.133333-19.2-8.533333-29.866667-17.066667-27.733333-36.266667zM341.333333 437.333333c6.4-23.466667 29.866667-36.266667 55.466667-29.866666 21.333333 4.266667 34.133333 27.733333 29.866667 49.066666-6.4 23.466667-29.866667 36.266667-55.466667 29.866667-23.466667-4.266667-36.266667-27.733333-29.866667-49.066667zM313.6 273.066667c4.266667-23.466667 27.733333-36.266667 55.466667-29.866667a42.666667 42.666667 0 0 1 29.866666 49.066667c-4.266667 23.466667-27.733333 36.266667-53.333333 29.866666-21.333333-6.4-36.266667-27.733333-32-49.066666z"  horiz-adv-x="1024" />

    
    <glyph glyph-name="tiaozhengdan1" unicode="&#59050;" d="M456.533333-38.4c-117.333333 2.133333-155.733333 2.133333-273.066666 4.266667H96V812.8l452.266667-8.533333c0-57.6-2.133333-113.066667 0-168.533334 0-32 10.666667-59.733333 46.933333-70.4 21.333333-6.4 40.533333-10.666667 61.866667-10.666666h138.666666c4.266667 0 8.533333-2.133333 14.933334-2.133334v-138.666666h81.066666v21.333333 2.133333c0 61.866667 2.133333 72.533333 0 132.266667 0 21.333333-10.666667 46.933333-29.866666 64L620.8 864c-12.8 12.8-32 21.333333-51.2 21.333333H93.866667C51.2 883.2 21.333333 853.333333 21.333333 810.666667v-855.466667c0-14.933333 6.4-29.866667 12.8-42.666667 10.666667-21.333333 34.133333-27.733333 55.466667-27.733333h369.066667c4.266667 0 8.533333 0 12.8 2.133333v57.6c0 8.533333-4.266667 17.066667-14.933334 17.066667z m157.866667 780.8l6.4 4.266667c44.8-40.533333 89.6-81.066667 136.533333-125.866667-2.133333-2.133333-2.133333-4.266667-2.133333-4.266667l-81.066667-6.4c-34.133333-2.133333-61.866667 23.466667-59.733333 55.466667V742.4zM426.666667 130.133333H189.866667c-23.466667 0-38.4-14.933333-38.4-34.133333 0-21.333333 14.933333-34.133333 38.4-34.133333l117.333333 2.133333H426.666667c23.466667 0 36.266667 12.8 36.266666 34.133333 0 19.2-12.8 32-36.266666 32zM708.266667 418.133333c0 21.333333-12.8 34.133333-38.4 34.133334H192c-25.6 0-38.4-12.8-38.4-34.133334 0-19.2 14.933333-32 38.4-32h236.8l236.8-2.133333c25.6 2.133333 42.666667 14.933333 42.666667 34.133333zM985.6 341.333333l-29.866667 29.866667c-10.666667 12.8-27.733333 19.2-42.666666 21.333333-12.8 0-27.733333-4.266667-38.4-12.8L524.8 89.6l-40.533333-115.2c-2.133333-6.4 0-14.933333 4.266666-19.2 4.266667-4.266667 12.8-8.533333 21.333334-6.4l123.733333 25.6c2.133333 0 2.133333 0 4.266667 2.133333l345.6 290.133334c10.666667 8.533333 14.933333 21.333333 17.066666 34.133333 0 12.8-4.266667 29.866667-14.933333 40.533333zM535.466667-6.4l21.333333 57.6 42.666667-44.8-64-12.8z m100.266666 38.4l-51.2 51.2 249.6 211.2 49.066667-53.333333-247.466667-209.066667z m317.866667 264.533333l-34.133333-29.866666-51.2 53.333333 34.133333 27.733333c4.266667 4.266667 14.933333 4.266667 21.333333-2.133333l29.866667-29.866667c2.133333-2.133333 4.266667-6.4 4.266667-10.666666-2.133333-4.266667-2.133333-6.4-4.266667-8.533334zM426.666667 294.4H192c-25.6 0-38.4-12.8-38.4-34.133333 0-19.2 14.933333-32 38.4-32h232.533333c25.6 0 40.533333 10.666667 40.533334 32s-12.8 34.133333-38.4 34.133333z"  horiz-adv-x="1024" />

    
    <glyph glyph-name="shezhi" unicode="&#59052;" d="M1004.8 471.466667l-4.266667 25.6-78.933333 25.6c-6.4 21.333333-14.933333 42.666667-25.6 61.866666l38.4 74.666667-14.933333 21.333333c-32 42.666667-68.266667 78.933333-110.933334 110.933334l-21.333333 14.933333L712.533333 768c-19.2 10.666667-40.533333 19.2-61.866666 25.6l-25.6 78.933333-25.6 4.266667C573.866667 881.066667 548.266667 883.2 520.533333 883.2c-23.466667 0-49.066667-2.133333-78.933333-6.4l-25.6-4.266667-25.6-78.933333c-21.333333-6.4-42.666667-14.933333-61.866667-25.6l-81.066666 42.666667-21.333334-14.933334C183.466667 763.733333 147.2 725.333333 115.2 682.666667l-14.933333-21.333334 38.4-74.666666c-10.666667-19.2-19.2-40.533333-25.6-61.866667l-78.933334-25.6-4.266666-25.6c-6.4-27.733333-8.533333-53.333333-8.533334-81.066667 0-23.466667 2.133333-49.066667 6.4-78.933333l4.266667-25.6 78.933333-25.6c6.4-21.333333 14.933333-42.666667 25.6-61.866667l-38.4-74.666666 14.933334-21.333334c17.066667-21.333333 32-42.666667 51.2-59.733333 17.066667-17.066667 36.266667-34.133333 59.733333-51.2l21.333333-14.933333 74.666667 38.4c19.2-10.666667 40.533333-19.2 61.866667-25.6l25.6-78.933334 25.6-4.266666c27.733333-4.266667 53.333333-6.4 78.933333-6.4 23.466667 0 49.066667 2.133333 78.933333 6.4l25.6 4.266666 25.6 78.933334c21.333333 6.4 42.666667 14.933333 61.866667 25.6l74.666667-38.4 21.333333 14.933333c23.466667 17.066667 42.666667 34.133333 59.733333 51.2 17.066667 17.066667 34.133333 38.4 51.2 59.733333l14.933334 21.333334-29.866667 74.666666c10.666667 19.2 19.2 40.533333 25.6 61.866667l78.933333 25.6 4.266667 25.6c4.266667 27.733333 6.4 53.333333 6.4 78.933333 2.133333 27.733333 0 53.333333-6.4 78.933334z m-70.4-76.8c0-14.933333 0-29.866667-2.133333-46.933334l-38.4-12.8-34.133334-10.666666-10.666666-34.133334c-6.4-19.2-14.933333-38.4-23.466667-57.6l-17.066667-32 34.133334-68.266666c-10.666667-12.8-19.2-23.466667-29.866667-34.133334-10.666667-10.666667-21.333333-19.2-34.133333-29.866666l-68.266667 34.133333-32-17.066667c-19.2-10.666667-38.4-17.066667-57.6-23.466666l-34.133333-10.666667-10.666667-34.133333-12.8-38.4c-29.866667-4.266667-61.866667-4.266667-91.733333 0l-12.8 38.4-10.666667 34.133333-34.133333 10.666667c-19.2 6.4-38.4 14.933333-57.6 23.466666l-32 17.066667-32-17.066667-36.266667-17.066666c-12.8 8.533333-23.466667 19.2-34.133333 29.866666-10.666667 10.666667-21.333333 21.333333-29.866667 34.133334l34.133333 68.266666-17.066666 32c-10.666667 19.2-17.066667 38.4-23.466667 57.6l-10.666667 34.133334-72.533333 23.466666c-4.266667 29.866667-4.266667 61.866667 0 91.733334l72.533333 23.466666 10.666667 34.133334c6.4 19.2 12.8 38.4 23.466667 57.6l17.066666 32-17.066666 32-17.066667 36.266666c19.2 23.466667 40.533333 44.8 64 64l68.266667-34.133333 32 17.066667c19.2 8.533333 38.4 17.066667 57.6 23.466666l34.133333 10.666667 10.666667 34.133333 12.8 38.4c17.066667 2.133333 32 2.133333 44.8 2.133334 14.933333 0 29.866667 0 44.8-2.133334l23.466666-72.533333 36.266667-10.666667c19.2-6.4 38.4-14.933333 57.6-23.466666l32-17.066667 68.266667 34.133333c23.466667-19.2 44.8-40.533333 64-64l-34.133334-68.266666 17.066667-32c10.666667-19.2 17.066667-38.4 23.466667-57.6l10.666666-34.133334 34.133334-10.666666 38.4-12.8c2.133333-17.066667 2.133333-32 2.133333-44.8z m-418.133333 187.733333c-104.533333 0-189.866667-85.333333-189.866667-189.866667s85.333333-189.866667 189.866667-189.866666 189.866667 85.333333 189.866666 189.866666-85.333333 189.866667-189.866666 189.866667z m78.933333-268.8c-21.333333-21.333333-49.066667-32-78.933333-32-29.866667 0-57.6 10.666667-78.933334 32S405.333333 362.666667 405.333333 392.533333c0 29.866667 10.666667 57.6 32 78.933334s49.066667 32 78.933334 32c29.866667 0 57.6-10.666667 78.933333-32s32-49.066667 32-78.933334c0-29.866667-10.666667-57.6-32-78.933333z m0 0"  horiz-adv-x="1024" />

    
    <glyph glyph-name="daitongbu" unicode="&#59055;" d="M503.466667-6.4c-224 0-405.333333 181.333333-405.333334 405.333333s181.333333 405.333333 405.333334 405.333334c128 0 243.2-59.733333 317.866666-155.733334l21.333334 19.2-117.333334-110.933333 258.133334-27.733333-19.2 258.133333L874.666667 699.733333C789.333333 806.4 654.933333 874.666667 507.733333 874.666667 241.066667 872.533333 29.866667 661.333333 29.866667 396.8s213.333333-473.6 473.6-473.6c209.066667 0 388.266667 136.533333 450.133333 326.4l-64 32c-51.2-168.533333-202.666667-288-386.133333-288zM409.6 275.2c2.133333-14.933333 10.666667-23.466667 23.466667-23.466667h279.466666c14.933333 0 25.6 12.8 25.6 32s-10.666667 32-25.6 32H471.466667V558.933333c0 14.933333-12.8 25.6-32 25.6s-32-10.666667-32-25.6v-277.333333c0-4.266667 0-4.266667 2.133333-6.4z"  horiz-adv-x="1024" />

    


  </font>
</defs>
</svg>
