<?xml version="1.0" standalone="no"?>
<!DOCTYPE svg PUBLIC "-//W3C//DTD SVG 1.1//EN" "http://www.w3.org/Graphics/SVG/1.1/DTD/svg11.dtd" >
<!--
2013-9-30: Created.
-->
<svg>
<metadata>
Created by iconfont
</metadata>
<defs>

<font id="iconfont" horiz-adv-x="1024" >
  <font-face
    font-family="iconfont"
    font-weight="500"
    font-stretch="normal"
    units-per-em="1024"
    ascent="896"
    descent="-128"
  />
    <missing-glyph />
    
    <glyph glyph-name="zuofanye-xue" unicode="&#58931;" d="M511.936 834.432c-247.074-0.255-447.297-200.479-447.552-447.528 0.255-247.098 200.479-447.321 447.528-447.576 247.098 0.255 447.321 200.479 447.576 447.528-0.255 247.098-200.479 447.321-447.528 447.576zM511.936 3.328c-211.727 0.255-383.297 171.825-383.552 383.528 0.255 211.752 171.825 383.321 383.528 383.576 211.752-0.255 383.321-171.825 383.576-383.528-0.218-211.766-171.81-383.358-383.531-383.576zM637.76 617.216c-5.779 5.839-13.796 9.455-22.657 9.455-8.701 0-16.589-3.487-22.34-9.14l-207.163-207.164c-5.563-5.589-9.002-13.296-9.002-21.806 0-0.569 0.015-1.134 0.046-1.696-0.030-0.407-0.046-0.976-0.046-1.547 0-8.568 3.436-16.334 9.006-21.995l207.164-207.164c12.224-12.352 32.384-12.224 44.864 0.256s12.608 32.64 0.384 44.992l-185.408 185.408 185.344 185.408c5.717 5.74 9.252 13.657 9.252 22.4 0 8.838-3.612 16.833-9.44 22.588z"  horiz-adv-x="1024" />

    
    <glyph glyph-name="youfanye-xue" unicode="&#58932;" d="M511.936 834.432c-247.074-0.255-447.297-200.479-447.552-447.528 0.255-247.098 200.479-447.321 447.528-447.576 247.098 0.255 447.321 200.479 447.576 447.528-0.255 247.098-200.479 447.321-447.528 447.576zM511.936 3.328c-211.727 0.255-383.297 171.825-383.552 383.528 0.255 211.752 171.825 383.321 383.528 383.576 211.752-0.255 383.321-171.825 383.576-383.528-0.218-211.766-171.81-383.358-383.531-383.576zM386.112 617.216c5.779 5.839 13.796 9.455 22.657 9.455 8.701 0 16.589-3.487 22.34-9.14l207.099-207.164c6.464-6.4 9.28-14.912 8.96-23.424 0.033-0.538 0.052-1.166 0.052-1.799 0-8.515-3.443-16.227-9.013-21.817l-207.167-207.167c-12.224-12.352-32.384-12.224-44.864 0.256s-12.608 32.64-0.384 44.992l185.408 185.408-185.344 185.472c-5.679 5.733-9.188 13.625-9.188 22.336 0 8.838 3.612 16.833 9.441 22.589z"  horiz-adv-x="1024" />

    
    <glyph glyph-name="resou" unicode="&#58926;" d="M736.022 566.7429999999999c22.805-120.437-50.993-217.985-50.993-217.985C748.518 550.3620000000001 496.89 807.56 398.984 832.16c121.704-312.142-13.398-402.206-13.398-402.206 11.446 159.767-90.967 185.078-90.967 185.078 59.66-127.715-50.766-163.747-97.143-306.165-57.879-345.02 353.412-509.884 571.352-234.54 159.355 216.393-32.806 492.416-32.806 492.416zM542.163 402.027c126.605-192.09 96.889-309.671 25.95-358.28-53.858-36.886-106.123-37.446-149.241 13.462-32.637 38.567-27.85 76.719-10.908 109.393 27.367 52.881 148.419 141.883 134.198 235.424z"  horiz-adv-x="1024" />

    
    <glyph glyph-name="symbol" unicode="&#58895;" d="M586.88 583.8506669999999h-129.578667c-6.357333-75.221333-12.501333-136.874667-18.474666-184.96a3472.469333 3472.469333 0 0 0-17.408-124.074667c-5.589333-34.645333-11.392-66.133333-17.408-94.592-4.864-22.101333-11.946667-39.424-21.290667-51.968-9.386667-12.501333-23.210667-21.205333-41.514667-26.069333-14.933333-3.754667-29.824-0.768-44.586666 8.96-14.762667 9.728-23.637333 21.333333-26.624 34.816a69.248 69.248 0 0 0-1.706667 25.557333c1.152 6.912 3.2 13.354667 6.186667 19.370667 2.986667 5.973333 6.357333 11.392 10.069333 16.256a1245.952 1245.952 0 0 0 31.146667 37.632 212.48 212.48 0 0 1 26.624 37.888c5.973333 11.392 9.728 24.021333 11.221333 37.888l33.706667 263.296H332.8c-15.36 0-29.909333-3.626667-43.733333-10.922667-13.866667-7.296-24.490667-15.786667-32-25.557333l-24.106667-35.925334H213.333333c5.248 14.592 11.776 32.085333 19.626667 52.48s18.688 40.149333 32.554667 59.221334a148.864 148.864 0 0 0 43.733333 41.813333C327.594667 676.821333 348.885333 682.666667 373.162667 682.666667H801.706667v-98.816h-144.725334a2596.48 2596.48 0 0 1-13.994666-270.037334c0-16.469333 2.773333-32.554667 8.405333-48.256 5.589333-15.744 12.501333-27.733333 20.736-35.968 10.453333-9.728 23.296-16 38.4-18.773333 15.146667-2.816 30.592 1.962667 46.293333 14.293333 8.618667 6.741333 14.848 14.421333 18.773334 23.04 3.968 8.576 6.442667 16.810667 7.594666 24.704l3.370667 23.552H810.666667c-0.384-31.061333-5.034667-59.050667-14.037334-83.925333-8.96-24.874667-19.626667-44.885333-31.957333-60.074667-12.373333-15.146667-24.490667-26.112-36.437333-32.853333-13.482667-8.192-29.184-13.184-47.146667-14.848a73.386667 73.386667 0 0 0-49.322667 12.629333c-24.704 17.962667-43.392 46.208-56.106666 84.778667-7.125333 22.442667-11.093333 52.096-12.074667 88.96-0.938667 36.864 0.298667 72.917333 3.669333 108.074667l19.626667 184.746666"  horiz-adv-x="1024" />

    
    <glyph glyph-name="yulan" unicode="&#59014;" d="M913.526971 375.502075c0 95.60166-218.821577 240.06639-403.651452 240.06639-182.705394 0-403.651452-144.46473-403.651453-240.06639 0-95.60166 218.821577-250.688797 403.651453-250.688797 182.705394 0 403.651452 155.087137 403.651452 250.688797z m-403.651452-178.456432c-144.46473 0-331.419087 123.219917-331.419087 180.580913 0 55.236515 186.954357 167.834025 331.419087 167.834025 144.46473 0 331.419087-112.59751 331.419087-167.834025 0-57.360996-186.954357-180.580913-331.419087-180.580913z m-397.278009-254.937759c-14.871369 0-27.618257 12.746888-27.618257 27.618257V209.79253100000005H12.746888v-308.049792c0-12.746888 8.497925-23.369295 19.120332-27.618258h344.165975v70.107884l-263.435685-2.124481zM975.136929 893.875519H681.958506v-72.232365h223.07054c14.871369 0 27.618257-12.746888 27.618257-27.618258v-237.941908h70.107884V872.630705c-2.124481 12.746888-14.871369 21.244813-27.618258 21.244814zM1002.755187-106.75518699999998V209.79253100000005h-70.107884v-237.941909c0-14.871369-12.746888-27.618257-27.618257-27.618257H639.46888V-128h344.165975c10.622407 4.248963 16.995851 10.622407 19.120332 21.244813z m0 0M618.224066 466.854772c-29.742739 25.493776-67.983402 38.240664-108.348547 38.240664s-78.605809-12.746888-108.348548-38.240664c-29.742739-25.493776-46.738589-61.609959-46.738589-97.726141 0-36.116183 16.995851-72.232365 46.738589-97.726141 29.742739-25.493776 67.983402-38.240664 108.348548-38.240664s78.605809 12.746888 108.348547 38.240664c29.742739 25.493776 46.738589 61.609959 46.73859 97.726141 0 36.116183-14.871369 72.232365-46.73859 97.726141z m-108.348547-176.33195c-55.236515 0-99.850622 36.116183-99.850623 78.605809s44.614108 78.605809 99.850623 78.605809 99.850622-36.116183 99.850622-78.605809c0-44.614108-44.614108-78.605809-99.850622-78.605809z m-174.207469 531.120332V893.875519H40.365145C25.493776 893.875519 12.746888 881.128631 12.746888 866.257261v-308.049792h72.232365V794.024896c0 14.871369 12.746888 27.618257 27.618257 27.618258h223.07054z m0 0"  horiz-adv-x="1024" />

    
    <glyph glyph-name="shanchu" unicode="&#59022;" d="M887.466667-21.333333c0-14.933333-12.8-27.733333-27.733334-27.733334H181.333333c-14.933333 0-27.733333 12.8-27.733333 27.733334V644.266667H81.066667v-738.133334c0-14.933333 12.8-27.733333 27.733333-27.733333h819.2c14.933333 0 27.733333 12.8 27.733333 27.733333V644.266667h-70.4l2.133334-665.6z m81.066666 812.8h-211.2L646.4 881.066667c-4.266667 4.266667-8.533333 6.4-12.8 8.533333-4.266667 2.133333-8.533333 2.133333-12.8 2.133333H401.066667c-8.533333 0-17.066667-4.266667-21.333334-10.666666L258.133333 791.466667H42.666667c-14.933333 0-27.733333-12.8-27.733334-27.733334v-14.933333c0-14.933333 12.8-27.733333 27.733334-27.733333h226.133333c8.533333 0 14.933333 2.133333 21.333333 8.533333l123.733334 89.6h196.266666l110.933334-89.6c4.266667-2.133333 6.4-4.266667 8.533333-6.4 4.266667-2.133333 8.533333-4.266667 14.933333-4.266667h224c14.933333 0 27.733333 12.8 27.733334 27.733334v14.933333c0 17.066667-12.8 29.866667-27.733334 29.866667z m0 0M343.466667 19.2c14.933333 0 27.733333 12.8 27.733333 27.733333V541.866667c0 14.933333-12.8 27.733333-27.733333 27.733333h-14.933334c-14.933333 0-27.733333-12.8-27.733333-27.733333v-492.8c0-14.933333 12.8-27.733333 27.733333-27.733334h14.933334z m183.466666 0c14.933333 0 27.733333 12.8 27.733334 27.733333V541.866667c0 14.933333-12.8 27.733333-27.733334 27.733333h-14.933333c-14.933333 0-27.733333-12.8-27.733333-27.733333v-492.8c0-14.933333 12.8-27.733333 27.733333-27.733334h14.933333z m183.466667 2.133333c14.933333 0 27.733333 12.8 27.733333 27.733334V541.866667c0 14.933333-12.8 27.733333-27.733333 27.733333h-14.933333c-14.933333 0-27.733333-12.8-27.733334-27.733333v-492.8c0-14.933333 12.8-27.733333 27.733334-27.733334h14.933333z m0 0"  horiz-adv-x="1026" />

    
    <glyph glyph-name="bianji" unicode="&#59027;" d="M925.866667 450.133333v-475.733333c0-14.933333-12.8-27.733333-27.733334-27.733333H113.066667c-14.933333 0-27.733333 12.8-27.733334 27.733333V791.466667c0 14.933333 12.8 27.733333 27.733334 27.733333h435.2V891.733333H42.666667C27.733333 891.733333 14.933333 878.933333 14.933333 864v-957.866667c0-14.933333 12.8-27.733333 27.733334-27.733333h923.733333c14.933333 0 27.733333 12.8 27.733333 27.733333V450.133333h-68.266666z m0 0M270.933333 307.2l-2.133333-2.133333-42.666667-198.4c-2.133333-10.666667 2.133333-23.466667 10.666667-32 8.533333-8.533333 21.333333-10.666667 32-6.4l189.866667 61.866666c2.133333 0 4.266667 0 6.4 2.133334l490.666666 544c14.933333 17.066667 21.333333 38.4 21.333334 59.733333-2.133333 25.6-14.933333 51.2-34.133334 68.266667L893.866667 853.333333C874.666667 870.4 849.066667 881.066667 821.333333 878.933333c-21.333333 0-42.666667-10.666667-57.6-27.733333L270.933333 307.2c0 2.133333 0 0 0 0zM814.933333 804.266667c8.533333 8.533333 23.466667 8.533333 32 0l51.2-46.933334c4.266667-4.266667 8.533333-10.666667 8.533334-17.066666 0-4.266667-2.133333-10.666667-4.266667-14.933334L853.333333 672l-85.333333 78.933333 46.933333 53.333334z m-98.133333-108.8l87.466667-81.066667-352-390.4-89.6 78.933333L716.8 695.466667zM324.266667 249.6l74.666666-68.266667-96-32 21.333334 100.266667z m0 0"  horiz-adv-x="1024" />

    
    <glyph glyph-name="zengjia1" unicode="&#59143;" d="M982.4 888H35.2C17.6 888 4.8 875.2 4.8 858.4v-947.2c0-16.8 12.8-29.6 29.6-29.6h947.2c16.8 0 29.6 12.8 29.6 29.6V858.4c-1.6 16.8-14.4 29.6-28.8 29.6z m-75.2-932h-800c-16.8 0-29.6 12.8-29.6 29.6v800c0 16.8 12.8 29.6 29.6 29.6h800c16.8 0 29.6-12.8 29.6-29.6v-800c0.8-16.8-12-29.6-29.6-29.6zM546.4 684.8h-75.2v-262.4H208v-75.2h263.2v-263.2h75.2V347.2h262.4v75.2H546.4z"  horiz-adv-x="1024" />

    
    <glyph glyph-name="word" unicode="&#60885;" d="M1006.933333 810.666667H580.266667V861.866667c0 6.826667-3.413333 10.24-6.826667 13.653333s-10.24 3.413333-13.653333 3.413333l-546.133334-136.533333c-6.826667-3.413333-13.653333-10.24-13.653333-17.066667v-716.8c0-6.826667 6.826667-13.653333 13.653333-17.066666l546.133334-102.4h3.413333c3.413333 0 6.826667 0 10.24 3.413333 3.413333 3.413333 6.826667 6.826667 6.826667 13.653333v51.2h426.666666c10.24 0 17.066667 6.826667 17.066667 17.066667V793.6c0 10.24-6.826667 17.066667-17.066667 17.066667zM477.866667 513.7066669999999l-102.4-307.2c-3.413333-6.826667-10.24-10.24-17.066667-10.24s-13.653333 6.826667-17.066667 13.653333l-51.2 187.733333c-3.413333 13.653333-27.306667 13.653333-34.133333 0L204.8 209.91999999999996c-3.413333-6.826667-6.826667-13.653333-17.066667-13.653333s-13.653333 6.826667-13.653333 10.24l-102.4 307.2c-3.413333 10.24 3.413333 17.066667 10.24 20.48h6.826667c6.826667 0 13.653333-3.413333 17.066666-10.24l68.266667-201.386667c3.413333-6.826667 10.24-10.24 17.066667-10.24s13.653333 6.826667 17.066666 13.653333l54.613334 197.973334c3.413333 13.653333 27.306667 13.653333 34.133333 0l54.613333-197.973334c3.413333-6.826667 6.826667-13.653333 17.066667-13.653333 6.826667 0 13.653333 3.413333 17.066667 10.24l68.266666 201.386667c3.413333 10.24 13.653333 13.653333 20.48 10.24 0 0 6.826667-10.24 3.413334-20.48z m512-522.24H580.266667v102.4h324.266666c10.24 0 17.066667 6.826667 17.066667 17.066666s-6.826667 17.066667-17.066667 17.066667H580.266667v102.4h324.266666c10.24 0 17.066667 6.826667 17.066667 17.066667s-6.826667 17.066667-17.066667 17.066666H580.266667v102.4h324.266666c10.24 0 17.066667 6.826667 17.066667 17.066667s-6.826667 17.066667-17.066667 17.066667H580.266667v102.4h324.266666c10.24 0 17.066667 6.826667 17.066667 17.066666s-6.826667 17.066667-17.066667 17.066667H580.266667v102.4h324.266666c10.24 0 17.066667 6.826667 17.066667 17.066667s-6.826667 17.066667-17.066667 17.066666H580.266667v102.4h409.6v-785.066666z"  horiz-adv-x="1024" />

    
    <glyph glyph-name="qiehuan" unicode="&#58897;" d="M66.56 711.68h936.96v-92.16H66.56zM337.92 430.08h665.6v-92.16H337.92zM66.56 148.48h936.96v-92.16H66.56zM204.8 522.24l-138.24-138.24 138.24-143.36z"  horiz-adv-x="1024" />

    
    <glyph glyph-name="qiehuan1" unicode="&#58898;" d="M66.56 711.68h936.96v-92.16H66.56zM337.92 430.08h665.6v-92.16H337.92zM66.56 148.48h936.96v-92.16H66.56zM66.56 245.76l138.24 138.24-138.24 143.36z"  horiz-adv-x="1024" />

    
    <glyph glyph-name="daochu" unicode="&#59177;" d="M704 448c-198.4 0-371.2-128-428.8-320-38.4 134.4-12.8 281.6 70.4 396.8C428.8 633.6 563.2 704 704 704V896l320-320-320-320V448z m192-256c0 38.4 25.6 64 64 64s64-25.6 64-64v-192c0-70.4-57.6-128-128-128H128c-70.4 0-128 57.6-128 128V512c0 70.4 57.6 128 128 128h128c38.4 0 64-25.6 64-64s-25.6-64-64-64H192c-32 0-64-25.6-64-64v-384c0-38.4 25.6-64 64-64h640c38.4 0 64 25.6 64 64v128z m0 0"  horiz-adv-x="1024" />

    
    <glyph glyph-name="bianjihexiugai" unicode="&#59182;" d="M889.6 825.6c-51.2 51.2-128 51.2-179.2 0L614.4 729.6l179.2-172.8 96 89.6c44.8 51.2 44.8 128 0 179.2z m-147.2-326.4L563.2 678.4l-384-384-64-243.2 243.2 70.4 384 377.6zM44.8 12.8h883.2v-83.2H44.8v83.2z"  horiz-adv-x="1024" />

    
    <glyph glyph-name="bohui" unicode="&#59193;" d="M505.6 896C224 896 0 672 0 390.4s224-505.6 505.6-505.6 505.6 224 505.6 505.6S787.2 896 505.6 896z m294.4-838.4C768 204.8 627.2 320 467.2 320v-140.8c0-6.4 0-12.8-6.4-19.2-12.8-12.8-25.6-6.4-38.4 0L192 422.4c-6.4 0-6.4 6.4-6.4 12.8s0 12.8 6.4 19.2l236.8 262.4c6.4 6.4 25.6 6.4 32 0 6.4-6.4 6.4-12.8 6.4-19.2v-140.8c198.4 0 358.4-160 358.4-358.4 0-44.8-6.4-96-25.6-140.8z"  horiz-adv-x="1024" />

    
    <glyph glyph-name="daoru" unicode="&#59194;" d="M358.4 505.6C288 646.4 153.6 723.2 0 697.6c83.2 76.8 172.8 108.8 288 89.6 108.8-19.2 204.8-89.6 256-192l134.4 70.4L563.2 320 224 435.2l134.4 70.4zM128 108.8c0-38.4 25.6-64 64-64h640c38.4 0 64 25.6 64 64v384c0 38.4-25.6 64-64 64h-64c-38.4 0-64 25.6-64 64s25.6 64 64 64h128c70.4 0 128-57.6 128-128v-512c0-70.4-57.6-128-128-128H128c-70.4 0-128 57.6-128 128v192c0 38.4 25.6 64 64 64s64-25.6 64-64v-128z"  horiz-adv-x="1024" />

    
    <glyph glyph-name="xinzeng1" unicode="&#59201;" d="M889.6 896H134.4C64 896 6.4 838.4 6.4 768v-768c0-70.4 57.6-128 128-128H896c70.4 0 128 57.6 128 128V768c-6.4 70.4-64 128-134.4 128z m-172.8-556.8H563.2v-153.6c0-25.6-19.2-51.2-51.2-51.2-25.6 0-51.2 19.2-51.2 51.2V339.2H313.6c-32 0-51.2 19.2-51.2 44.8 0 25.6 19.2 51.2 51.2 51.2h153.6V588.8c0 25.6 19.2 51.2 51.2 51.2 25.6 0 51.2-19.2 51.2-51.2v-153.6h153.6c25.6 0 51.2-19.2 51.2-51.2-12.8-25.6-32-44.8-57.6-44.8z"  horiz-adv-x="1024" />

    
    <glyph glyph-name="shenhe" unicode="&#59206;" d="M1024 57.6v-51.2H12.8v51.2c0 76.8 64 140.8 140.8 140.8h172.8s64 64 64 121.6-128 128-128 313.6C262.4 774.4 377.6 883.2 512 883.2s256-108.8 256-249.6C768 448 646.4 384 646.4 326.4s64-121.6 64-121.6h172.8c76.8 0 140.8-64 140.8-147.2zM12.8-121.6H1024v70.4H12.8v-70.4z"  horiz-adv-x="1024" />

    
    <glyph glyph-name="zhongzhi" unicode="&#58949;" d="M990.72 562.176c-73.728 175.104-255.488 279.04-443.904 253.44-188.416-25.6-335.872-174.08-360.448-361.984H0l219.136-219.136 219.136 219.136H257.024c26.624 167.424 171.52 295.936 346.112 295.936 193.536 0 350.72-157.184 350.72-350.72s-157.184-350.72-350.72-350.72c-80.896 0-159.744 28.16-222.208 79.36-14.848 11.776-36.864 9.728-48.64-5.12-12.288-14.848-10.24-36.352 4.608-48.64 149.504-122.368 363.52-127.488 518.144-11.776 154.624 115.712 210.944 322.048 135.68 500.224z m0 0"  horiz-adv-x="1024" />

    
    <glyph glyph-name="chaxun" unicode="&#58950;" d="M982.734328 60.497512l-189.516418 128.891543c38.208955 62.662687 60.115423 136.533333 60.115423 214.989054 0 228.744279-185.440796 414.185075-414.185074 414.185075C210.913433 818.563184 25.472637 633.631841 25.472637 404.887562s185.440796-414.185075 414.185074-414.185074c124.81592 0 237.404975 55.530348 313.313433 143.156218l191.554229-130.4199c5.60398-4.075622 12.736318-6.113433 19.359204-6.113433 11.20796 0 21.906468 5.094527 28.529353 15.283582 10.189055 15.793035 6.113433 37.19005-9.679602 47.888557m-409.090547 26.491543c-42.284577-17.830846-87.625871-27.000995-133.98607-27.000995s-91.701493 9.170149-133.986069 27.000995c-41.265672 17.321393-77.946269 42.284577-109.532339 73.870646-31.58607 31.58607-56.549254 68.776119-73.870646 109.532339-17.830846 42.284577-27.000995 87.625871-27.000995 133.986069 0 46.360199 9.170149 91.701493 27.000995 133.98607 17.321393 41.265672 42.284577 77.946269 73.870646 109.532338C227.725373 679.482587 264.915423 704.445771 305.671642 721.767164c42.284577 17.830846 87.625871 27.000995 133.986069 27.000995s91.701493-9.170149 133.98607-27.000995c41.265672-17.321393 77.946269-42.284577 109.532338-73.870647 31.58607-31.58607 56.549254-68.776119 73.870647-109.532338 17.830846-42.284577 27.000995-87.625871 27.000995-133.98607 0-46.360199-9.170149-91.701493-27.000995-133.986069-8.660697-20.887562-19.868657-41.265672-32.604975-60.115423-3.566169-2.547264-7.132338-5.60398-9.679602-9.170149-2.037811-3.056716-3.566169-6.113433-4.585075-9.679602-8.660697-10.698507-17.321393-20.887562-27.000995-30.567165-31.58607-31.58607-68.266667-56.549254-109.532338-73.870646M654.646766 565.365174c-5.094527 0-10.189055 1.528358-14.264676 4.075622-9.170149 5.60398-18.849751 10.698507-29.038806 14.774129-14.264677 6.113433-20.378109 22.41592-14.77413 36.171145 6.113433 14.264677 22.41592 20.378109 36.171145 14.774129 12.736318-5.094527 24.453731-11.717413 36.171144-18.849751 13.245771-8.151244 17.321393-24.963184 9.170149-38.208955-5.094527-8.151244-14.264677-12.736318-23.434826-12.736319m-422.845771-29.548259c-6.113433 0-11.717413 2.037811-16.81194 5.603981-12.226866 9.170149-14.264677 26.491542-5.094528 38.718407C251.160199 633.631841 310.766169 670.312438 377.504478 682.029851c52.983085 9.679602 107.494527 3.566169 156.911442-17.321393 14.264677-6.113433 20.378109-22.41592 14.77413-36.171145-6.113433-14.264677-22.41592-20.378109-36.171145-14.774129-39.227861 16.81194-82.531343 21.397015-125.325373 13.755224-53.492537-9.679602-100.871642-38.718408-133.986069-81.512438-5.094527-6.622886-13.245771-10.189055-21.906468-10.189055"  horiz-adv-x="1024" />

    
    <glyph glyph-name="dangechuangjian" unicode="&#58953;" d="M811.008 267.776c-103.424 0-187.392-83.968-187.392-187.392s83.968-187.392 187.392-187.392c103.424 0 187.392 83.968 187.392 187.392s-83.968 187.392-187.392 187.392z m123.904-212.48h-99.328v-99.328h-49.664v99.328h-99.328v49.664h99.328v99.328h49.664v-99.328h99.328v-49.664zM504.32 509.44l-23.552 73.216-24.064-73.216c-3.584-11.776-14.336-19.456-26.624-19.456H353.28l62.464-45.056c9.728-7.168 13.824-19.968 10.24-31.232l-23.552-73.216 62.464 45.056c4.608 3.584 10.752 5.12 16.384 5.12 6.144 0 11.776-2.048 16.384-5.12l62.464-45.056-23.552 73.216c-3.584 11.776 0.512 24.064 10.24 31.232l62.464 45.056h-76.8c-13.312 0-24.064 7.68-28.16 19.456zM837.12 869.888H123.904c-46.592 0-84.48-37.888-84.48-84.992v-823.296c0-9.216 4.608-17.92 12.8-23.552 4.608-3.072 9.728-4.608 15.36-4.608 3.584 0 7.68 0.512 11.264 2.048l398.848 172.544L588.8 61.44c-0.512 5.632-0.512 11.776-0.512 17.408 0 122.88 99.84 222.72 222.72 222.72 40.96 0 79.36-11.264 112.128-30.208V785.408c-1.024 46.592-38.912 84.48-86.016 84.48z m-125.952-374.784l-115.712-83.968 44.032-136.192c3.584-11.776-0.512-24.064-10.24-31.232-4.608-3.584-10.752-5.632-16.384-5.632-6.144 0-11.776 2.048-16.384 5.632L480.768 327.68l-115.712-83.968c-9.728-7.168-23.04-7.168-33.28 0-9.728 7.168-13.824 19.968-10.24 31.232l44.032 136.192-115.2 83.968c-9.728 7.168-13.824 19.968-10.24 31.232 3.584 11.776 14.336 19.456 26.624 19.456H409.6l44.032 136.192c3.584 11.776 14.336 19.456 26.624 19.456 12.288 0 23.04-7.68 26.624-19.456l44.032-136.192h142.848c12.288 0 23.04-7.68 26.624-19.456 4.608-11.264 0.512-24.064-9.216-31.232z"  horiz-adv-x="1024" />

    
    <glyph glyph-name="piliangchuangjian" unicode="&#58954;" d="M832 225.792c-94.72 0-171.52-76.8-171.52-171.52s76.8-171.52 171.52-171.52 171.52 76.8 171.52 171.52-76.8 171.52-171.52 171.52z m113.664-194.048H855.04v-90.624h-45.568v90.624h-90.624V76.8h90.624v90.624h45.568V76.8h90.624v-45.056z m-393.216 414.72l-21.504 67.072-22.016-67.072c-3.584-10.752-13.312-17.92-24.576-17.92H414.208l56.832-40.96c9.216-6.656 12.8-17.92 9.216-28.672L458.752 291.84l56.832 41.472c4.608 3.072 9.728 5.12 14.848 5.12 5.632 0 10.752-1.536 14.848-5.12l56.832-41.472-21.504 67.072c-3.584 10.752 0.512 22.016 9.216 28.672l56.832 41.472h-70.144c-10.752-0.512-20.48 6.656-24.064 17.408zM856.576 775.68H204.8c-42.496 0-77.312-34.816-77.312-77.312v-752.128c0-8.704 4.608-16.384 11.776-21.504 4.096-2.56 9.216-4.096 13.824-4.096 3.584 0 7.168 0.512 10.24 2.048l364.032 157.696 101.376-43.008c-0.512 5.12-0.512 10.752-0.512 15.872 0 112.128 91.136 203.264 203.264 203.264 37.376 0 72.192-10.24 102.4-27.648V698.368c0 42.496-34.816 77.312-77.312 77.312z m-115.712-342.016l-105.472-76.8 40.448-123.904c3.584-10.752-0.512-22.016-9.216-28.672-4.608-3.072-9.728-5.12-15.36-5.12s-10.752 1.536-15.36 5.12l-105.472 76.8-105.472-76.8c-9.216-6.656-20.992-6.656-30.208 0-8.704 6.656-12.8 17.92-9.216 28.672l40.448 124.416-105.472 76.8c-8.704 6.656-12.8 17.92-9.216 28.672 3.584 10.752 13.312 17.92 24.576 17.92H465.92L506.368 604.16c3.584 10.752 13.312 17.408 24.576 17.92 11.264 0 20.992-7.168 24.576-17.92l40.448-124.416h130.56c11.264 0 20.992-7.168 24.576-17.92 2.56-10.24-1.024-22.016-10.24-28.16zM83.968 740.352c0 43.008 34.816 77.312 77.312 77.312h651.264c4.608 0 8.704-2.048 13.312-2.56-6.656 36.352-36.864 64-74.752 64H99.84c-43.008 0.512-77.312-34.304-77.312-76.8v-752.128c0-8.704 4.608-16.384 11.776-21.504 4.096-2.56 9.216-4.096 13.824-4.096 3.584 0 7.168 0.512 10.24 2.048l25.6 11.264V740.352z"  horiz-adv-x="1024" />

    
    <glyph glyph-name="shenqingjinyong" unicode="&#58955;" d="M261.632 379.904c0-151.552 108.544-265.216 260.096-265.216 87.04 0 145.408 31.744 196.096 95.744l-432.64 256c-13.312-32.256-23.552-54.272-23.552-86.528zM522.24 640.512c-87.04 0-140.8-22.016-190.976-85.504l432.64-256c13.824 31.744 18.432 49.152 18.432 81.408 0 151.04-108.544 260.096-260.096 260.096zM867.328 878.592H153.088C75.264 878.592 11.776 814.592 11.776 737.28v-714.24c0-77.824 64-141.312 141.312-141.312h714.24c77.824 0 141.312 64 141.312 141.312V737.28c0 77.824-64 141.312-141.312 141.312z m-345.088-865.28c-201.728 0-367.104 164.864-367.104 367.104S320 747.008 522.24 747.008s367.104-164.864 367.104-367.104-165.376-366.592-367.104-366.592z"  horiz-adv-x="1024" />

    
    <glyph glyph-name="shangchuanfujian" unicode="&#58956;" d="M522.24 799.744c-3.072 3.072-7.168 4.608-11.776 4.608s-8.704-1.536-11.776-4.608L257.024 571.904c-1.536-1.536-2.048-4.096-1.536-6.144 1.024-2.048 3.072-3.584 5.12-3.584h156.672v-231.936c0-4.096 1.536-8.704 5.12-11.776 3.072-3.072 7.68-5.12 11.776-5.12h152.576c4.096 0 8.704 1.536 11.776 5.12 3.072 3.072 5.12 7.68 5.12 11.776V562.176h156.672c2.048 0 4.608 1.536 5.12 3.584 1.024 2.048 0 4.608-1.536 6.144L522.24 799.744zM970.752 240.64l-149.504 103.424h-93.184l156.672-126.464-172.032 2.048c-5.12 0-12.288-4.608-14.336-8.704l-47.616-115.712H370.688l-47.616 115.712c-2.048 4.096-9.216 8.704-14.336 8.704H137.728l155.648 124.416H200.192L50.688 240.64c-23.552-13.824-37.376-46.08-31.232-71.68l27.648-151.552c6.144-25.6 33.792-46.08 61.44-46.08h803.84c27.648 0 55.296 20.992 61.44 46.08l27.648 151.552c6.656 25.6-7.168 57.856-30.72 71.68z"  horiz-adv-x="1024" />

    
    <glyph glyph-name="tijiaoshenhe" unicode="&#58957;" d="M697.856 580.096v56.32c0 120.832-10.752 124.416-124.416 124.416H263.168c-117.248 0-124.416 4.608-124.416-124.416v-497.152c0-140.288 10.752-124.416 124.416-124.416H573.44v-124.416H138.24c-68.608 0-124.416 55.808-124.416 124.416V760.832C14.336 829.44 70.144 885.248 138.752 885.248h559.104c68.608 0 124.416-55.808 124.416-124.416v-186.368h-124.416v5.632z m-434.688 56.32H573.44V512H263.168V636.416z m0-497.152v124.416h124.416v-124.416H263.168z m0 310.784h186.368v-124.416H263.168V450.048z m500.736 61.44l244.736-309.76h-186.368v-310.784h-124.416v310.784H511.488l252.416 309.76z"  horiz-adv-x="1024" />

    
    <glyph glyph-name="quxiaojinyong" unicode="&#58958;" d="M264.192 385.536c0-150.016 107.52-262.656 257.536-262.656 86.528 0 143.872 31.744 194.048 94.72L287.232 470.528c-13.312-31.232-23.04-53.76-23.04-84.992z m257.536 257.024C435.2 642.56 382.464 621.056 332.8 558.08l428.032-252.928c13.824 31.744 18.432 48.64 18.432 80.384 0 149.504-107.52 257.024-257.536 257.024zM863.744 878.592H156.672c-76.8 0-139.776-62.976-139.776-139.776v-707.072c0-76.8 62.976-139.776 139.776-139.776h707.072c76.8 0 139.776 62.976 139.776 139.776V738.816c-0.512 77.312-63.488 139.776-139.776 139.776z m-342.016-856.576c-199.68 0-363.008 163.328-363.008 363.008s163.328 363.008 363.008 363.008 363.008-163.328 363.008-363.008-163.328-363.008-363.008-363.008z"  horiz-adv-x="1024" />

    
    <glyph glyph-name="chakanshuxingleixing" unicode="&#58959;" d="M509.44 885.76C233.984 885.76 10.24 662.016 10.24 386.56S233.984-112.64 509.44-112.64 1008.64 111.104 1008.64 386.56 784.896 885.76 509.44 885.76z m-1.024-710.656c-217.088 0-310.784 211.456-310.784 211.456S300.032 593.92 510.464 593.92c210.432-0.512 308.224-212.48 308.224-212.48s-93.184-206.336-310.272-206.336z m0 0M509.952 516.096c-75.264 0-129.536-56.832-129.536-129.536 0-72.704 54.272-129.536 129.536-129.536 75.264 0 129.536 56.832 129.536 129.536 0 72.704-54.272 129.536-129.536 129.536z m0-207.36c-43.008 0-77.824 36.352-77.824 77.824s34.816 77.824 77.824 77.824c43.008 0 77.824-36.352 77.824-77.824 0-41.984-34.816-77.824-77.824-77.824z m0 0"  horiz-adv-x="1024" />

    
    <glyph glyph-name="biaojiyichang" unicode="&#58960;" d="M895.488-48.128c100.352 0 141.312 71.168 91.136 157.696L602.112 774.144c-50.176 86.528-132.096 86.528-182.272 0L36.864 109.056c-50.176-87.04-9.216-157.696 91.136-157.696l767.488 0.512zM512 607.744c39.936 0 70.144-81.92 66.56-181.76-3.584-100.352-7.168-181.76-8.704-181.76H455.68c-3.072 0-8.192 81.92-10.752 182.272-3.072 99.328 27.136 181.248 67.072 181.248z m-68.096-480.256c0 38.912 31.744 70.656 70.656 70.656 38.912 0 70.656-31.744 70.656-70.656 0-38.912-31.744-70.656-70.656-70.656-38.912 0-70.656 31.744-70.656 70.656z m0 0"  horiz-adv-x="1024" />

    
    <glyph glyph-name="quxiaokaifa" unicode="&#58961;" d="M602.624 44.544c-7.68 9.216-15.872 19.968-23.04 33.28-8.192 12.8-14.848 27.648-19.456 43.008l-12.8 31.744 40.96 49.664-40.96 49.664 13.312 33.28c11.776 30.72 25.088 54.272 41.984 75.264l1.024 1.536 25.088 25.088 57.856-9.728 22.016 60.416 33.792 6.656c33.28 6.144 68.608 6.144 102.4 0l36.352-6.144 20.992-61.44 3.584 0.512V513.024H16.896v-434.688c0-25.088 20.48-45.056 45.056-45.056h551.936l-9.728 9.728-1.536 1.536z m-506.88 227.328L217.088 158.72c9.216-8.704 9.728-23.04 1.024-31.744-4.096-4.608-10.752-7.168-16.384-7.168s-11.264 1.536-15.36 6.144l-122.88 114.176c-8.704 7.68-13.312 19.968-13.312 33.28s4.608 25.6 13.312 33.28L185.856 419.84c9.216 8.704 23.552 8.192 31.744-1.024 8.704-9.216 8.192-23.552-1.024-31.744l-121.856-113.152c1.024-0.512 1.024-1.536 1.024-2.048z m236.032 138.24l-55.808-283.136c-2.048-11.264-11.264-18.432-22.016-18.432-1.536 0-3.072 0-4.096 0.512-12.288 2.56-20.48 14.336-17.92 26.112l55.808 283.136c2.56 12.288 14.336 20.48 26.112 17.92 12.288-2.048 19.968-13.824 17.92-26.112z m168.448-170.496l-122.88-114.176c-4.096-3.584-9.728-6.144-15.36-6.144-6.144 0-12.288 2.56-16.384 7.168-8.704 9.216-8.192 23.552 1.024 31.744L468.48 271.36v3.072l-121.344 112.64c-9.216 8.704-9.728 23.04-1.024 31.744 8.704 9.216 23.04 9.728 31.744 1.024l122.88-114.176c8.704-7.68 13.312-19.968 13.312-33.28 0-12.8-5.12-24.576-13.824-32.768z m407.04 478.72c0 25.088-20.48 45.056-45.056 45.056H61.952c-25.088 0-45.056-20.48-45.056-45.056V558.08h890.368V718.336z m-320-69.632c0-11.264-9.216-20.992-20.992-20.992h-28.16c-11.264 0-20.992 9.216-20.992 20.992v28.16c0 11.264 9.216 20.992 20.992 20.992h28.16c11.264 0 20.992-9.216 20.992-20.992v-28.16z m121.856 0c0-11.264-9.216-20.992-20.992-20.992H660.48c-11.264 0-20.992 9.216-20.992 20.992v28.16c0 11.264 9.216 20.992 20.992 20.992h28.16c11.264 0 20.992-9.216 20.992-20.992v-28.16z m121.856 0c0-11.264-9.216-20.992-20.992-20.992h-28.16c-11.264 0-20.992 9.216-20.992 20.992v28.16c0 11.264 9.216 20.992 20.992 20.992h28.16c11.264 0 20.992-9.216 20.992-20.992v-28.16z m0 0M957.44 216.576l35.328 43.52-3.584 8.704c-3.584 12.288-8.704 23.04-15.872 33.28-5.632 10.752-12.288 18.944-18.944 28.16L947.2 337.92l-54.272-7.168c-10.752 0-23.04 7.168-26.112 17.408l-17.408 50.688-10.752 1.536c-28.16 5.632-57.344 5.632-85.504 0l-8.704-1.536-18.944-52.736c-3.584-10.752-15.872-17.408-26.112-15.872l-52.736 8.704-7.168-7.168c-15.872-18.944-26.112-40.448-35.328-63.488l-3.584-8.704 35.328-41.984c7.168-8.704 7.168-23.04 0-31.232l-35.328-41.984 3.584-8.704c3.584-12.288 8.704-24.576 15.872-35.328 5.632-10.752 12.288-18.944 18.944-28.16l7.168-7.168 54.272 8.704c10.752 1.536 23.04-5.632 26.112-15.872l17.408-52.736 10.752-1.536c28.16-7.168 59.392-7.168 87.552 0l8.704 1.536 17.408 52.736c3.584 10.752 15.872 17.408 26.112 15.872l52.736-8.704 7.168 8.704c13.824 17.408 26.112 38.4 33.28 61.44l3.584 8.704-33.28 40.448c-7.68 9.728-7.68 23.552-0.512 32.256z m-159.744-86.016c-39.936 0-70.656 30.72-70.656 70.656 0 39.936 30.72 70.656 70.656 70.656 39.936 0 70.656-30.72 70.656-70.656 0-40.448-30.72-70.656-70.656-70.656z m0 0M779.776 208.384m-228.864 0a228.864 228.864 0 1 1 457.728 0 228.864 228.864 0 1 1-457.728 0ZM773.12 287.232v47.104c0 12.288-14.848 18.432-23.552 9.728L660.48 255.488c-5.632-5.632-5.632-14.336 0-19.456l89.088-89.088c8.704-8.704 23.552-2.56 23.552 9.728v51.2c31.744 0 89.088 3.584 89.088-74.752 0-38.912-30.72-71.168-71.168-78.848 65.024 8.192 107.008 77.824 107.008 118.784 0.512 96.256-101.376 113.664-124.928 114.176z m0 0"  horiz-adv-x="1024" />

    
    <glyph glyph-name="zhongxinkaifa" unicode="&#58962;" d="M602.624 34.304c-7.68 9.216-15.872 19.968-23.04 33.28-8.192 12.8-14.848 27.648-19.456 43.008l-12.8 31.744 40.96 49.664-40.96 49.664 13.312 33.28c11.776 30.72 25.088 54.272 41.984 75.264l1.024 1.536 25.088 25.088 57.856-9.728 22.016 60.416 33.792 6.656c33.28 6.144 68.608 6.144 102.4 0l36.352-6.144 20.992-61.44 3.584 0.512V502.784H16.896v-434.688c0-25.088 20.48-45.056 45.056-45.056h551.936l-9.728 9.728-1.536 1.536z m-506.88 227.328L217.088 148.48c9.216-8.704 9.728-23.04 1.024-31.744-4.096-4.608-10.752-7.168-16.384-7.168s-11.264 1.536-15.36 6.144l-122.88 114.176c-8.704 7.68-13.312 19.968-13.312 33.28s4.608 25.6 13.312 33.28L185.856 409.6c9.216 8.704 23.552 8.192 31.744-1.024 8.704-9.216 8.192-23.552-1.024-31.744l-121.856-113.152c1.024-0.512 1.024-1.536 1.024-2.048z m236.032 138.24l-55.808-283.136c-2.048-11.264-11.264-18.432-22.016-18.432-1.536 0-3.072 0-4.096 0.512-12.288 2.56-20.48 14.336-17.92 26.112l55.808 283.136c2.56 12.288 14.336 20.48 26.112 17.92 12.288-2.048 19.968-13.824 17.92-26.112z m168.448-170.496l-122.88-114.176c-4.096-3.584-9.728-6.144-15.36-6.144-6.144 0-12.288 2.56-16.384 7.168-8.704 9.216-8.192 23.552 1.024 31.744L468.48 261.12v3.072l-121.344 113.152c-9.216 8.704-9.728 23.04-1.024 31.744 8.704 9.216 23.04 9.728 31.744 1.024l122.88-114.176c8.704-7.68 13.312-19.968 13.312-33.28s-5.12-25.088-13.824-33.28z m407.04 478.72c0 25.088-20.48 45.056-45.056 45.056H61.952c-25.088 0-45.056-20.48-45.056-45.056V547.84h890.368V708.096z m-320-69.632c0-11.264-9.216-20.992-20.992-20.992h-28.16c-11.264 0-20.992 9.216-20.992 20.992v28.16c0 11.264 9.216 20.992 20.992 20.992h28.16c11.264 0 20.992-9.216 20.992-20.992v-28.16z m121.856 0c0-11.264-9.216-20.992-20.992-20.992H660.48c-11.264 0-20.992 9.216-20.992 20.992v28.16c0 11.264 9.216 20.992 20.992 20.992h28.16c11.264 0 20.992-9.216 20.992-20.992v-28.16z m121.856 0c0-11.264-9.216-20.992-20.992-20.992h-28.16c-11.264 0-20.992 9.216-20.992 20.992v28.16c0 11.264 9.216 20.992 20.992 20.992h28.16c11.264 0 20.992-9.216 20.992-20.992v-28.16z m0 0M957.44 206.336l35.328 43.52-3.584 8.704c-3.584 12.288-8.704 23.04-15.872 33.28-5.632 10.752-12.288 18.944-18.944 28.16L947.2 327.68l-54.272-7.168c-10.752 0-23.04 7.168-26.112 17.408l-17.408 50.688-10.752 1.536c-28.16 5.632-57.344 5.632-85.504 0l-8.704-1.536-18.944-52.736c-3.584-10.752-15.872-17.408-26.112-15.872l-52.736 8.704-7.168-7.168c-15.872-18.944-26.112-40.448-35.328-63.488l-3.584-8.704 35.328-41.984c7.168-8.704 7.168-23.04 0-31.232l-35.328-41.984 3.584-8.704c3.584-12.288 8.704-24.576 15.872-35.328 5.632-10.752 12.288-18.944 18.944-28.16l7.168-7.168 54.272 8.704c10.752 1.536 23.04-5.632 26.112-15.872l17.408-52.736 10.752-1.536c28.16-7.168 59.392-7.168 87.552 0l8.704 1.536 17.408 52.736c3.584 10.752 15.872 17.408 26.112 15.872l52.736-8.704 7.168 8.704c13.824 17.408 26.112 38.4 33.28 61.44l3.584 8.704-33.28 40.448c-7.68 9.728-7.68 23.552-0.512 32.256z m-159.744-86.016c-39.936 0-70.656 30.72-70.656 70.656 0 39.936 30.72 70.656 70.656 70.656 39.936 0 70.656-30.72 70.656-70.656 0-40.448-30.72-70.656-70.656-70.656z m0 0M779.776 198.144m-228.864 0a228.864 228.864 0 1 1 457.728 0 228.864 228.864 0 1 1-457.728 0ZM780.8 300.544v19.968l-74.24-46.08 74.24-46.08v34.816c36.864-8.192 64.512-41.472 64.512-80.896 0-45.568-37.376-83.456-83.456-83.456-45.568 0-83.456 37.376-83.456 83.456 0 10.24-8.192 18.432-18.432 18.432s-18.432-8.192-18.432-18.432c0-66.048 54.272-120.32 120.32-120.32s120.32 54.272 120.32 120.32c0 59.392-44.032 109.568-101.376 118.272z m0 0"  horiz-adv-x="1024" />

    
    <glyph glyph-name="jiechubangding" unicode="&#58963;" d="M1007.104 360.448c0.512 8.704 0.512 16.896 0.512 25.6 0 82.944-20.48 160.768-56.32 229.888C868.352 775.68 701.44 884.736 508.928 884.736 259.584 884.736 52.736 701.44 15.872 461.824c-1.024-7.168-2.048-14.336-2.56-21.504 0-1.024-0.512-2.048-0.512-3.072-1.536-16.896-2.56-33.792-2.56-51.2 0-83.456 20.48-162.304 56.832-231.424 83.456-158.72 249.856-267.264 441.856-267.264 8.704 0 17.408 0 25.6 0.512 254.976 12.8 459.776 217.6 472.576 472.576z m-120.32-8.704c-1.024-9.728-2.048-19.456-3.584-28.672 0-1.024-0.512-2.048-0.512-3.072-10.752-61.952-36.864-118.784-73.728-166.4l-232.448 232.448L808.96 618.496c36.864-47.616 62.976-104.448 73.728-165.888 0-1.024 0.512-2.048 0.512-3.584 1.536-9.216 2.56-18.944 3.584-28.16 0-1.536 0-3.584 0.512-5.12 0.512-9.728 1.024-18.944 1.024-28.672v-0.512c0-10.24-0.512-19.968-1.024-29.696-0.512-2.048-0.512-3.584-0.512-5.12z m-314.88-339.968c-9.216-1.536-18.944-2.56-28.16-3.584-1.536 0-3.584-0.512-5.12-0.512-9.728-0.512-19.456-1.024-29.184-1.024h-0.512c-10.24 0-19.968 0.512-29.696 1.024-1.536 0-3.072 0-4.608 0.512-9.728 1.024-19.456 2.048-28.672 3.584-1.024 0-2.048 0.512-3.072 0.512-61.952 10.752-118.784 36.864-166.4 73.728l232.96 232.96 232.448-232.448c-47.616-37.376-104.448-63.488-166.4-74.24-1.024 0-2.56 0-3.584-0.512z m-437.248 311.296c-1.536 9.216-2.56 18.944-3.584 28.672 0 1.536 0 3.072-0.512 5.12-0.512 9.728-1.024 19.456-1.024 29.184 0 10.24 0.512 19.968 1.024 29.696 0 1.536 0 3.072 0.512 4.608 1.024 9.728 2.048 19.456 3.584 29.184l0.512 3.072c10.752 61.952 37.376 119.296 74.24 166.912l232.96-232.96L209.92 153.088c-37.376 47.616-63.488 104.448-74.24 166.912-0.512 1.024-0.512 2.048-1.024 3.072z m311.296 437.248c9.216 1.536 18.944 2.56 28.16 3.584 1.536 0 3.584 0 5.12 0.512 9.728 0.512 19.456 1.024 29.184 1.024h0.512c10.24 0 19.968-0.512 30.208-1.024 1.536 0 3.072 0 4.608-0.512 9.728-1.024 19.456-2.048 29.184-3.584l2.56-0.512c61.952-11.264 119.296-37.376 166.912-74.24L509.44 453.12 276.48 685.568c47.616 36.864 104.448 62.976 166.4 73.728 1.024 0.512 2.048 1.024 3.072 1.024z m0 0"  horiz-adv-x="1024" />

    
    <glyph glyph-name="shanchusaoma" unicode="&#58964;" d="M511.488 879.616C237.568 879.616 15.36 657.408 15.36 383.488 15.36 109.568 237.568-112.64 511.488-112.64c273.92 0 496.128 222.208 496.128 496.128 0 273.92-222.208 496.128-496.128 496.128zM186.88 574.464c0 73.728 59.904 133.632 133.632 133.632h64.512a34.304 34.304 0 0 0 0-68.608H320c-35.84 0-65.024-29.184-65.024-65.024v-63.488a34.304 34.304 0 0 0-68.608 0V574.464zM384 58.88H320c-73.728 0-133.632 59.904-133.632 133.632v49.152a34.304 34.304 0 0 0 68.608 0v-49.152c0-35.84 29.184-65.024 65.024-65.024H384a34.304 34.304 0 0 0 0-68.608z m-153.088 290.304a34.304 34.304 0 0 0 0 68.608h561.152a34.304 34.304 0 0 0 0-68.608H230.912z m605.184-157.184c0-73.728-59.904-133.632-133.632-133.632h-64a34.304 34.304 0 0 0 0 68.608h64c35.84 0 65.024 29.184 65.024 65.024v49.152a34.304 34.304 0 0 0 68.608 0v-49.152z m0 317.952a34.304 34.304 0 0 0-68.608 0V574.464c0 35.84-29.184 65.024-65.024 65.024h-64a34.304 34.304 0 0 0 0 68.608h64c73.728 0 133.632-59.904 133.632-133.632v-64.512z m0 0"  horiz-adv-x="1024" />

    
    <glyph glyph-name="querenguanlian" unicode="&#58965;" d="M511.488 879.616C237.568 879.616 15.36 657.408 15.36 383.488 15.36 109.568 237.568-112.64 511.488-112.64c273.92 0 496.128 222.208 496.128 496.128S785.408 879.616 511.488 879.616z m-27.136-722.432l-29.696-28.672c-27.136-26.112-62.464-39.424-98.304-39.424s-71.168 13.312-98.304 39.424c-26.112 25.6-40.96 59.392-40.96 95.232 0 35.84 14.336 70.144 40.96 95.744l109.568 105.984c68.096 66.048 146.432 75.264 199.68 24.064 14.336-13.824 14.336-36.352 0-50.176-14.336-13.824-37.376-13.824-51.712 0-31.232 30.208-73.728-2.048-96.768-24.064l-109.568-105.984c-12.288-11.776-19.456-28.16-19.456-45.056 0-16.896 6.656-32.768 19.456-45.056 25.6-25.088 68.096-25.088 93.696 0l29.696 28.672c14.336 13.824 37.376 13.824 51.712 0 14.336-14.336 14.336-36.864 0-50.688z m281.088 271.872l-117.248-113.152c-36.352-34.816-74.24-52.736-110.08-52.736-29.184 0-57.344 11.776-81.92 35.328-14.336 13.824-14.336 36.352 0 50.176 14.336 13.824 37.376 13.824 51.712 0 10.752-10.24 35.84-34.816 89.6 16.896l117.248 113.152c12.288 11.776 19.456 28.16 19.456 45.056 0 16.896-6.656 32.768-19.456 45.056-23.552 22.528-58.88 33.28-86.528 7.168l-37.376-35.84c-14.336-13.824-37.376-13.824-51.712 0s-14.336 36.352 0 50.176l37.376 35.84c52.736 51.2 132.096 48.128 189.44-7.168 26.112-25.6 40.96-59.392 40.96-95.232-1.024-35.328-15.36-69.12-41.472-94.72z m0 0"  horiz-adv-x="1024" />

    
    <glyph glyph-name="renwuzhipai" unicode="&#58966;" d="M100.352 120.832h284.672v-48.64c9.728-9.728 23.552-9.728 33.28 0l56.832 57.344c7.68 7.168 7.68 23.04-2.048 30.72l-56.832 57.344c-9.728 9.728-23.552 9.728-33.28 0v-48.64H100.352c-9.728 0-15.36-6.656-15.36-15.36v-15.36c-0.512-11.264 5.632-17.408 15.36-17.408z m604.672 243.2c73.216 45.056 121.856 124.928 121.856 216.064 0.512 139.264-113.152 253.44-252.928 253.44-139.264 0-252.928-113.664-252.928-253.44 0-91.648 49.152-171.52 121.856-216.064-91.136-28.16-169.984-85.504-225.792-162.816h135.68V230.4l9.728 9.728c11.264 11.264 23.552 15.36 39.424 15.36 15.36 0 28.672-6.656 39.424-15.36l56.832-57.344c22.016-22.016 22.016-57.344 0-77.312l-58.368-55.296c-11.264-11.264-23.552-15.36-39.424-15.36-5.632 0-10.752 1.536-15.36 3.072v-8.192c0-14.336-5.12-27.136-15.36-36.864l-50.176-50.688s-1.536-1.536-3.072-1.536h701.44c-1.024 194.048-126.976 365.568-312.832 423.424z m-131.072 382.976c-9.728 0-15.36 6.656-15.36 15.36 0 9.728 6.656 15.36 15.36 15.36 9.728 0 15.36-6.656 15.36-15.36 1.024-9.728-5.632-15.36-15.36-15.36z m58.368-11.776c-8.192 3.072-12.8 13.312-9.728 20.48 3.072 8.192 13.312 13.312 20.48 9.728 66.048-23.552 114.176-82.432 126.464-152.064 5.12-27.136 3.072-53.76-3.072-80.896-2.56-6.144-9.216-10.752-15.36-10.752h-3.072c-8.192 1.536-14.336 11.776-11.264 18.944 5.12 22.016 6.656 45.568 1.536 68.096-9.216 58.368-50.176 107.52-105.984 126.464zM348.16 41.472l-50.176 50.688c-7.68 8.192-19.968 8.192-28.16 0.512l-0.512-0.512v-43.008H19.456c-8.192-1.536-14.336-8.192-14.336-15.872v-14.336c0-7.68 6.144-14.336 13.824-14.336h250.368v-43.008c7.68-8.192 19.968-8.192 28.16-0.512l0.512 0.512 50.176 50.688c7.68 8.704 7.68 20.992 0 29.184z m0 0"  horiz-adv-x="1024" />

    
    <glyph glyph-name="shengchengdingdan" unicode="&#58967;" d="M202.24 402.944c0 6.144 6.144 12.8 12.8 12.8h500.736c6.144 0 12.8-6.144 12.8-12.8v-18.944c0-6.144-6.144-12.8-12.8-12.8H215.04c-6.144-6.144-12.8 0-12.8 6.144v25.6z m95.232 139.264c0 6.144 6.144 12.8 12.8 12.8h405.504c6.144 0 12.8-6.144 12.8-12.8v-18.944c0-6.144-6.144-12.8-12.8-12.8H309.76c-6.144 0-12.8 6.144-12.8 12.8v18.944z m265.728-316.416H215.04c-6.144 0-12.8 6.144-12.8 12.8v18.944c0 6.144 6.144 12.8 12.8 12.8h367.616c18.944 0 31.744 6.144 50.688 12.8 37.888 18.944 82.432 31.744 120.32 31.744 50.688 0 95.232 37.888 95.232 88.576V656.384c0 25.088-12.8 50.688-25.088 63.488L684.032 859.136c-18.944 18.944-37.888 25.088-63.488 25.088h-399.36C138.752 890.88 81.92 833.536 81.92 751.616v-677.888c0-75.776 63.488-139.264 139.264-139.264H430.08c56.832 0 95.232 50.688 88.576 107.52v37.888c-6.144 50.688 13.312 101.376 44.544 145.92z m291.84-196.608c0-12.8-12.8-25.088-25.088-25.088h-95.232c-12.8 0-25.088 12.8-25.088 25.088L640 149.504c0 12.8 12.8 25.088 25.088 25.088 12.8 0 25.088-12.8 25.088-25.088l12.8-25.088H855.04c12.8 0 25.088-12.8 25.088-25.088l-25.088-70.144z m-50.688-95.232c-12.8 0-25.088 12.8-25.088 25.088 0 12.8 12.8 25.088 25.088 25.088 12.8 0 25.088-12.8 25.088-25.088 0-12.288-12.8-25.088-25.088-25.088z m-76.288 0c-12.8 0-25.088 12.8-25.088 25.088 0 12.8 12.8 25.088 25.088 25.088 12.8 0 25.088-12.8 25.088-25.088 0.512-12.288-6.144-25.088-25.088-25.088z m120.32 310.784c-31.744 12.8-63.488 25.088-95.232 25.088-107.52 0-196.608-88.576-196.608-189.952 0-50.688 18.944-95.232 50.688-133.12l12.8-12.8c37.888-31.744 82.432-50.688 126.464-50.688 107.52 0 196.608 88.576 196.608 189.952 6.656 76.288-31.232 139.776-94.72 171.52z m0 0"  horiz-adv-x="1024" />

    
    <glyph glyph-name="quxiaomaiyang" unicode="&#58968;" d="M816.128 876.032H59.392c-26.624 0-48.128-22.016-48.128-49.152v-791.552c0.512-20.48 10.24-39.424 26.624-51.2 1.536-2.56 3.584-4.608 6.144-6.656l72.704-65.024c8.704-7.68 19.968-11.776 31.744-11.776 11.776 0 23.04 4.096 31.744 11.776l62.976 55.808L305.664-87.04c8.704-7.68 19.968-11.776 31.744-11.776 11.776 0 23.04 4.096 32.256 11.776l62.464 55.296L501.248-87.04c14.336-11.776 34.304-14.336 51.2-6.656-108.032 86.016-144.896 233.984-89.6 360.96 67.584 154.112 247.296 224.256 401.408 156.672V826.88c0.512 27.136-21.504 49.152-48.128 49.152zM304.64 250.368H132.096c-12.8 0-23.552 11.264-23.552 24.064 0 13.312 10.24 24.064 23.552 24.064h172.544c12.8-0.512 23.552-10.752 23.552-24.064s-10.24-24.064-23.552-24.064zM353.28 442.88H132.608c-13.312 0-23.552 11.264-23.552 24.064v0.512c0 13.312 10.752 23.552 23.552 23.552H353.28c13.312 0 23.552-10.752 23.552-24.064s-10.24-24.064-23.552-24.064z m97.28 216.576H133.12c-13.312 0-24.064 11.264-24.064 24.064v0.512c0 13.312 10.752 24.064 24.064 23.552h317.44c13.312 0 24.064-10.752 24.064-24.064s-10.752-24.064-24.064-24.064zM754.688 137.216m-253.952 0a253.952 253.952 0 1 1 507.904 0 253.952 253.952 0 1 1-507.904 0ZM747.008 224.768v52.736c0 13.824-16.384 20.48-26.112 10.752L621.568 189.44c-6.144-6.144-6.144-15.872 0-21.504l98.816-98.816c9.728-9.728 26.112-2.56 26.112 10.752v56.832c35.328 0 99.328 4.096 99.328-82.944 0-43.008-33.792-79.36-78.848-87.552 72.192 8.704 119.296 86.016 119.296 132.096 0 106.496-113.152 125.952-139.264 126.464z m0 0"  horiz-adv-x="1024" />

    
    <glyph glyph-name="querendaoyang" unicode="&#58969;" d="M823.296 888.32h-768c-26.624 0-49.152-22.528-49.152-49.664v-803.84c0.512-20.48 10.24-39.936 27.136-52.224 1.536-2.56 3.584-4.608 6.144-6.656l74.24-66.048c8.704-7.68 20.48-11.776 32.256-11.776s23.552 4.096 32.256 11.776l64 56.832 62.976-56.32c8.704-7.68 20.48-11.776 32.256-11.776s23.552 4.096 32.768 11.776l62.976 56.32 70.656-56.32c14.848-11.776 34.816-14.336 52.224-7.168-109.568 87.552-146.944 237.568-90.624 366.08 68.608 156.672 250.88 227.84 407.552 159.232V838.656c-0.512 27.648-22.528 49.664-49.664 49.664zM304.128 252.928H129.024c-13.312 0-24.064 11.264-24.064 24.576 0 13.312 10.752 24.064 24.064 24.576h175.104c13.312-0.512 24.064-11.264 24.064-24.576 0-13.312-10.752-24.064-24.064-24.576zM353.28 448.512H129.536c-13.312 0-24.064 11.264-24.064 24.576v0.512c0 13.312 10.752 24.064 24.064 24.064H353.28c13.312 0 24.064-11.264 24.064-24.576 0-13.824-10.24-24.576-24.064-24.576z m98.816 219.648h-322.56c-13.312 0-24.576 11.264-24.576 24.576v0.512c0 13.312 10.752 24.064 24.576 24.064h322.56c13.312 0 24.064-11.264 24.576-24.576 0-13.312-10.752-24.576-24.576-24.576zM760.832 138.24m-258.048 0a258.048 258.048 0 1 1 516.096 0 258.048 258.048 0 1 1-516.096 0ZM898.56 188.928l-169.984-173.056c-4.096-4.096-9.728-6.656-15.872-6.656-6.144 0-11.776 2.56-15.872 6.656l-96.256 97.792c-4.096 4.096-6.656 9.728-6.656 15.872 0 12.288 9.728 22.528 22.016 22.528 6.144 0 11.776-2.56 15.872-6.656l80.384-81.92 154.624 157.184c4.096 4.096 9.728 6.656 15.872 6.656 12.288 0 22.528-10.24 22.016-22.528 0.512-6.144-2.048-11.776-6.144-15.872z m0 0"  horiz-adv-x="1024" />

    
    <glyph glyph-name="tianyancha" unicode="&#59208;" d="M902.4 467.2c0 19.2 25.6 179.2-211.2 166.4-326.4-25.6-544-384-588.8-505.6C-44.8 358.4 25.6 659.2 256 806.4c166.4 102.4 384 96 544-12.8-32 0-243.2 51.2-454.4-102.4 339.2 140.8 531.2 44.8 569.6-12.8 70.4-102.4 19.2-192-12.8-211.2zM1011.2 384c0-83.2-19.2-166.4-64-243.2-192-64-332.8 64-358.4 128 160-89.6 364.8 6.4 416 172.8 6.4-19.2 6.4-38.4 6.4-57.6zM582.4-102.4c-19.2 0-44.8-6.4-64-6.4-147.2 0-288 64-384 179.2 19.2 70.4 128 345.6 435.2 499.2-89.6-115.2-185.6-390.4 12.8-672zM524.8 390.4c6.4-179.2 166.4-352 377.6-313.6-64-76.8-153.6-134.4-256-160-51.2 44.8-179.2 236.8-121.6 473.6z"  horiz-adv-x="1024" />

    
    <glyph glyph-name="cankaolianjie" unicode="&#59209;" d="M998.4 627.2l-224 198.4c-12.8 12.8-25.6 12.8-44.8 12.8H294.4c-12.8 0-32-6.4-44.8-12.8L25.6 627.2c-12.8-12.8-19.2-25.6-19.2-44.8v-121.6c0-19.2 6.4-32 19.2-44.8l441.6-441.6c12.8-12.8 25.6-19.2 44.8-19.2 19.2 0 32 6.4 44.8 19.2l441.6 441.6c19.2 12.8 25.6 32 25.6 44.8V582.4c0 19.2-12.8 32-25.6 44.8z m-460.8-384c-115.2 0-179.2 89.6-179.2 185.6 0 70.4 32 128 89.6 172.8 44.8 38.4 102.4 51.2 134.4 51.2 38.4 0 70.4-12.8 83.2-25.6 12.8-12.8 12.8-19.2 12.8-25.6 0-19.2-25.6-38.4-32-38.4-6.4 0-6.4 0-19.2 6.4-25.6 32-51.2 44.8-83.2 44.8-57.6 0-108.8-51.2-108.8-140.8 0-121.6 83.2-166.4 134.4-166.4 38.4 0 70.4 12.8 108.8 51.2l12.8-19.2c-38.4-57.6-102.4-96-153.6-96z"  horiz-adv-x="1024" />

    
    <glyph glyph-name="gongyingshanglianjie" unicode="&#59210;" d="M992 614.4L768 812.8c-12.8 12.8-25.6 12.8-44.8 12.8H288c-19.2 0-32-6.4-44.8-12.8L19.2 614.4c-12.8-12.8-19.2-32-19.2-51.2V448c0-19.2 6.4-32 19.2-44.8l441.6-441.6c12.8-12.8 25.6-19.2 44.8-19.2 19.2 0 32 6.4 44.8 19.2l441.6 441.6c12.8 12.8 19.2 25.6 19.2 44.8V563.2c6.4 19.2-6.4 38.4-19.2 51.2z m-268.8-12.8c-51.2-6.4-57.6-12.8-76.8-70.4-32-70.4-83.2-192-128-313.6h-25.6c-38.4 108.8-83.2 211.2-128 320-19.2 51.2-25.6 57.6-76.8 64v25.6h185.6v-25.6c-44.8-6.4-51.2-12.8-32-51.2 25.6-64 57.6-160 83.2-217.6 32 76.8 64 153.6 83.2 211.2 12.8 44.8 12.8 51.2-44.8 57.6v25.6h160v-25.6z"  horiz-adv-x="1024" />

    
    <glyph glyph-name="caiyanglianjie" unicode="&#59211;" d="M998.4 601.6l-224 198.4c-12.8 12.8-25.6 12.8-44.8 12.8H294.4c-12.8 0-32-6.4-44.8-12.8L25.6 601.6c-12.8-12.8-19.2-32-19.2-44.8v-121.6c0-19.2 6.4-32 19.2-44.8l441.6-441.6c12.8-12.8 32-19.2 44.8-19.2 19.2 0 32 6.4 44.8 19.2l441.6 441.6c19.2 12.8 25.6 25.6 25.6 44.8V556.8c0 12.8-12.8 32-25.6 44.8z m-492.8-371.2c-44.8 0-89.6 12.8-108.8 25.6 0 25.6-6.4 76.8-12.8 102.4l25.6 6.4c19.2-57.6 44.8-108.8 108.8-108.8 32 0 64 25.6 64 64S556.8 384 512 403.2c-57.6 25.6-115.2 57.6-115.2 121.6 0 64 57.6 115.2 140.8 115.2 38.4 0 70.4-6.4 89.6-6.4 0-19.2 6.4-76.8 12.8-102.4l-25.6-6.4c-19.2 51.2-44.8 89.6-96 89.6-32 0-57.6-25.6-57.6-57.6 0-38.4 32-57.6 76.8-76.8 70.4-32 115.2-64 115.2-121.6 0-89.6-76.8-128-147.2-128z"  horiz-adv-x="1024" />

    
    <glyph glyph-name="ren" unicode="&#59212;" d="M722.214619 604.566096l6.37014-6.37014 6.37014-6.37014v-12.740279c0-31.8507-6.37014-57.33126-12.74028-76.44168-6.37014-19.11042-19.11042-31.8507-31.8507-44.59098-12.74028-38.22084-25.48056-70.07154-38.22084-101.922239-19.11042-25.48056-44.59098-50.96112-82.811819-70.07154-12.74028 0-57.33126-6.37014-95.5521-6.37014s-76.44168 6.37014-95.552099 12.74028c-31.8507 12.74028-57.33126 44.59098-76.44168 76.44168-12.74028 25.48056-25.48056 57.33126-38.22084 89.181959-12.74028 12.74028-25.48056 25.48056-31.8507 44.59098-12.74028 19.11042-12.74028 50.96112-12.74028 82.81182v12.740279l6.37014 6.37014s6.37014 0 6.37014 6.37014c-12.74028 127.402799-6.37014 171.993779 38.22084 229.325039C365.486781 916.702955 575.7014 910.332815 664.883359 846.631415c70.07154-70.07154 76.44168-133.772939 57.33126-242.065319z m-191.104199-369.468118v-31.8507l-19.11042-25.480559 25.48056-159.2535 101.922239 210.214619 152.88336 6.37014c76.44168-76.44168 127.402799-248.435459 114.662519-363.097978H59.720062c0 101.92224 19.11042 267.545879 121.03266 356.727838h133.772939l127.402799-210.214619 25.48056 159.2535-19.11042 31.850699v31.8507c38.22084 0 44.59098 0 82.81182-6.37014zM639.402799 649.157076c-57.33126-6.37014-146.513219-19.11042-216.584759 19.11042-25.48056 19.11042-70.07154-12.74028-101.922239-12.74028-6.37014-19.11042-19.11042-38.22084-19.11042-63.7014l-6.37014-19.110419h-19.11042-12.74028H257.194401c0-19.11042 6.37014-38.22084 6.37014-50.96112l25.48056-25.48056 12.74028-6.37014v-12.74028c12.74028-31.8507 25.48056-63.7014 38.22084-89.18196 12.74028-25.48056 31.8507-44.59098 57.33126-57.331259 12.74028-6.37014 44.59098-6.37014 76.441679-6.37014 38.22084 0 70.07154 0 82.81182 6.37014 25.48056 12.74028 44.59098 31.8507 63.701399 57.331259 19.11042 25.48056 25.48056 63.7014 38.22084 101.92224v12.74028l12.74028 6.37014c6.37014 0 12.74028 12.74028 19.11042 25.48056 6.37014 12.74028 6.37014 31.8507 6.37014 50.96112H658.513219l-6.37014 19.110419c6.37014 6.37014 0 25.48056-12.74028 44.59098z"  horiz-adv-x="1024" />

    
    <glyph glyph-name="QQ" unicode="&#59213;" d="M915.2 115.2c-12.8-19.2-57.6 6.4-89.6 70.4-6.4-32-25.6-76.8-70.4-134.4 76.8-19.2 96-89.6 70.4-128-19.2-25.6-57.6-51.2-128-51.2-121.6 0-179.2 32-204.8 57.6-6.4 6.4-12.8 6.4-19.2 6.4-12.8 0-12.8 0-19.2-6.4-25.6-25.6-76.8-57.6-204.8-57.6-70.4 0-108.8 25.6-128 51.2-25.6 38.4-6.4 115.2 70.4 128-44.8 57.6-64 108.8-70.4 134.4-32-64-70.4-89.6-89.6-70.4-12.8 19.2-19.2 57.6-12.8 83.2 0 96 64 179.2 108.8 224-6.4 6.4-19.2 83.2 32 128v6.4c0 192 140.8 332.8 313.6 332.8s313.6-140.8 313.6-332.8v-6.4c51.2-51.2 38.4-121.6 32-134.4 38.4-44.8 102.4-128 115.2-224 0-19.2-6.4-57.6-19.2-76.8z"  horiz-adv-x="1024" />

    
    <glyph glyph-name="weixin" unicode="&#59214;" d="M697.6 550.4h32c-32 147.2-185.6 256-364.8 256C166.4 800 0 665.6 0 492.8c0-102.4 51.2-179.2 147.2-243.2l-38.4-108.8 128 64c44.8-6.4 83.2-19.2 128-19.2h32c-6.4 25.6-12.8 51.2-12.8 76.8 6.4 160 140.8 288 313.6 288zM499.2 646.4c25.6 0 44.8-19.2 44.8-44.8 0-25.6-19.2-44.8-44.8-44.8-25.6 0-51.2 19.2-51.2 44.8 0 25.6 25.6 44.8 51.2 44.8zM249.6 556.8c-32 0-57.6 19.2-57.6 44.8 0 25.6 25.6 44.8 51.2 44.8s44.8-19.2 44.8-44.8c6.4-25.6-12.8-44.8-38.4-44.8zM1024 268.8c0 147.2-147.2 262.4-307.2 262.4-172.8 0-307.2-115.2-307.2-262.4s134.4-262.4 307.2-262.4c38.4 0 70.4 6.4 108.8 19.2l102.4-51.2-32 83.2c76.8 57.6 128 128 128 211.2z m-403.2 44.8c-19.2 0-38.4 19.2-38.4 38.4 0 12.8 19.2 32 38.4 32 25.6 0 44.8-19.2 44.8-38.4s-19.2-32-44.8-32z m198.4 0c-19.2 0-38.4 19.2-38.4 38.4s19.2 38.4 38.4 38.4c25.6 0 44.8-19.2 44.8-38.4 0-25.6-19.2-38.4-44.8-38.4z"  horiz-adv-x="1024" />

    
    <glyph glyph-name="youxiang" unicode="&#59215;" d="M1004.8 19.2L704 364.8l300.8 307.2c0-6.4 6.4-12.8 6.4-19.2v-614.4c0-6.4 0-12.8-6.4-19.2zM614.4 371.2L512 288 416 364.8l-51.2 44.8L64 716.8H960l-300.8-313.6-44.8-32zM19.2 19.2c0 6.4-6.4 12.8-6.4 19.2V652.8c0 6.4 0 12.8 6.4 19.2L320 364.8 19.2 19.2z m492.8 192l147.2 115.2 300.8-352H64l300.8 352L512 211.2z"  horiz-adv-x="1024" />

    
    <glyph glyph-name="zhifufangshi" unicode="&#59216;" d="M966.4-19.2h-19.2V384h25.6c25.6 6.4 44.8 25.6 44.8 51.2 0 6.4 0 19.2-6.4 25.6 0 6.4-6.4 12.8-6.4 12.8L537.6 883.2C531.2 889.6 518.4 896 505.6 896s-19.2-6.4-25.6-12.8L12.8 473.6c-6.4-6.4-6.4-19.2-12.8-25.6 0-12.8 0-25.6 6.4-38.4 6.4-12.8 19.2-19.2 32-25.6H64v-403.2H51.2c-32 0-51.2-25.6-51.2-51.2 0-32 19.2-57.6 51.2-57.6h915.2c25.6 0 51.2 25.6 51.2 51.2 0 32-25.6 57.6-51.2 57.6z m-281.6 486.4c-6.4 0-6.4 0 0 0L569.6 294.4h64c19.2 0 32-6.4 32-25.6 0-12.8-12.8-19.2-32-19.2H537.6v-51.2h96c19.2 0 32-6.4 32-25.6 0-12.8-12.8-19.2-32-19.2H537.6v-108.8c0-19.2-12.8-25.6-32-25.6s-32 6.4-32 25.6v108.8H384c-19.2 0-25.6 6.4-32 19.2 0 19.2 12.8 25.6 32 25.6h96v51.2H384c-19.2 0-25.6 6.4-32 19.2 0 19.2 12.8 25.6 32 25.6h64L332.8 460.8v6.4c-6.4 6.4-6.4 19.2-6.4 25.6 0 12.8 12.8 25.6 25.6 25.6s25.6-6.4 32-19.2l128-185.6 128 185.6c0 12.8 12.8 19.2 25.6 19.2s25.6-12.8 25.6-25.6c0-6.4-6.4-12.8-6.4-25.6z"  horiz-adv-x="1024" />

    
    <glyph glyph-name="yinhangqiazhanghao" unicode="&#59219;" d="M960 729.6H70.4c-25.6 0-51.2-25.6-51.2-51.2v-134.4h992V678.4c0 32-25.6 51.2-51.2 51.2zM19.2 64c0-25.6 25.6-51.2 51.2-51.2H960c25.6 0 51.2 25.6 51.2 51.2V499.2H19.2V64z m646.4 121.6l32 121.6c0 6.4 6.4 12.8 12.8 12.8h198.4c6.4 0 12.8-6.4 12.8-12.8l-32-121.6c0-6.4-6.4-6.4-12.8-6.4h-198.4c-12.8-12.8-12.8-6.4-12.8 6.4 0-6.4 0 0 0 0zM300.8 403.2c0 6.4 6.4 19.2 19.2 19.2h32c6.4 0 19.2-6.4 19.2-19.2v-44.8c0-6.4-6.4-19.2-19.2-19.2h-38.4c-6.4 0-19.2 6.4-19.2 19.2l6.4 44.8zM192 403.2c0 6.4 6.4 19.2 19.2 19.2h32c6.4-6.4 12.8-12.8 12.8-19.2v-44.8c0-6.4-6.4-19.2-19.2-19.2h-25.6c-12.8 0-19.2 6.4-19.2 12.8v51.2z m-102.4 0c0 6.4 6.4 19.2 19.2 19.2h32c6.4 0 19.2-6.4 19.2-19.2v-44.8c0-6.4-6.4-19.2-19.2-19.2h-38.4c-6.4 0-19.2 6.4-19.2 19.2v44.8z"  horiz-adv-x="1024" />

    
    <glyph glyph-name="shenfenzhenghaoma" unicode="&#59220;" d="M908.8 742.4H115.2c-64 0-115.2-57.6-115.2-121.6v-531.2c0-64 51.2-115.2 121.6-115.2h793.6c64 0 121.6 51.2 121.6 115.2V620.8c-12.8 64-64 121.6-128 121.6z m-249.6-236.8h166.4c12.8 0 25.6-19.2 25.6-32s-12.8-32-25.6-32h-166.4c-12.8 0-25.6 19.2-25.6 32s12.8 32 25.6 32z m0-134.4h166.4c12.8 0 25.6-19.2 25.6-32s-12.8-32-25.6-32h-166.4c-12.8 0-25.6 19.2-25.6 32 0 19.2 12.8 32 25.6 32z m-537.6-224c-12.8 0-19.2 12.8-19.2 25.6 12.8 76.8 76.8 140.8 147.2 160-38.4 19.2-64 64-64 108.8 0 70.4 57.6 121.6 121.6 121.6s128-51.2 128-121.6c0-44.8-25.6-89.6-64-108.8 76.8-19.2 134.4-83.2 147.2-166.4 0-12.8-6.4-25.6-19.2-25.6h-6.4m409.6 38.4h-243.2c-12.8 0-25.6 19.2-25.6 32s12.8 32 25.6 32h243.2c12.8 0 25.6-19.2 25.6-32s-12.8-32-25.6-32z"  horiz-adv-x="1036" />

    
    <glyph glyph-name="gongsimingcheng" unicode="&#59221;" d="M518.4 889.6c275.2 0 492.8-224 492.8-492.8 0-275.2-224-492.8-492.8-492.8C243.2-96 25.6 128 25.6 396.8S243.2 889.6 518.4 889.6z m224-736v512l-83.2 70.4-262.4-102.4v-25.6L640 691.2v-576h160v38.4h-57.6zM307.2 313.6l128 25.6v64l-128-32v-57.6z m0-198.4h128v70.4l-128-6.4v-64z m0 96l128 12.8v64l-128-19.2v-57.6z m0 198.4l128 38.4V512l-128-44.8v-57.6zM576 576l-70.4 44.8-275.2-96v-409.6h38.4V505.6l204.8 64v-454.4H576V576z"  horiz-adv-x="1024" />

    
    <glyph glyph-name="kaihuhang" unicode="&#59222;" d="M38.4 384h934.4c25.6 6.4 44.8 25.6 44.8 51.2 0 6.4 0 19.2-6.4 25.6 0 6.4-6.4 12.8-12.8 12.8L544 883.2c-19.2 19.2-44.8 19.2-64 0L19.2 473.6c-6.4-12.8-12.8-19.2-12.8-25.6v-12.8c-6.4-25.6 12.8-44.8 32-51.2z m928-403.2h-19.2V262.4c0 32-25.6 51.2-51.2 51.2-32 0-51.2-25.6-51.2-51.2v-288h-134.4v179.2c0 32-25.6 51.2-51.2 51.2-32 0-51.2-25.6-51.2-51.2v-179.2h-192v179.2c0 32-25.6 51.2-51.2 51.2-32 0-51.2-25.6-51.2-51.2v-179.2H172.8V262.4c0 32-25.6 51.2-51.2 51.2s-51.2-19.2-51.2-51.2v-288H51.2c-32 0-51.2-25.6-51.2-51.2s19.2-51.2 51.2-51.2h915.2c32 0 51.2 25.6 51.2 51.2 6.4 32-19.2 57.6-51.2 57.6z"  horiz-adv-x="1024" />

    
    <glyph glyph-name="kaifabu" unicode="&#59223;" d="M844.8 441.6h76.8V640l-140.8 83.2v-108.8l64-38.4v-134.4zM166.4 563.2v19.2l51.2 25.6V716.8L89.6 640v-198.4h76.8V563.2z m204.8-480v-96l128-57.6 128 57.6v96l-128-51.2c6.4 0-128 51.2-128 51.2zM499.2 883.2C384 883.2 288 787.2 288 672S384 467.2 499.2 467.2c115.2 0 211.2 96 211.2 204.8C704 787.2 608 883.2 499.2 883.2zM185.6 409.6C89.6 409.6 0 320 0 224s83.2-185.6 185.6-185.6 185.6 83.2 185.6 185.6c0 96-83.2 185.6-185.6 185.6z m646.4 0c-102.4 0-185.6-83.2-185.6-185.6s83.2-185.6 185.6-185.6 185.6 83.2 185.6 185.6-83.2 185.6-185.6 185.6z"  horiz-adv-x="1024" />

    
    <glyph glyph-name="gongyinglian" unicode="&#59224;" d="M300.8 179.2l38.4 19.2 147.2-83.2V320l-32 12.8-147.2 83.2v-166.4l-32-19.2-121.6 70.4-147.2-83.2v-166.4l147.2-83.2 147.2 83.2v128z m448 51.2l-32 19.2V416L544 320v-198.4l147.2 83.2 38.4-19.2v-128l147.2-83.2 147.2 83.2v166.4l-147.2 83.2c-6.4-6.4-128-76.8-128-76.8zM339.2 467.2L512 364.8l32 19.2 147.2 83.2-147.2 83.2v19.2l115.2 64V800L512 889.6 371.2 800v-166.4l115.2-64v-19.2L339.2 467.2z"  horiz-adv-x="1024" />

    
    <glyph glyph-name="piliangshangchuan" unicode="&#59225;" d="M998.4 332.8c-38.4 121.6-147.2 179.2-256 160-38.4 128-134.4 217.6-256 217.6-140.8 0-249.6-128-268.8-294.4-64 25.6-128 19.2-172.8-38.4-44.8-51.2-51.2-134.4-25.6-211.2 12.8-51.2 51.2-76.8 96-76.8h793.6c51.2 0 89.6 44.8 102.4 102.4 0 44.8 0 96-12.8 140.8z m-371.2 25.6H576c-6.4 0-12.8-6.4-12.8-12.8v-134.4c0-6.4-6.4-12.8-12.8-12.8H467.2c-6.4 0-12.8 6.4-12.8 12.8V345.6c0 6.4-6.4 12.8-12.8 12.8h-51.2c-12.8 0-19.2 12.8-12.8 25.6l115.2 147.2c6.4 6.4 19.2 6.4 25.6 0L633.6 384c12.8-6.4 6.4-25.6-6.4-25.6z"  horiz-adv-x="1024" />

    
    <glyph glyph-name="fangxiang" unicode="&#59226;" d="M512 870.4C236.8 870.4 19.2 646.4 19.2 377.6s224-492.8 492.8-492.8 492.8 224 492.8 492.8S780.8 870.4 512 870.4z m281.6-505.6c0-6.4-6.4-6.4-6.4-12.8l-185.6-185.6c-12.8-12.8-32-12.8-44.8 0-12.8 12.8-12.8 32 0 44.8l128 128H249.6c-19.2 0-32 12.8-32 32s12.8 32 32 32h441.6l-128 128c-12.8 19.2-12.8 44.8 0 51.2 12.8 12.8 32 12.8 44.8 0l185.6-185.6c6.4-6.4 6.4-12.8 6.4-25.6 0 6.4-6.4 0-6.4-6.4z"  horiz-adv-x="1024" />

    
    <glyph glyph-name="zhongxinshangchuan" unicode="&#59227;" d="M960-121.6H64c-25.6 0-51.2 25.6-51.2 51.2v172.8c0 25.6 25.6 51.2 51.2 51.2s51.2-25.6 51.2-51.2v-121.6h793.6v121.6c0 25.6 25.6 51.2 51.2 51.2s51.2-25.6 51.2-51.2v-172.8c0-25.6-19.2-51.2-51.2-51.2zM512 89.6c-25.6 0-51.2 25.6-51.2 51.2V832c0 25.6 25.6 51.2 51.2 51.2s51.2-25.6 51.2-51.2v-691.2c0-32-19.2-51.2-51.2-51.2zM825.6 467.2c-12.8 0-25.6 6.4-38.4 12.8L473.6 793.6c-19.2 19.2-19.2 51.2 0 70.4 19.2 19.2 51.2 19.2 70.4 0l313.6-313.6c19.2-19.2 19.2-51.2 0-70.4-6.4-6.4-19.2-12.8-32-12.8zM204.8 467.2c-12.8 0-32 6.4-38.4 12.8-19.2 19.2-19.2 51.2 0 70.4L480 864c19.2 19.2 51.2 19.2 70.4 0 19.2-19.2 19.2-51.2 0-70.4L236.8 480c-6.4-6.4-19.2-12.8-32-12.8z"  horiz-adv-x="1024" />

    
    <glyph glyph-name="fuzhi" unicode="&#59228;" d="M563.2 505.6h-192c-12.8 0-25.6-12.8-25.6-25.6 0-19.2 12.8-32 25.6-32h192v-185.6c0-19.2 12.8-32 25.6-32s25.6 12.8 25.6 32V448h192c12.8 0 25.6 12.8 25.6 25.6s-12.8 25.6-25.6 25.6h-192v192c0 19.2-12.8 32-25.6 32s-25.6-19.2-25.6-32v-185.6z m-384 217.6H19.2v-812.8H832v160h160V883.2H179.2v-160z m601.6-652.8v-108.8h-704v704h108.8v-595.2h595.2zM236.8 832h704v-704h-704V832z"  horiz-adv-x="1024" />

    
    <glyph glyph-name="tupianshangchuan" unicode="&#59229;" d="M716.8 627.2s96 0 96-96c0 0 6.4-89.6-96-96 0 0-96 0-89.6 96 0 6.4-6.4 89.6 89.6 96zM953.6 723.2v-390.4s-6.4 0-6.4 6.4c-12.8 6.4-25.6 12.8-44.8 12.8V774.4s51.2-6.4 51.2-51.2zM710.4 19.2H57.6c-44.8 0-51.2 51.2-51.2 51.2V723.2h44.8v-563.2h44.8l192 281.6 192-236.8 140.8 140.8 70.4-70.4c-25.6-32-38.4-76.8-38.4-121.6 6.4-51.2 25.6-96 57.6-134.4zM902.4 774.4v-51.2H12.8c0 51.2 51.2 51.2 51.2 51.2h838.4zM857.6 153.6zM857.6 313.6c-89.6 0-160-70.4-160-160s70.4-160 160-160 160 70.4 160 160c6.4 89.6-70.4 160-160 160z m32-160v-108.8H832v108.8h-57.6l83.2 89.6 83.2-89.6h-51.2z"  horiz-adv-x="1024" />

    
    <glyph glyph-name="zengjia" unicode="&#59230;" d="M512 819.2a428.8 428.8 0 1 0-428.8-428.8c0 236.8 192 428.8 428.8 428.8M512 889.6C236.8 889.6 12.8 672 12.8 396.8v-6.4c0-275.2 217.6-499.2 492.8-499.2H512c275.2 0 499.2 217.6 499.2 492.8v6.4C1011.2 665.6 793.6 889.6 512 889.6zM512 672c-19.2 6.4-38.4-12.8-38.4-32V134.4c0-19.2 12.8-38.4 38.4-38.4 19.2 0 38.4 12.8 38.4 38.4V640c-6.4 19.2-19.2 32-38.4 32zM761.6 422.4H262.4c-19.2 0-32-19.2-32-38.4s12.8-32 32-32h499.2c19.2 0 38.4 12.8 38.4 32 0 25.6-19.2 38.4-38.4 38.4z"  horiz-adv-x="1024" />

    
    <glyph glyph-name="shanjian" unicode="&#59231;" d="M512 812.8A428.8 428.8 0 1 0 83.2 384c0 236.8 192 428.8 428.8 428.8M512 883.2C236.8 883.2 12.8 665.6 12.8 390.4V384c0-275.2 217.6-499.2 492.8-499.2H512c275.2 0 499.2 217.6 499.2 492.8V384C1017.6 659.2 793.6 883.2 512 883.2c6.4 0 6.4 0 0 0zM761.6 416H262.4c-19.2 0-32-12.8-32-32s12.8-32 32-32h499.2c19.2 0 38.4 12.8 38.4 32s-12.8 32-38.4 32c6.4 0 6.4 0 0 0z"  horiz-adv-x="1024" />

    
    <glyph glyph-name="tuisong1" unicode="&#58980;" d="M1009.152 818.176L20.992 424.448c-8.704-4.096-14.848-12.288-15.872-22.016-1.024-9.728 2.56-18.944 10.24-25.088l147.456-112.128L833.024 655.36 266.24 189.44v-188.928c-0.512-5.632 2.56-11.264 7.168-14.336 5.12-3.072 11.264-2.56 15.872 0.512l124.928 91.136 123.392-92.16c5.632-4.096 12.288-5.632 18.944-4.096 6.656 1.536 12.288 6.144 15.36 12.288l446.464 811.52c3.072 6.656-3.072 14.848-9.216 12.8z m0 0"  horiz-adv-x="1024" />

    
    <glyph glyph-name="shangpinguanlizhongxin" unicode="&#59232;" d="M44.8 83.2c-19.2 0-38.4 19.2-38.4 38.4V652.8c0 19.2 19.2 38.4 38.4 38.4s38.4-19.2 38.4-38.4v-531.2c0-25.6-12.8-38.4-38.4-38.4zM518.4-83.2c-19.2 0-38.4 19.2-38.4 38.4V537.6c0 25.6 19.2 38.4 38.4 38.4s38.4-19.2 38.4-38.4v-582.4c0-19.2-19.2-38.4-38.4-38.4zM556.8 531.2c-6.4-19.2-25.6-32-44.8-25.6L38.4 614.4c-19.2 0-32 25.6-25.6 44.8 6.4 19.2 25.6 32 44.8 32l473.6-108.8c19.2-6.4 32-25.6 25.6-51.2zM403.2 416c-6.4-19.2-25.6-32-44.8-25.6l-192 51.2c-25.6 0-32 19.2-32 44.8 6.4 19.2 25.6 32 51.2 25.6l192-51.2c19.2 0 32-25.6 25.6-44.8zM825.6 774.4c-6.4-19.2-25.6-32-44.8-32l-390.4 64c-19.2 6.4-38.4 25.6-32 44.8 6.4 19.2 25.6 38.4 44.8 32l390.4-70.4c19.2 0 32-19.2 32-38.4zM428.8 864c12.8-19.2 0-44.8-19.2-51.2L64 627.2c-19.2-12.8-44.8 0-51.2 19.2-12.8 12.8-6.4 38.4 12.8 51.2L377.6 883.2c19.2 6.4 44.8 0 51.2-19.2zM806.4 800c12.8-12.8 12.8-38.4 0-51.2L563.2 518.4c-12.8-12.8-38.4-12.8-51.2 0-19.2 19.2-19.2 44.8 0 57.6l243.2 224c12.8 12.8 38.4 12.8 51.2 0zM684.8 70.4c12.8-19.2 6.4-38.4-6.4-51.2l-153.6-108.8c-19.2-12.8-38.4-6.4-51.2 6.4-12.8 19.2-6.4 38.4 6.4 51.2l153.6 108.8c12.8 12.8 38.4 12.8 51.2-6.4zM787.2 812.8c19.2 0 38.4-19.2 38.4-38.4v-153.6c0-19.2-19.2-38.4-38.4-38.4s-38.4 19.2-38.4 38.4V774.4c0 25.6 12.8 38.4 38.4 38.4zM531.2-76.8c-6.4-19.2-32-32-51.2-19.2l-448 179.2c-19.2 6.4-32 32-19.2 51.2 6.4 19.2 32 32 51.2 19.2l448-179.2c19.2-6.4 32-32 19.2-51.2zM972.8 326.4c0-25.6 19.2-38.4 38.4-44.8-6.4-25.6-19.2-57.6-32-76.8-19.2 12.8-44.8 12.8-57.6 0-12.8-12.8-19.2-38.4 0-57.6-25.6-12.8-51.2-25.6-76.8-32 0 19.2-19.2 38.4-44.8 38.4-19.2 0-38.4-19.2-44.8-38.4-25.6 6.4-51.2 19.2-76.8 32 12.8 19.2 12.8 38.4-6.4 57.6-12.8 12.8-38.4 19.2-57.6 6.4-6.4 19.2-12.8 44.8-19.2 70.4 19.2 0 38.4 19.2 38.4 44.8 0 19.2-19.2 38.4-38.4 44.8 6.4 25.6 19.2 51.2 32 76.8 19.2-12.8 38.4-12.8 57.6 0 12.8 12.8 19.2 38.4 0 57.6 25.6 12.8 51.2 25.6 76.8 32 0-25.6 19.2-38.4 44.8-38.4 25.6 0 38.4 19.2 44.8 38.4 32-6.4 57.6-19.2 76.8-32-19.2-19.2-19.2-44.8 0-57.6 19.2-19.2 44.8-19.2 57.6 0 12.8-25.6 25.6-51.2 32-76.8-25.6-6.4-44.8-25.6-44.8-44.8z m-172.8 96c-51.2 0-89.6-38.4-89.6-89.6 0-51.2 38.4-89.6 89.6-89.6 51.2 0 89.6 38.4 89.6 89.6s-38.4 89.6-89.6 89.6z"  horiz-adv-x="1030" />

    
    <glyph glyph-name="pinkong" unicode="&#59233;" d="M864 768h-25.6C614.4 768 518.4 870.4 518.4 870.4L492.8 896l-19.2-25.6S371.2 761.6 128 768h-32v-460.8c0-121.6 38.4-294.4 390.4-428.8l6.4-6.4 12.8 6.4C851.2 12.8 896 192 896 307.2V768h-32zM179.2 697.6c172.8 0 275.2 57.6 313.6 83.2 38.4-25.6 140.8-83.2 313.6-83.2v-76.8C608 620.8 518.4 704 518.4 704l-25.6 25.6-19.2-19.2S384 627.2 179.2 627.2V697.6z m640-390.4c0-64 0-224-320-352-320 128-320 288-320 352V569.6c179.2 0 281.6 64 320 96 38.4-32 140.8-96 320-96v-262.4zM428.8 416l-147.2-19.2 108.8-102.4-19.2-147.2 134.4 70.4 134.4-64-38.4 140.8L704 403.2l-147.2 19.2-70.4 128-57.6-134.4z"  horiz-adv-x="1030" />

    
    <glyph glyph-name="wenan" unicode="&#59234;" d="M550.4 25.6l-12.8 12.8c-12.8 12.8-25.6 19.2-44.8 32-19.2 6.4-32 6.4-44.8 6.4-6.4 19.2-25.6 32-44.8 38.4-32 6.4-51.2-6.4-70.4-19.2 0 6.4 6.4 19.2 6.4 25.6 6.4 25.6 12.8 44.8 6.4 70.4-6.4 19.2-19.2 32-38.4 32-44.8 6.4-83.2-25.6-121.6-44.8-32-25.6-57.6-38.4-83.2-32-25.6 12.8-32 83.2-19.2 147.2 19.2 57.6 38.4 166.4 96 217.6 19.2 19.2 44.8 32 70.4 25.6 25.6-12.8 44.8-51.2 51.2-102.4 0-19.2 19.2-38.4 44.8-38.4 19.2 6.4 38.4 19.2 38.4 44.8-6.4 83.2-51.2 147.2-102.4 172.8-38.4 12.8-83.2 19.2-153.6-38.4C57.6 512 38.4 403.2 19.2 313.6c-12.8-44.8-32-204.8 70.4-243.2 64-19.2 108.8 12.8 153.6 38.4 6.4 6.4 12.8 12.8 19.2 12.8-6.4-25.6-12.8-51.2 6.4-83.2 25.6-38.4 64-44.8 108.8-12.8 6.4 0 6.4 6.4 6.4 6.4 0-12.8 6.4-25.6 19.2-32 19.2-6.4 32-12.8 44.8-12.8h12.8c6.4-6.4 12.8-6.4 19.2-19.2l19.2-19.2c6.4-6.4 19.2-6.4 25.6-6.4 12.8 0 25.6 6.4 32 19.2 19.2 25.6 12.8 51.2-6.4 64z m147.2 499.2c19.2-6.4 38.4 12.8 44.8 25.6l96 262.4c6.4 19.2 6.4 38.4-19.2 44.8-19.2 6.4-32-6.4-38.4-25.6l-102.4-262.4c0-12.8 0-38.4 19.2-44.8zM972.8 883.2c-38.4 19.2-89.6-19.2-102.4-51.2l-96-256 153.6-57.6L1017.6 768c12.8 32-6.4 96-44.8 115.2zM620.8 172.8c-12.8-25.6-25.6-153.6-6.4-198.4l-12.8-25.6c-6.4-12.8 0-19.2 12.8-25.6h6.4c6.4 0 12.8 6.4 19.2 12.8l12.8 32c44.8 19.2 108.8 121.6 121.6 153.6l128 345.6-153.6 51.2-128-345.6z"  horiz-adv-x="1030" />

    
    <glyph glyph-name="sheji" unicode="&#59235;" d="M390.019731 301.379755c0-44.756363-38.362596-83.118959-83.118959-83.118959S223.781813 256.623392 223.781813 301.379755C217.388047 346.136117 255.750643 384.498714 300.507006 384.498714c51.150129 0 89.512725-38.362596 89.512725-83.118959z m-44.756363 166.237918c-44.756363 0-83.118959 38.362596-83.118959 83.118959S300.507006 640.249357 345.263368 640.249357c44.756363 0 83.118959-38.362596 83.118959-83.118959 0-51.150129-38.362596-89.512725-83.118959-89.512725zM684.13297 640.249357c0-44.756363-38.362596-83.118959-83.118959-83.118959-44.756363-6.393766-83.118959 31.96883-83.118959 83.118959s38.362596 83.118959 83.118959 83.118959c44.756363 0 83.118959-38.362596 83.118959-83.118959z m-511.501286-677.739204c198.206748-19.181298 127.875322 191.812982 306.900772 191.812982l76.725193-63.937661c25.575064-230.175579-268.538175-287.719474-383.625965-127.875321z m601.014011 306.900771c63.937661 95.906491 249.356877 415.594795 249.356877 415.594795 6.393766 12.787532 0 31.96883-12.787532 38.362597-12.787532 6.393766-19.181298 6.393766-31.96883 0 0 0-281.325707-242.963111-364.444667-319.688304-63.937661-63.937661-63.937661-89.512725-89.512725-191.812982l70.331427-57.543895c102.300257 31.96883 127.875322 38.362596 179.02545 115.087789zM236.569345 64.81041C57.543895 218.260796 38.362596 486.798971 191.812982 665.824421c83.118959 89.512725 198.206748 147.05662 319.688304 147.05662 166.237918 0 274.931941-83.118959 274.931942-147.05662 25.575064 25.575064 51.150129 44.756363 70.331426 63.937661C818.402058 819.274807 684.13297 896 511.501286 896 230.175579 896 0 665.824421 6.393766 378.104948c0-121.481555 44.756363-236.569345 121.481556-326.08207 31.96883-19.181298 76.725193-12.787532 108.694023 12.787532z m543.470117 76.725193c44.756363-83.118959-57.543895-140.662854-153.450386-172.631684-6.393766-31.96883-25.575064-63.937661-57.543895-95.906491 223.781813 25.575064 383.625965 185.419216 268.538175 338.869602-12.787532-25.575064-31.96883-44.756363-57.543894-70.331427z"  horiz-adv-x="1029" />

    
    <glyph glyph-name="zhifubaozhanghao1" unicode="&#59236;" d="M224 262.4c0-32 19.2-76.8 115.2-76.8S512 281.6 512 281.6s-108.8 64-192 57.6c-76.8-6.4-96-44.8-96-76.8zM505.6 883.2C230.4 883.2 0 652.8 0 377.6S230.4-128 505.6-128s505.6 224 505.6 505.6S787.2 883.2 505.6 883.2z m339.2-768L576 249.6s-51.2-57.6-102.4-83.2-108.8-38.4-172.8-25.6c-64 12.8-108.8 57.6-102.4 134.4C198.4 352 281.6 384 352 384c70.4 0 192-44.8 192-44.8s12.8 25.6 19.2 51.2c6.4 12.8 12.8 32 12.8 51.2H307.2v25.6h128v57.6H268.8v32h166.4V633.6h89.6v-76.8H704v-38.4H531.2v-51.2h147.2s0-32-19.2-76.8c-25.6-51.2-44.8-76.8-44.8-76.8l281.6-96c-6.4-19.2-12.8-32-25.6-51.2l-25.6-51.2z"  horiz-adv-x="1030" />

    
    <glyph glyph-name="dianpumingcheng1" unicode="&#59237;" d="M518.4 876.8C243.2 876.8 19.2 652.8 19.2 377.6s224-499.2 499.2-499.2 499.2 224 499.2 499.2S793.6 876.8 518.4 876.8z m38.4-620.8c0 19.2 6.4 32 19.2 51.2 6.4 19.2 19.2 38.4 32 57.6 19.2 32 70.4 96 83.2 140.8 6.4 6.4 6.4 19.2 6.4 19.2 0 38.4-32 51.2-96 70.4l-6.4-6.4 19.2-19.2c-89.6-25.6-153.6-44.8-217.6-76.8l6.4-32-32-44.8c6.4 0 70.4-25.6 128 32 0 6.4-6.4 6.4-12.8 12.8 12.8 0 25.6-19.2 25.6-44.8 0 6.4 0 12.8-6.4 19.2-44.8-38.4-108.8-44.8-153.6-25.6v-57.6c-25.6-6.4-64-44.8-64-70.4 0-19.2 6.4-19.2 12.8-25.6 51.2-38.4 198.4 12.8 198.4 12.8-51.2-32-102.4-57.6-179.2-64-102.4 6.4-115.2 83.2-70.4 179.2 44.8 89.6 115.2 172.8 230.4 217.6 32 19.2 83.2 32 128 32 70.4 0 134.4-25.6 128-108.8-6.4-64-70.4-147.2-108.8-211.2-19.2-25.6-25.6-44.8 6.4-44.8 96 6.4 185.6 51.2 275.2 96-57.6-44.8-352-230.4-352-108.8z"  horiz-adv-x="1030" />

    
    <glyph glyph-name="shanchu1" unicode="&#59238;" d="M921.6 710.4h-230.4c0 102.4-89.6 185.6-192 185.6s-185.6-83.2-192-185.6H64c-25.6 0-51.2-19.2-51.2-51.2 6.4-19.2 25.6-44.8 51.2-44.8h51.2v-544c0-102.4 70.4-185.6 153.6-185.6h441.6c83.2 0 153.6 83.2 153.6 185.6V614.4h51.2c25.6 0 51.2 19.2 51.2 51.2 0 25.6-19.2 44.8-44.8 44.8zM384 140.8c0-25.6-19.2-51.2-38.4-51.2-25.6 0-38.4 25.6-38.4 51.2V428.8c0 25.6 19.2 51.2 38.4 51.2s38.4-25.6 38.4-51.2v-288z m147.2 0c0-25.6-19.2-51.2-38.4-51.2s-44.8 25.6-44.8 51.2V428.8c0 25.6 19.2 51.2 38.4 51.2 25.6 0 38.4-19.2 38.4-51.2v-288zM396.8 710.4c6.4 57.6 51.2 96 102.4 96s96-38.4 102.4-96H396.8z m288-569.6c0-25.6-19.2-51.2-38.4-51.2-25.6 0-38.4 25.6-38.4 51.2V428.8c0 25.6 19.2 51.2 38.4 51.2 25.6 0 38.4-19.2 38.4-51.2v-288z"  horiz-adv-x="1024" />

    
    <glyph glyph-name="kaiqi" unicode="&#59239;" d="M1024 620.8c-6.4 140.8-115.2 249.6-256 249.6s-256-115.2-256-256v-192H64c-32 0-51.2-25.6-51.2-51.2v-409.6c0-32 25.6-51.2 51.2-51.2h665.6c32 0 51.2 25.6 51.2 51.2V371.2c0 25.6-25.6 51.2-51.2 51.2H608v192C608 704 678.4 768 761.6 768c83.2 0 153.6-70.4 153.6-153.6v-192h102.4v192c6.4 0 6.4 6.4 6.4 6.4z m-588.8-448v-96c0-25.6-19.2-44.8-44.8-44.8-25.6 0-44.8 19.2-44.8 44.8v96c-19.2 12.8-32 38.4-32 64 0 44.8 32 76.8 76.8 76.8s76.8-32 76.8-76.8c0-25.6-12.8-51.2-32-64z"  horiz-adv-x="1024" />

    
    <glyph glyph-name="chaxun1" unicode="&#59247;" d="M915.2 889.6H115.2C57.6 889.6 6.4 838.4 6.4 780.8v-800c0-57.6 51.2-108.8 108.8-108.8h800c57.6 0 108.8 51.2 108.8 108.8V780.8c0 57.6-51.2 108.8-108.8 108.8z m-57.6-851.2c-12.8-12.8-25.6-19.2-44.8-19.2-12.8 0-32 6.4-44.8 19.2l-172.8 172.8-6.4 6.4c-44.8-32-96-44.8-153.6-44.8-160 0-288 128-288 288s128 288 288 288 288-128 288-288c0-57.6-19.2-108.8-44.8-153.6 0 0 6.4 0 6.4-6.4l172.8-172.8c25.6-32 25.6-70.4 0-89.6zM441.6 640C339.2 640 256 556.8 256 460.8s83.2-185.6 185.6-185.6 185.6 83.2 185.6 185.6C627.2 556.8 544 640 441.6 640z"  horiz-adv-x="1024" />

    
    <glyph glyph-name="zhifubaomingcheng" unicode="&#59262;" d="M409.6-12.8h-6.4c-51.2 0-108.8 0-160 6.4-38.4 6.4-76.8 6.4-115.2 12.8-25.6 6.4-51.2 6.4-76.8 12.8-12.8 0-19.2 12.8-19.2 19.2-6.4 25.6-6.4 51.2-6.4 76.8 0 12.8 0 32 6.4 44.8 6.4 25.6 19.2 44.8 44.8 64 19.2 12.8 44.8 19.2 64 25.6 12.8 6.4 38.4 12.8 57.6 25.6 25.6 6.4 44.8 19.2 57.6 38.4 6.4 12.8 12.8 25.6 12.8 38.4V384c0 12.8-6.4 19.2-12.8 32-12.8 0-12.8 6.4-19.2 12.8-19.2 6.4-25.6 19.2-32 38.4-6.4 6.4-6.4 19.2-12.8 32 0 0 0 6.4-6.4 6.4-6.4 6.4-19.2 12.8-19.2 19.2-19.2 32-19.2 57.6 0 89.6v6.4c0 25.6 0 51.2 6.4 76.8 6.4 32 12.8 57.6 25.6 83.2C230.4 832 275.2 870.4 332.8 876.8c64 12.8 128 0 185.6-32 32-19.2 57.6-44.8 70.4-76.8 12.8-32 19.2-70.4 25.6-108.8v-44.8c12.8-12.8 12.8-25.6 12.8-38.4 0-19.2 0-32-12.8-44.8 0-19.2-12.8-19.2-19.2-25.6l-6.4-6.4c0-12.8-6.4-19.2-12.8-32 0 0 0-6.4-6.4-6.4-38.4-12.8-76.8-44.8-108.8-76.8-44.8-51.2-76.8-108.8-89.6-172.8-12.8-76.8 0-147.2 38.4-217.6v-6.4zM646.4 140.8c-12.8 0-25.6 6.4-32 6.4-12.8 0-25.6 0-38.4-12.8-12.8-6.4-19.2-19.2-19.2-32 0-6.4 6.4-12.8 12.8-19.2 6.4-12.8 19.2-12.8 32-19.2 19.2 0 32 0 51.2 6.4 19.2 6.4 38.4 25.6 51.2 44.8v6.4l-57.6 19.2zM710.4 454.4c-160 0-288-128-288-281.6 0-160 128-288 288-288 153.6 0 281.6 128 281.6 281.6 0 160-128 288-281.6 288z m153.6-409.6c-19.2 6.4-19.2 12.8-38.4 19.2-12.8 6.4-32 12.8-44.8 19.2l-38.4 19.2h-6.4c-6.4-6.4-12.8-12.8-25.6-19.2-6.4-6.4-19.2-12.8-32-19.2-12.8-6.4-25.6-12.8-32-12.8-12.8 0-25.6-6.4-32 0-19.2 0-38.4 6.4-51.2 25.6-12.8 12.8-19.2 32-12.8 44.8 0 12.8 6.4 19.2 6.4 25.6 6.4 6.4 6.4 12.8 12.8 12.8 12.8 6.4 25.6 12.8 38.4 12.8h32c6.4 0 19.2 0 25.6-6.4 6.4 0 12.8 0 25.6-6.4 12.8 0 19.2-6.4 32-6.4h6.4c6.4 12.8 6.4 25.6 12.8 38.4v6.4h-128-6.4v12.8h64v25.6H595.2v12.8h76.8c6.4 0 6.4 0 6.4 6.4v25.6c0 6.4 0 6.4 6.4 6.4h32v-44.8h89.6v-12.8h-89.6V211.2h64c0-6.4 0-12.8-6.4-12.8-6.4-19.2-12.8-38.4-25.6-51.2v-6.4c12.8-6.4 25.6-6.4 32-12.8 12.8-6.4 19.2-6.4 32-12.8s19.2-6.4 32-12.8c6.4 0 12.8-6.4 19.2-6.4 12.8-19.2 0-32 0-51.2z"  horiz-adv-x="1024" />

    
    <glyph glyph-name="shuaxin" unicode="&#59263;" d="M972.8 339.2c-6.4-51.2-25.6-102.4-44.8-153.6-70.4-153.6-185.6-230.4-358.4-236.8-76.8-6.4-153.6 6.4-224 32l-32-76.8c-6.4-6.4-12.8-19.2-19.2-19.2-6.4-6.4-12.8-6.4-19.2-6.4-6.4 0-12.8 0-19.2 6.4-6.4 0-6.4 6.4-12.8 6.4 0 0-6.4 0-6.4 6.4l-160 268.8c-6.4 6.4-6.4 12.8-6.4 19.2v19.2c0 6.4 6.4 6.4 6.4 12.8s6.4 6.4 12.8 12.8c6.4 0 6.4 6.4 12.8 6.4 0 0 6.4 0 6.4 6.4L384 313.6c12.8 0 25.6 6.4 38.4 0 6.4 0 12.8-6.4 19.2-6.4 6.4 0 12.8-6.4 12.8-12.8s6.4-12.8 6.4-12.8v-32l-32-76.8c51.2-19.2 108.8-32 160-38.4 51.2-6.4 96-6.4 128 6.4 32 6.4 70.4 19.2 102.4 38.4 25.6 12.8 51.2 32 70.4 51.2 19.2 19.2 32 32 51.2 57.6 12.8 12.8 19.2 25.6 25.6 38.4 0 0 6.4 6.4 6.4 12.8zM44.8 441.6c12.8 57.6 32 121.6 64 172.8 76.8 140.8 198.4 211.2 371.2 204.8 70.4 0 140.8-12.8 204.8-38.4l32 76.8c6.4 6.4 6.4 12.8 12.8 19.2 6.4 6.4 6.4 6.4 12.8 6.4h12.8c6.4 0 6.4 0 12.8-6.4 6.4 0 6.4-6.4 12.8-6.4 0 0 6.4 0 6.4-6.4l153.6-275.2c0-6.4 6.4-12.8 6.4-25.6v-19.2c0-6.4-6.4-6.4-6.4-12.8l-12.8-12.8c-6.4 0-6.4-6.4-12.8-6.4l-6.4-6.4-281.6-64h-44.8c-6.4 19.2-12.8 25.6-19.2 25.6 0 6.4-6.4 19.2-6.4 25.6V512v6.4l32 76.8c-44.8 19.2-96 32-153.6 38.4-51.2 6.4-96 6.4-128 0-38.4 0-70.4-12.8-102.4-32-25.6-12.8-51.2-25.6-76.8-44.8-19.2-19.2-32-38.4-44.8-57.6-12.8-12.8-25.6-25.6-32-38.4 0-6.4-6.4-12.8-6.4-19.2z"  horiz-adv-x="1024" />

    
    <glyph glyph-name="lingqurenwu" unicode="&#59264;" d="M294.4-6.4c-12.8 12.8-147.2 128-166.4 140.8-12.8 12.8-32 12.8-44.8 0-12.8-6.4-57.6-44.8-70.4-51.2-19.2-12.8 0-38.4 6.4-44.8s128-121.6 147.2-134.4c19.2-19.2 38.4-12.8 51.2-6.4 12.8 12.8 44.8 38.4 64 51.2 25.6 12.8 25.6 32 12.8 44.8z m-6.4 339.2h576c19.2 0 32 12.8 32 32V787.2c0 38.4-32 70.4-70.4 70.4H332.8c-38.4 0-70.4-32-70.4-70.4v-422.4c0-19.2 12.8-32 25.6-32z m153.6 294.4h275.2c19.2 0 32-12.8 32-32s-12.8-32-32-32H441.6c-19.2 0-32 12.8-38.4 32s12.8 32 25.6 32h12.8z m576-358.4c-19.2 25.6-64 19.2-83.2 6.4-32-19.2-140.8-108.8-172.8-108.8-38.4-6.4-134.4 0-204.8 6.4-83.2 6.4-51.2 38.4-38.4 44.8s166.4 12.8 217.6 19.2c44.8 6.4 38.4 51.2-12.8 51.2s-294.4 6.4-371.2 0c-76.8-6.4-198.4-108.8-198.4-108.8l6.4-19.2 166.4-147.2h25.6c25.6 12.8 51.2 25.6 76.8 32 32 6.4 224-12.8 288-6.4s236.8 147.2 275.2 179.2c19.2 19.2 32 44.8 25.6 51.2z"  horiz-adv-x="1024" />

    
    <glyph glyph-name="youxianji" unicode="&#59265;" d="M505.6 512H339.2v-249.6c0-6.4-6.4-12.8-12.8-12.8H192c-6.4 0-12.8 6.4-12.8 12.8V512H12.8c-6.4 6.4-6.4 12.8 0 19.2L249.6 768c6.4 6.4 12.8 6.4 19.2 0l236.8-236.8c6.4-6.4 6.4-12.8 0-19.2z m505.6-256h-166.4V505.6c0 6.4-6.4 12.8-12.8 12.8h-134.4c-6.4 0-12.8-6.4-12.8-12.8V256H518.4c-6.4-6.4-6.4-12.8-6.4-19.2l236.8-236.8c6.4-6.4 12.8-6.4 19.2 0l236.8 236.8c12.8 6.4 12.8 12.8 6.4 19.2z"  horiz-adv-x="1024" />

    
    <glyph glyph-name="tanhao" unicode="&#59008;" d="M512 890.88C231.936 890.88 5.12 664.064 5.12 384s226.816-506.88 506.88-506.88 506.88 226.816 506.88 506.88-226.816 506.88-506.88 506.88z m50.688-756.224c-5.12-9.216-12.8-17.408-22.016-23.04-8.704-5.12-19.456-7.68-29.696-6.656-10.752 0-21.504 2.56-31.232 7.68-9.216 5.12-16.384 12.8-21.504 22.016-10.24 18.944-10.24 41.472 0 60.416 4.608 9.728 12.288 17.408 22.016 22.528 9.216 4.608 19.968 7.68 30.72 8.192 10.752 0 20.992-2.56 29.696-7.68 8.704-5.12 16.384-12.8 22.528-23.04 5.632-8.704 9.216-18.944 9.216-29.696-0.512-10.752-4.096-20.992-9.728-30.72z m12.8 427.52l-31.744-258.56c-2.048-10.752-5.632-21.504-10.752-30.72-5.632-10.752-12.8-15.872-22.016-14.848-9.728 0-17.408 5.12-22.528 14.848-5.12 9.728-8.192 19.968-9.216 30.72l-31.744 258.56c-1.536 14.848-1.024 30.208 2.56 44.544 3.072 14.848 9.728 27.136 19.968 38.4 10.24 10.752 23.552 16.896 40.448 17.92 14.336 0 27.648-5.632 39.424-16.384s19.456-23.552 22.528-38.4c4.096-14.336 4.608-29.696 3.072-46.08z"  horiz-adv-x="1024" />

    
    <glyph glyph-name="dagou" unicode="&#59009;" d="M7.68 384c0 279.04 226.304 505.856 505.856 505.856 279.04 0 505.856-226.304 505.856-505.856 0-279.04-226.304-505.856-505.856-505.856-279.552 0.512-505.856 226.816-505.856 505.856z m721.92 220.16l-282.624-339.456-153.088 153.088c-18.432 18.432-48.64 18.432-67.072 0-18.432-18.432-18.432-48.64 0-67.072l189.44-189.44c18.432-18.432 48.64-18.432 67.072 0l3.072 3.072 315.904 379.392c16.896 19.968 13.824 50.176-6.144 66.56-19.968 16.896-49.664 13.824-66.56-6.144z"  horiz-adv-x="1024" />

    
    <glyph glyph-name="tianjia" unicode="&#59266;" d="M1026.557 298.026H603.093v-423.464H433.706V298.026H10.24V467.413h423.466V890.88h169.387v-423.466h423.464v-169.388z"  horiz-adv-x="1027" />

    
    <glyph glyph-name="shangsheng" unicode="&#59267;" d="M998.4 384l-332.8-6.4v-480c0-12.8-6.4-19.2-19.2-19.2h-256c-12.8 0-19.2 6.4-19.2 19.2V377.6H44.8L38.4 384c-6.4 6.4-6.4 25.6 0 32L499.2 876.8c12.8 19.2 25.6 19.2 38.4 6.4l460.8-460.8c12.8-12.8 12.8-25.6 0-38.4z"  horiz-adv-x="1024" />

    
    <glyph glyph-name="xiajiang" unicode="&#59268;" d="M25.6 384l332.8 6.4V876.8c0 6.4 6.4 19.2 19.2 19.2H640c12.8 0 19.2-6.4 19.2-19.2v-480h326.4l6.4-12.8c6.4-6.4 6.4-25.6 0-32l-460.8-460.8c-6.4-6.4-25.6-6.4-32 0L25.6 352C19.2 358.4 19.2 377.6 25.6 384z"  horiz-adv-x="1024" />

    
    <glyph glyph-name="yonghu" unicode="&#59269;" d="M684.8 300.8c-44.8-38.4-102.4-64-172.8-64s-128 25.6-172.8 70.4c-115.2-57.6-179.2-128-179.2-268.8l339.2-115.2 358.4 108.8c0 134.4-64 211.2-172.8 268.8zM512 288c115.2 0 204.8 96 204.8 204.8S620.8 704 512 704 307.2 608 307.2 499.2c0-121.6 96-211.2 204.8-211.2zM512-121.6c-108.8 0-217.6 32-307.2 108.8C-12.8 160-57.6 480 115.2 697.6 281.6 915.2 601.6 960 825.6 787.2c217.6-172.8 262.4-492.8 89.6-710.4-102.4-128-249.6-198.4-403.2-198.4zM512 825.6c-134.4 0-262.4-57.6-352-166.4-147.2-192-115.2-473.6 76.8-620.8C332.8-32 448-64 563.2-51.2c115.2 12.8 224 76.8 294.4 166.4 147.2 192 115.2 473.6-76.8 620.8C704 800 608 825.6 512 825.6z"  horiz-adv-x="1024" />

    
    <glyph glyph-name="piliangdaochu" unicode="&#59272;" d="M748.8 518.4c-166.4 0-313.6-108.8-364.8-268.8-32 108.8-6.4 236.8 64 332.8s185.6 153.6 300.8 153.6V896l268.8-268.8-268.8-268.8V518.4z m166.4-217.6c0 32 25.6 51.2 51.2 51.2s51.2-25.6 51.2-51.2v-160c0-57.6-51.2-108.8-108.8-108.8H262.4c-57.6 0-108.8 51.2-108.8 108.8V569.6c0 57.6 51.2 108.8 108.8 108.8h108.8c32 0 51.2-25.6 51.2-51.2 0-32-25.6-51.2-51.2-51.2H320c-32 0-51.2-25.6-51.2-51.2V192c0-32 25.6-51.2 51.2-51.2h544c32 0 51.2 25.6 51.2 51.2V300.8z m0 0M761.6 44.8v-6.4c0-32-25.6-51.2-51.2-51.2H166.4c-32 0-51.2 25.6-51.2 51.2V364.8c0 32 25.6 51.2 51.2 51.2h6.4V524.8h-64C51.2 524.8 0 473.6 0 416v-435.2c0-57.6 51.2-108.8 108.8-108.8h646.4c57.6 0 108.8 51.2 108.8 108.8v64h-102.4z"  horiz-adv-x="1024" />

    
    <glyph glyph-name="piliangdaoru" unicode="&#59273;" d="M313.6 550.4c-64 121.6-179.2 192-307.2 166.4 70.4 64 147.2 89.6 243.2 76.8 96-19.2 172.8-76.8 217.6-160l115.2 57.6-96-294.4L192 492.8l121.6 57.6zM108.8 249.6c0-32 25.6-51.2 51.2-51.2H704c32 0 51.2 25.6 51.2 51.2V576c0 32-25.6 51.2-51.2 51.2h-51.2c-32 0-51.2 25.6-51.2 51.2 0 32 25.6 51.2 51.2 51.2h108.8c57.6 0 108.8-51.2 108.8-108.8V192c0-57.6-51.2-108.8-108.8-108.8H108.8C51.2 83.2 0 134.4 0 192V358.4c0 25.6 25.6 51.2 57.6 51.2s51.2-25.6 51.2-51.2v-108.8z m0 108.8M262.4 102.4v-6.4c0-32 25.6-51.2 51.2-51.2h544c32 0 51.2 25.6 51.2 51.2v320c0 32-25.6 51.2-51.2 51.2h-6.4V582.4h64c57.6 0 108.8-51.2 108.8-108.8v-435.2c0-57.6-51.2-108.8-108.8-108.8H262.4c-57.6 0-108.8 51.2-108.8 108.8v64h108.8z"  horiz-adv-x="1024" />

    
    <glyph glyph-name="fanhui" unicode="&#59274;" d="M1004.8 0s-12.8-25.6-25.6 0c0 0-147.2 448-512 332.8V192s-6.4-83.2-76.8-25.6L38.4 473.6S-38.4 512 44.8 569.6L403.2 876.8s51.2 38.4 64-25.6V704s672-32 537.6-704z"  horiz-adv-x="1024" />

    
    <glyph glyph-name="erweimalan" unicode="&#59275;" d="M6.4-121.6h454.4V332.8H6.4v-454.4z m89.6 358.4h268.8v-268.8H96v268.8z m89.6-89.6h89.6v-89.6H185.6v89.6z m544-179.2h89.6v-89.6h-89.6v89.6z m179.2 0h89.6v-89.6h-89.6v89.6z m0 268.8h-89.6V332.8H550.4v-454.4H640v268.8h89.6v-89.6h268.8V332.8h-89.6v-96zM6.4 422.4h454.4v448H6.4v-448z m89.6 358.4h268.8V512H96V780.8z m89.6-89.6h89.6v-89.6H185.6V691.2zM908.8 588.8V512H633.6V876.8H544v-454.4h454.4V588.8zM857.6 889.6c-83.2 0-147.2-64-147.2-147.2 0-83.2 64-147.2 147.2-147.2 83.2 0 147.2 64 147.2 147.2 0 83.2-64 147.2-147.2 147.2zM761.6 768s0 6.4 0 0c0 6.4 0 6.4 0 0 0 6.4 0 6.4 0 0 0 6.4 0 6.4 0 0 0 6.4 0 6.4 0 0 0 6.4 0 6.4 0 0 0 6.4 0 6.4 0 0v6.4l32 32c6.4 6.4 12.8 6.4 19.2 0 6.4-6.4 6.4-12.8 0-19.2l-6.4-6.4h134.4c6.4 0 12.8-6.4 12.8-12.8s-6.4-12.8-12.8-12.8h-166.4c-12.8 6.4-12.8 6.4-12.8 12.8 0-6.4 0-6.4 0 0 0-6.4 0-6.4 0 0 0-6.4 0-6.4 0 0 0-6.4 0-6.4 0 0 0-6.4 0-6.4 0 0 0-6.4 0-6.4 0 0 0-6.4 0-6.4 0 0 0-6.4 0-6.4 0 0 0-6.4 0-6.4 0 0 0-6.4 0-6.4 0 0 0-6.4 0-6.4 0 0 0-6.4 0 0 0 0z m192-57.6s-6.4 0 0 0c-6.4-6.4-6.4-6.4 0 0-6.4-6.4-6.4-6.4 0 0V704l-32-32c-6.4-6.4-12.8-6.4-19.2 0-6.4 6.4-6.4 12.8 0 19.2l6.4 6.4h-134.4c-6.4 0-12.8 6.4-12.8 12.8s6.4 12.8 12.8 12.8h166.4c12.8-6.4 12.8-6.4 12.8-12.8 0 6.4 0 6.4 0 0 0 6.4 0 6.4 0 0 0 6.4 0 6.4 0 0 0 6.4 0 6.4 0 0 0 6.4 0 6.4 0 0 0 6.4 0 6.4 0 0 0 6.4 0 6.4 0 0 0 6.4 0 6.4 0 0 0 6.4 0 6.4 0 0 0 6.4 0 6.4 0 0 0 6.4 0 6.4 0 0 0 6.4 0 6.4 0 0 0 6.4 0 6.4 0 0 0 6.4 0 6.4 0 0z"  horiz-adv-x="1024" />

    
    <glyph glyph-name="erweimahong" unicode="&#59276;" d="M12.8-121.6h454.4V332.8H12.8v-454.4z m89.6 358.4h268.8v-268.8H102.4v268.8zM192 147.2h89.6v-89.6H192v89.6z m544-179.2h89.6v-89.6h-89.6v89.6z m179.2 0h89.6v-89.6h-89.6v89.6z m0 268.8h-89.6V332.8H550.4v-454.4H640v268.8h89.6v-89.6h268.8V332.8h-89.6l6.4-96zM12.8 422.4h454.4v448H12.8v-448z m89.6 358.4h268.8V512H102.4V780.8zM192 691.2h89.6v-89.6H192V691.2zM908.8 588.8V512H633.6V870.4H544v-448h454.4V588.8zM857.6 889.6c-83.2 0-147.2-64-147.2-147.2 0-83.2 64-147.2 147.2-147.2 83.2 0 147.2 64 147.2 147.2 0 83.2-64 147.2-147.2 147.2zM761.6 768c0 6.4 0 6.4 0 0 0 6.4 0 6.4 0 0 0 6.4 0 6.4 0 0 0 6.4 0 6.4 0 0 0 6.4 0 6.4 0 0 0 6.4 0 6.4 0 0v6.4l32 32c6.4 6.4 12.8 6.4 19.2 0 6.4-6.4 6.4-12.8 0-19.2l-6.4-6.4h134.4c6.4 0 12.8-6.4 12.8-12.8s-6.4-12.8-12.8-12.8h-166.4l-12.8 12.8c6.4-6.4 6.4-6.4 0 0 6.4-6.4 6.4-6.4 0 0 0-6.4 0-6.4 0 0 0-6.4 0-6.4 0 0 0-6.4 0-6.4 0 0 0-6.4 0-6.4 0 0 0-6.4 0-6.4 0 0 0-6.4 0-6.4 0 0 0-6.4 0-6.4 0 0 0-6.4 0-6.4 0 0 0-6.4 0-6.4 0 0 0-6.4 0-6.4 0 0 0-6.4 0-6.4 0 0z m192-57.6s0-6.4 0 0c0-6.4 0-6.4 0 0 0-6.4 0-6.4 0 0 0-6.4 0-6.4 0 0V704l-32-32c-6.4-6.4-12.8-6.4-19.2 0-6.4 6.4-6.4 12.8-6.4 19.2l6.4 6.4H768c-6.4 0-12.8 6.4-12.8 12.8s6.4 12.8 12.8 12.8h166.4c19.2-6.4 19.2-6.4 19.2-12.8 0 6.4 0 6.4 0 0 0 6.4 0 6.4 0 0 0 6.4 0 6.4 0 0 0 6.4 0 6.4 0 0 0 6.4 0 6.4 0 0 0 6.4 0 6.4 0 0 0 6.4 0 6.4 0 0 0 6.4 0 6.4 0 0 0 6.4 0 6.4 0 0 0 6.4 0 6.4 0 0 0 6.4 0 6.4 0 0 0 6.4 0 6.4 0 0 0 6.4 0 6.4 0 0 0 6.4 0 0 0 0z"  horiz-adv-x="1024" />

    
    <glyph glyph-name="chuangjian" unicode="&#59277;" d="M921.6 704H499.2c-19.2 0-32 19.2-32 38.4 0 51.2-38.4 89.6-89.6 89.6H96C44.8 832 6.4 793.6 6.4 742.4V64c0-51.2 38.4-89.6 89.6-89.6h832c51.2 0 89.6 38.4 89.6 89.6V614.4c-6.4 51.2-44.8 89.6-96 89.6z m-211.2-416H544V128c0-19.2-19.2-38.4-38.4-38.4-12.8 0-19.2 6.4-25.6 12.8s-12.8 12.8-12.8 25.6V288H313.6c-12.8 0-19.2 6.4-25.6 12.8-6.4 0-12.8 12.8-12.8 19.2 0 19.2 19.2 38.4 38.4 38.4h160V518.4c0 19.2 19.2 38.4 38.4 38.4s38.4-19.2 38.4-38.4v-160h160c19.2 0 38.4-19.2 38.4-38.4-6.4-19.2-19.2-32-38.4-32z"  horiz-adv-x="1024" />

    
    <glyph glyph-name="pinzhi" unicode="&#59278;" d="M704 537.6L512 307.2 320 537.6H217.6v-38.4c19.2 0 25.6-6.4 32-12.8l6.4-6.4c44.8-51.2 211.2-243.2 256-300.8 44.8 57.6 211.2 249.6 256 300.8 6.4 6.4 12.8 12.8 32 12.8v44.8H704c6.4 0 6.4 0 0 0z m288 57.6c38.4-44.8 32-108.8 0-147.2-44.8-51.2-134.4-140.8-230.4-249.6l-172.8-185.6c-32-32-51.2-38.4-76.8-38.4-19.2 0-44.8 6.4-76.8 38.4L275.2 192C166.4 307.2 76.8 403.2 38.4 448 0 499.2 0 550.4 38.4 595.2c19.2 25.6 64 70.4 108.8 121.6 32 38.4 70.4 76.8 89.6 96 32 32 57.6 38.4 76.8 38.4h403.2c38.4 0 57.6-19.2 70.4-38.4 38.4-38.4 121.6-128 166.4-179.2l38.4-38.4z"  horiz-adv-x="1024" />

    
    <glyph glyph-name="sheying" unicode="&#59279;" d="M6.4 441.6v-358.4c0-32 32-64 64-57.6l192 121.6c0-70.4 57.6-121.6 128-121.6H896c70.4 0 121.6 51.2 128 121.6V377.6c0 44.8-25.6 83.2-64 102.4 38.4 32 64 83.2 64 134.4 0 102.4-89.6 185.6-192 179.2-102.4 0-185.6-76.8-192-179.2 0-44.8 19.2-89.6 51.2-121.6H569.6c44.8 38.4 64 96 64 153.6C633.6 768 531.2 857.6 409.6 857.6 294.4 864 198.4 768 192 646.4c0-70.4 44.8-140.8 108.8-179.2-25.6-19.2-44.8-51.2-44.8-89.6L64 499.2c-32 0-57.6-25.6-57.6-57.6z m819.2 57.6c-70.4 0-121.6 51.2-128 121.6 0 70.4 57.6 121.6 128 121.6s121.6-51.2 128-121.6c0-70.4-57.6-121.6-128-121.6z m-409.6 0C326.4 499.2 256 563.2 256 646.4c0 83.2 70.4 153.6 160 153.6 83.2 0 153.6-64 160-153.6-6.4-83.2-76.8-147.2-160-147.2z"  horiz-adv-x="1024" />

    
    <glyph glyph-name="meigong" unicode="&#59280;" d="M889.6 25.6s6.4 83.2-83.2 192c-44.8 57.6-128 108.8-128 108.8l-147.2-256-147.2 256s-83.2-44.8-147.2-147.2c-38.4-64-64-147.2-64-147.2s83.2-147.2 358.4-147.2c268.8-6.4 358.4 140.8 358.4 140.8z m-230.4 134.4h102.4v-44.8h-102.4v44.8z m-64 83.2l-64 64-64-64 64-108.8 64 108.8z m-64 64c102.4 6.4 172.8 70.4 192 198.4 6.4 19.2 6.4 44.8 0 64-12.8 0-32-6.4-51.2 6.4C620.8 608 576 652.8 576 652.8S499.2 576 384 582.4c-19.2 0-38.4 0-51.2 6.4-6.4-25.6-6.4-51.2 0-76.8 19.2-121.6 102.4-211.2 198.4-204.8zM288 748.8c-38.4-44.8-96-51.2-96-51.2s38.4-70.4 192-76.8c115.2-6.4 192 76.8 192 76.8s44.8-44.8 96-76.8c38.4-19.2 70.4 0 70.4 0s38.4 185.6-140.8 249.6c-153.6 51.2-256-64-313.6-121.6z"  horiz-adv-x="1024" />

    
    <glyph glyph-name="daojishijinggao" unicode="&#59282;" d="M665.6 390.4H531.2V524.8c0 12.8-6.4 19.2-19.2 19.2-12.8 0-19.2-6.4-19.2-19.2v-160c0-12.8 6.4-19.2 19.2-19.2h160c12.8 0 19.2 6.4 19.2 19.2 0 12.8-12.8 25.6-25.6 25.6zM512 889.6C236.8 889.6 12.8 665.6 12.8 384s224-505.6 505.6-505.6S1024 102.4 1024 384 793.6 889.6 512 889.6zM243.2 646.4c32 32 83.2 32 115.2 0 6.4-6.4 6.4-19.2 0-32L268.8 531.2c0-6.4-6.4-6.4-12.8-6.4s-12.8 0-12.8 6.4c-32 32-32 83.2 0 115.2z m524.8-537.6c-6.4-6.4-6.4-6.4-12.8-6.4s-12.8 0-19.2 6.4l-57.6 70.4c-19.2-19.2-38.4-32-64-38.4-32-12.8-64-19.2-102.4-19.2s-64 0-96 12.8c-25.6 12.8-44.8 25.6-64 38.4l-57.6-70.4c-6.4-6.4-12.8-6.4-19.2-6.4-6.4 0-12.8 0-12.8 6.4-6.4 6.4-12.8 19.2 0 32l57.6 70.4c-19.2 19.2-32 44.8-44.8 64-12.8 38.4-19.2 70.4-19.2 102.4s6.4 70.4 19.2 102.4c12.8 32 32 57.6 57.6 83.2 19.2 19.2 51.2 38.4 83.2 51.2 32 12.8 64 25.6 96 25.6s70.4-6.4 102.4-19.2c32-12.8 57.6-32 83.2-57.6s44.8-51.2 57.6-83.2c12.8-32 19.2-64 19.2-102.4s-6.4-64-25.6-96c-12.8-25.6-25.6-44.8-44.8-64l57.6-70.4c12.8-12.8 12.8-25.6 6.4-32z m19.2 422.4c-6.4-6.4-6.4-6.4-12.8-6.4s-12.8 0-12.8 6.4l-83.2 83.2c-6.4 6.4-6.4 19.2 0 32 32 32 83.2 32 115.2 0 25.6-32 25.6-83.2-6.4-115.2z"  horiz-adv-x="1024" />

    
    <glyph glyph-name="daojishitixing" unicode="&#59283;" d="M672 390.4H531.2V531.2c0 12.8-6.4 19.2-19.2 19.2-12.8 0-19.2-6.4-19.2-19.2v-160c0-12.8 6.4-19.2 19.2-19.2h160c12.8 0 19.2 6.4 19.2 19.2 0 12.8-6.4 19.2-19.2 19.2zM518.4 889.6C243.2 889.6 12.8 665.6 12.8 384s224-505.6 505.6-505.6 505.6 230.4 505.6 512S793.6 889.6 518.4 889.6zM243.2 646.4c32 32 83.2 32 115.2 0 6.4-6.4 6.4-19.2 0-32L275.2 531.2h-12.8s-12.8 0-12.8 6.4c-38.4 25.6-38.4 76.8-6.4 108.8z m524.8-537.6c-6.4-6.4-6.4-6.4-12.8-6.4s-12.8 0-19.2 6.4l-57.6 70.4c-19.2-19.2-38.4-32-64-38.4-32-12.8-64-19.2-102.4-19.2s-64 0-96 19.2c-25.6 12.8-44.8 25.6-64 38.4l-57.6-70.4c-6.4-6.4-12.8-6.4-19.2-6.4-6.4 0-12.8 0-12.8 6.4-6.4 6.4-6.4 19.2 0 32l57.6 70.4c-19.2 19.2-32 44.8-44.8 64-6.4 32-19.2 64-19.2 102.4s6.4 70.4 19.2 102.4c12.8 32 32 57.6 57.6 83.2 25.6 19.2 51.2 38.4 83.2 51.2 32 12.8 64 19.2 102.4 19.2s70.4-6.4 102.4-19.2c32-12.8 57.6-32 83.2-57.6s44.8-51.2 57.6-83.2c12.8-32 19.2-64 19.2-102.4s-12.8-64-25.6-96c-12.8-25.6-25.6-44.8-44.8-64l57.6-70.4c12.8-12.8 12.8-25.6 0-32z m19.2 422.4c-6.4-6.4-6.4-6.4-12.8-6.4s-12.8 0-12.8 6.4l-83.2 83.2c-6.4 6.4-6.4 19.2 0 32 32 32 83.2 32 115.2 0 25.6-32 25.6-83.2-6.4-115.2z"  horiz-adv-x="1024" />

    
    <glyph glyph-name="shengchengerweima" unicode="&#59284;" d="M19.2 889.6h435.2c6.4 0 12.8-6.4 12.8-12.8v-435.2c0-6.4-6.4-12.8-12.8-12.8H19.2c-6.4 0-12.8 6.4-12.8 12.8V876.8C6.4 883.2 12.8 889.6 19.2 889.6z m230.4-230.4c-6.4 0-6.4-6.4 0 0L243.2 512c0-6.4 6.4-6.4 6.4-6.4h140.8c6.4 0 6.4 6.4 6.4 6.4V652.8c0 6.4-6.4 6.4-6.4 6.4H249.6z m320 230.4h435.2c6.4 0 12.8-6.4 12.8-12.8v-435.2c0-6.4-6.4-12.8-12.8-12.8H569.6c-6.4 0-12.8 6.4-12.8 12.8V876.8c-6.4 6.4 0 12.8 12.8 12.8z m64-230.4c-6.4 0-6.4-6.4-6.4-6.4V512c0-6.4 6.4-6.4 6.4-6.4h140.8c6.4 0 6.4 6.4 6.4 6.4V652.8c0 6.4-6.4 6.4-6.4 6.4H633.6z m-64-313.6h435.2c6.4 0 12.8-6.4 12.8-12.8v-160c0-6.4-6.4-12.8-12.8-12.8h-256c-6.4 0-12.8-6.4-12.8-12.8v-243.2c0-6.4-6.4-12.8-12.8-12.8H569.6c-6.4 0-12.8 6.4-12.8 12.8V339.2c-6.4 0 0 6.4 12.8 6.4z m230.4-236.8h204.8c6.4 0 12.8-6.4 12.8-12.8v-204.8c0-6.4-6.4-12.8-12.8-12.8h-204.8c-6.4 0-12.8 6.4-12.8 12.8v204.8c0 6.4 6.4 12.8 12.8 12.8zM19.2 345.6h435.2c6.4 0 12.8-6.4 12.8-12.8v-435.2c0-6.4-6.4-12.8-12.8-12.8H19.2c-6.4 0-12.8 6.4-12.8 12.8V332.8c0 6.4 6.4 12.8 12.8 12.8z m230.4-76.8c-6.4 0-6.4-6.4-6.4-6.4v-140.8c0-6.4 6.4-6.4 6.4-6.4h140.8c6.4 0 6.4 6.4 6.4 6.4V262.4c0 6.4-6.4 6.4-6.4 6.4H249.6z"  horiz-adv-x="1024" />

    
    <glyph glyph-name="youxianji1" unicode="&#59285;" d="M294.4 256c-38.4 0-44.8 19.2-44.8 19.2l-153.6-307.2 121.6 12.8 70.4-102.4s140.8 300.8 140.8 294.4C358.4 179.2 384 256 294.4 256z m352-32c19.2 32 44.8 51.2 83.2 51.2 38.4 0 57.6 19.2 57.6 57.6 0 38.4 19.2 64 51.2 83.2s38.4 44.8 19.2 76.8-19.2 64 0 96 12.8 57.6-19.2 76.8c-32 19.2-51.2 44.8-51.2 83.2 0 38.4-19.2 57.6-57.6 57.6-38.4 0-64 19.2-83.2 51.2-19.2 38.4-44.8 44.8-76.8 25.6-32-19.2-64-19.2-96 0-38.4 19.2-64 12.8-83.2-19.2-19.2-32-51.2-51.2-89.6-51.2-38.4 0-57.6-19.2-57.6-57.6 0-38.4-19.2-64-51.2-83.2-25.6-19.2-38.4-44.8-19.2-76.8s19.2-64 0-96c-19.2-38.4-6.4-64 25.6-83.2 32-19.2 51.2-44.8 51.2-83.2 0-38.4 19.2-57.6 57.6-57.6 38.4 0 64-19.2 83.2-51.2 19.2-32 44.8-38.4 76.8-19.2s64 19.2 96 0c38.4-19.2 64-12.8 83.2 19.2zM563.2 384h-57.6V595.2c-25.6-19.2-44.8-32-76.8-38.4v51.2c19.2 6.4 32 12.8 51.2 25.6 12.8 12.8 25.6 32 32 44.8h44.8V384z m211.2-121.6c-115.2-12.8-89.6-38.4-115.2-64-32-32-70.4-25.6-70.4-25.6l172.8-300.8 44.8 108.8 121.6-12.8-153.6 294.4z"  horiz-adv-x="1024" />

    
    <glyph glyph-name="youxianji2" unicode="&#59286;" d="M851.2 595.2c19.2 32 12.8 57.6-19.2 76.8-32 19.2-51.2 44.8-51.2 83.2 0 38.4-19.2 57.6-57.6 57.6-38.4 0-64 19.2-83.2 51.2-19.2 32-44.8 38.4-76.8 19.2s-64-19.2-96 0c-38.4 19.2-64 12.8-83.2-19.2-19.2-32-51.2-51.2-83.2-51.2-38.4 0-57.6-19.2-57.6-57.6 0-38.4-19.2-64-51.2-83.2-32-19.2-38.4-44.8-19.2-76.8s19.2-64 0-96c-19.2-38.4-12.8-64 19.2-83.2 32-19.2 51.2-44.8 51.2-83.2 0-38.4 19.2-57.6 57.6-57.6 38.4 0 64-19.2 83.2-51.2 19.2-32 44.8-38.4 76.8-19.2s64 19.2 96 0 57.6-12.8 76.8 19.2c19.2 32 44.8 51.2 83.2 51.2 38.4 0 57.6 19.2 57.6 57.6 0 38.4 19.2 64 51.2 83.2 32 19.2 38.4 44.8 19.2 76.8-6.4 32-6.4 64 6.4 102.4zM608 422.4v-32H403.2v25.6c19.2 32 51.2 70.4 96 102.4 51.2 32 70.4 64 64 83.2 0 32-19.2 51.2-51.2 51.2s-51.2-19.2-64-57.6l-38.4 12.8c12.8 51.2 51.2 76.8 108.8 76.8 57.6 0 89.6-32 96-83.2 6.4-32-19.2-70.4-70.4-102.4-38.4-19.2-70.4-51.2-83.2-76.8h147.2zM294.4 256c-38.4 0-44.8 19.2-44.8 19.2l-153.6-307.2 121.6 12.8 70.4-102.4s140.8 300.8 140.8 294.4C358.4 179.2 384 256 294.4 256zM774.4 262.4c-115.2-12.8-89.6-38.4-115.2-64-32-32-70.4-25.6-70.4-25.6l172.8-300.8 44.8 108.8 121.6-12.8-153.6 294.4z"  horiz-adv-x="1024" />

    
    <glyph glyph-name="youxianji3" unicode="&#59287;" d="M838.4 595.2c19.2 32 12.8 57.6-19.2 76.8-32 19.2-51.2 44.8-51.2 83.2 0 38.4-19.2 57.6-57.6 57.6-38.4 0-64 19.2-83.2 51.2-19.2 32-44.8 38.4-76.8 19.2C512 864 480 864 448 883.2S390.4 896 371.2 864c-19.2-32-51.2-51.2-89.6-51.2-38.4 0-57.6-19.2-57.6-57.6 0-38.4-19.2-64-51.2-83.2-25.6-19.2-32-44.8-19.2-76.8 19.2-32 19.2-64 0-96-12.8-38.4-6.4-64 25.6-83.2 32-19.2 51.2-44.8 51.2-83.2 0-38.4 19.2-57.6 57.6-57.6 38.4 0 64-19.2 83.2-51.2 19.2-32 44.8-38.4 76.8-19.2s64 19.2 96 0 57.6-12.8 76.8 19.2c19.2 32 44.8 51.2 83.2 51.2 38.4 0 57.6 19.2 57.6 57.6 0 38.4 19.2 64 51.2 83.2 32 19.2 38.4 44.8 19.2 76.8-12.8 32-12.8 64 6.4 102.4zM499.2 384c-57.6 0-96 25.6-108.8 76.8l44.8 12.8c6.4-38.4 25.6-51.2 64-51.2s57.6 19.2 57.6 57.6c0 32-25.6 51.2-70.4 51.2h-25.6v25.6h19.2c44.8 0 64 19.2 64 51.2s-19.2 44.8-51.2 44.8c-25.6 0-44.8-19.2-51.2-51.2l-44.8 6.4c12.8 51.2 44.8 76.8 102.4 76.8 57.6 0 89.6-25.6 96-76.8 0-32-19.2-57.6-57.6-64 44.8-6.4 64-32 64-70.4 0-57.6-38.4-89.6-102.4-89.6zM281.6 256c-38.4 0-44.8 19.2-44.8 19.2l-153.6-307.2 121.6 12.8 70.4-102.4s140.8 300.8 140.8 294.4c-70.4 6.4-44.8 83.2-134.4 83.2zM761.6 262.4c-115.2-12.8-89.6-38.4-115.2-64-32-32-70.4-25.6-70.4-25.6l172.8-300.8 44.8 108.8 121.6-12.8-153.6 294.4z"  horiz-adv-x="1024" />

    
    <glyph glyph-name="yasuobao" unicode="&#59313;" d="M627.2-32h320c38.4 0 67.2 28.8 67.2 64V739.2c0 35.2-28.8 64-67.2 64h-316.8-3.2V889.6L9.6 809.6v-848l620.8-80V-32z m0 796.8h320c16 0 28.8-12.8 28.8-28.8v-704c0-16-12.8-28.8-28.8-28.8h-316.8-3.2V764.8zM246.4 291.2l-147.2 3.2v22.4L188.8 448H108.8v35.2l137.6 3.2v-25.6l-89.6-131.2h92.8v-38.4h-3.2z m73.6-3.2H275.2v198.4H320V288z m176 92.8c-16-16-41.6-22.4-70.4-22.4h-16V288h-48v201.6c16 3.2 35.2 6.4 64 6.4 28.8 0 51.2-3.2 67.2-16 12.8-9.6 22.4-28.8 22.4-48s-6.4-38.4-19.2-51.2z m-67.2 76.8c-6.4 0-12.8 0-19.2-3.2v-60.8h16c25.6 0 41.6 12.8 41.6 35.2 0 19.2-12.8 28.8-38.4 28.8z m313.6 294.4h76.8v-28.8h-76.8v28.8z m-73.6-44.8h76.8v-28.8h-76.8v28.8z m73.6-51.2h76.8v-28.8h-76.8v28.8z m0-92.8h76.8v-28.8h-76.8v28.8z m-73.6 48h76.8v-28.8h-76.8v28.8z m73.6-371.2c19.2 0 38.4 6.4 54.4 22.4 12.8 12.8 22.4 32 22.4 51.2l-12.8 121.6c0 38.4-19.2 70.4-60.8 70.4-41.6 0-60.8-32-60.8-70.4l-12.8-121.6c0-19.2 6.4-38.4 22.4-51.2 9.6-16 28.8-22.4 48-22.4z m-25.6 131.2H768v-99.2h-48v99.2h-3.2z"  horiz-adv-x="1024" />

    
    <glyph glyph-name="excel" unicode="&#59314;" d="M1004.8 764.8H662.4v-64h102.4v-99.2h-102.4v-32h102.4v-99.2h-102.4v-32h102.4v-96h-102.4v-38.4h102.4v-96h-102.4v-38.4h102.4v-96h-102.4v-70.4h342.4c6.4 3.2 9.6 9.6 12.8 19.2 3.2 9.6 6.4 19.2 6.4 25.6v704c0 6.4-3.2 9.6-6.4 9.6s-9.6 3.2-12.8 3.2zM960 70.4h-163.2v96H960v-96z m0 134.4h-163.2v96H960v-96z m0 134.4h-163.2v96H960v-96z m0 128h-163.2v99.2H960v-99.2z m0 134.4h-163.2V700.8H960v-99.2c0-3.2 0 0 0 0zM0 780.8v-793.6l604.8-105.6V886.4L0 780.8z m358.4-601.6c-3.2 6.4-12.8 32-32 80-9.6 28.8-22.4 54.4-35.2 83.2l-64-153.6-89.6 3.2 102.4 192-92.8 192 89.6 3.2 57.6-150.4 67.2 156.8 92.8 6.4-108.8-208 112-211.2-99.2 6.4z"  horiz-adv-x="1024" />

    
    <glyph glyph-name="mp1" unicode="&#59317;" d="M835.2 896v-217.6h131.2L835.2 896zM969.6 598.4V649.6H800V896H54.4v-1024h915.2V598.4zM585.6 672l99.2 144h28.8v-140.8h28.8V640h-28.8v-51.2h-38.4V643.2h-92.8V672z m-192 144H480c12.8 0 25.6 0 32-3.2 9.6-3.2 22.4-6.4 28.8-9.6 6.4-6.4 12.8-12.8 19.2-22.4 6.4-9.6 6.4-19.2 6.4-32 0-19.2-6.4-38.4-19.2-48-12.8-16-35.2-22.4-67.2-22.4h-48v-86.4h-38.4v224z m-262.4 0h51.2l51.2-156.8 6.4-16c3.2 6.4 3.2 12.8 6.4 19.2l54.4 153.6h48v-227.2H307.2V745.6L252.8 592h-32L166.4 745.6v-156.8H131.2V816z m819.2-924.8H70.4V508.8h880v-617.6zM627.2 678.4h54.4V752l-54.4-73.6zM518.4 768c-3.2 6.4-9.6 9.6-16 9.6-3.2 0-9.6 3.2-25.6 3.2h-48v-67.2H480c19.2 0 28.8 3.2 35.2 9.6 6.4 6.4 9.6 12.8 9.6 25.6 3.2 6.4 0 12.8-6.4 19.2z m268.8-444.8l-163.2-73.6v105.6H236.8v-313.6h387.2v112l163.2-83.2v252.8z"  horiz-adv-x="1024" />

    
    <glyph glyph-name="xialajiantou" unicode="&#59318;" d="M512-83.2c9.6 0 22.4 3.2 28.8 12.8l470.4 425.6c9.6 6.4 12.8 19.2 12.8 32 0 22.4-19.2 41.6-41.6 41.6-9.6 0-22.4-3.2-28.8-9.6L512 16 70.4 416c-6.4 6.4-19.2 9.6-28.8 9.6-22.4 0-41.6-19.2-41.6-41.6 0-12.8 6.4-22.4 12.8-32L483.2-73.6c6.4-6.4 16-9.6 28.8-9.6zM512 278.4c9.6 0 22.4 3.2 28.8 12.8L1008 716.8c9.6 6.4 12.8 19.2 12.8 32 0 22.4-19.2 41.6-41.6 41.6-9.6 0-22.4-3.2-28.8-9.6L512 380.8 70.4 780.8c-6.4 6.4-19.2 9.6-28.8 9.6-22.4 0-41.6-19.2-41.6-41.6 0-12.8 6.4-22.4 12.8-32L483.2 291.2c6.4-6.4 16-12.8 28.8-12.8z"  horiz-adv-x="1027" />

    
    <glyph glyph-name="qinquanzhongxin" unicode="&#59323;" d="M892.8 745.6C704 745.6 518.4 886.4 518.4 889.6c-12.8 9.6-28.8 9.6-38.4 0-3.2 0-185.6-144-374.4-144-19.2 0-32-12.8-32-32v-352c0-144 64-281.6 172.8-374.4 92.8-76.8 176-115.2 252.8-115.2 76.8 0 160 35.2 246.4 108.8 112 96 179.2 233.6 179.2 380.8v352c0 19.2-12.8 32-32 32z m-57.6-380.8c0-115.2-54.4-233.6-144-307.2-70.4-57.6-134.4-86.4-192-86.4-57.6 0-124.8 32-195.2 92.8-89.6 76.8-137.6 185.6-140.8 300.8V662.4c150.4 9.6 288 96 336 131.2 48-35.2 185.6-118.4 336-131.2v-297.6zM348.8 342.4h137.6l-80-256 284.8 339.2h-166.4l73.6 172.8h-185.6z"  horiz-adv-x="1024" />

    
    <glyph glyph-name="fengxianfuwu" unicode="&#59328;" d="M505.6 876.8c57.6 0 44.8-57.6 44.8-108.8 0-25.6 6.4-51.2-6.4-64 0-12.8-12.8-19.2-25.6-19.2-6.4 0-19.2 0-19.2 6.4-38.4 12.8-25.6 57.6-25.6 102.4 0 19.2-6.4 44.8 0 57.6 6.4 19.2 19.2 19.2 32 25.6zM217.6 780.8c12.8 0 19.2-6.4 32-6.4 19.2-25.6 38.4-51.2 57.6-70.4 6.4-12.8 25.6-25.6 32-38.4 6.4-19.2-6.4-44.8-19.2-51.2-12.8-6.4-32-6.4-44.8 0-19.2 12.8-25.6 32-38.4 44.8-12.8 12.8-19.2 25.6-32 38.4C192 716.8 166.4 736 192 768c6.4 6.4 12.8 6.4 25.6 12.8z m576-12.8c32 0 57.6-19.2 44.8-51.2-6.4-12.8-19.2-25.6-32-38.4-12.8-12.8-25.6-32-38.4-44.8-6.4-6.4-12.8-19.2-25.6-25.6-12.8-6.4-32-6.4-44.8 0-12.8 6.4-25.6 32-12.8 57.6l44.8 38.4c12.8 12.8 19.2 25.6 32 32 6.4 6.4 12.8 19.2 25.6 25.6l6.4 6.4zM748.8 416c-25.6 83.2-83.2 147.2-166.4 172.8-19.2 6.4-38.4 6.4-64 6.4h-64c-25.6-6.4-51.2-19.2-76.8-32-51.2-32-89.6-83.2-115.2-147.2C256 377.6 256 326.4 256 281.6v-230.4h499.2V281.6c0 44.8 0 96-6.4 134.4z m-76.8-121.6v-153.6H339.2V294.4c0 32 0 64 6.4 89.6 12.8 44.8 38.4 76.8 76.8 102.4 19.2 6.4 32 19.2 57.6 19.2h38.4c12.8 0 25.6 0 38.4-6.4 57.6-19.2 96-57.6 115.2-115.2 6.4-19.2 0-57.6 0-89.6zM57.6 518.4c12.8 0 25.6 0 38.4-6.4 19.2-6.4 44.8-6.4 64-12.8 19.2 0 32 0 44.8-12.8 12.8-12.8 19.2-32 6.4-51.2-6.4-6.4-12.8-12.8-25.6-12.8s-25.6 0-38.4 6.4c-19.2 0-44.8 6.4-64 6.4-19.2 6.4-38.4 6.4-44.8 19.2C19.2 460.8 19.2 499.2 32 512c6.4 6.4 12.8 6.4 25.6 6.4zM947.2 499.2c32 0 57.6-32 38.4-64-12.8-12.8-32-12.8-51.2-19.2-25.6-6.4-44.8-6.4-70.4-12.8-12.8 0-25.6-6.4-32-6.4-12.8 0-25.6 12.8-32 19.2-12.8 19.2 0 44.8 19.2 51.2 6.4 6.4 19.2 6.4 32 6.4 25.6 6.4 44.8 6.4 70.4 12.8 6.4 12.8 19.2 12.8 25.6 12.8zM812.8-96H198.4c-19.2 0-38.4 19.2-38.4 38.4v12.8c0 19.2 19.2 38.4 38.4 38.4h614.4c19.2 0 38.4-19.2 38.4-38.4v-12.8c0-19.2-19.2-38.4-38.4-38.4z"  horiz-adv-x="1024" />

    
    </font>
</defs>
</svg>
